<mxfile host="app.diagrams.net" modified="2022-05-16T07:01:52.095Z" agent="5.0 (Macintosh; Intel Mac OS X 10_15_7) AppleWebKit/537.36 (KHTML, like Gecko) Chrome/100.0.4896.127 Safari/537.36" etag="CsVNSzyD08H3sJQXHBsy" version="18.0.5" type="github" pages="4">
  <diagram id="q9JE0bsu9Nl35Ci1RGcl" name="Page-1">
    <mxGraphModel dx="1426" dy="769" grid="1" gridSize="10" guides="1" tooltips="1" connect="1" arrows="1" fold="1" page="1" pageScale="1" pageWidth="827" pageHeight="1169" math="0" shadow="0">
      <root>
        <mxCell id="0" />
        <mxCell id="1" parent="0" />
        <mxCell id="kEE0ZJBKa-dd4XbF4qvP-44" style="rounded=0;orthogonalLoop=1;jettySize=auto;html=1;exitX=0;exitY=1;exitDx=0;exitDy=0;entryX=1;entryY=0.75;entryDx=0;entryDy=0;" parent="1" source="kEE0ZJBKa-dd4XbF4qvP-19" target="kEE0ZJBKa-dd4XbF4qvP-42" edge="1">
          <mxGeometry relative="1" as="geometry" />
        </mxCell>
        <mxCell id="kEE0ZJBKa-dd4XbF4qvP-45" value="信息接口成功返回" style="edgeLabel;html=1;align=center;verticalAlign=middle;resizable=0;points=[];" parent="kEE0ZJBKa-dd4XbF4qvP-44" vertex="1" connectable="0">
          <mxGeometry x="0.1647" relative="1" as="geometry">
            <mxPoint x="15" as="offset" />
          </mxGeometry>
        </mxCell>
        <mxCell id="kEE0ZJBKa-dd4XbF4qvP-19" value="" style="rounded=1;whiteSpace=wrap;html=1;shadow=0;" parent="1" vertex="1">
          <mxGeometry x="314" y="190" width="10" height="160" as="geometry" />
        </mxCell>
        <mxCell id="kEE0ZJBKa-dd4XbF4qvP-5" style="edgeStyle=orthogonalEdgeStyle;rounded=0;orthogonalLoop=1;jettySize=auto;html=1;exitX=0.5;exitY=1;exitDx=0;exitDy=0;startArrow=none;" parent="1" source="o_WTmm--45rSbdLKJnr--1" edge="1">
          <mxGeometry relative="1" as="geometry">
            <mxPoint x="139" y="600" as="targetPoint" />
          </mxGeometry>
        </mxCell>
        <mxCell id="kEE0ZJBKa-dd4XbF4qvP-1" value="app" style="rounded=1;whiteSpace=wrap;html=1;" parent="1" vertex="1">
          <mxGeometry x="79" y="50" width="120" height="30" as="geometry" />
        </mxCell>
        <mxCell id="kEE0ZJBKa-dd4XbF4qvP-6" style="edgeStyle=orthogonalEdgeStyle;rounded=0;orthogonalLoop=1;jettySize=auto;html=1;startArrow=none;" parent="1" source="o_WTmm--45rSbdLKJnr--3" edge="1">
          <mxGeometry relative="1" as="geometry">
            <mxPoint x="319" y="610" as="targetPoint" />
            <mxPoint x="319" y="370" as="sourcePoint" />
          </mxGeometry>
        </mxCell>
        <mxCell id="kEE0ZJBKa-dd4XbF4qvP-2" value="kupu" style="rounded=1;whiteSpace=wrap;html=1;" parent="1" vertex="1">
          <mxGeometry x="259" y="50" width="120" height="30" as="geometry" />
        </mxCell>
        <mxCell id="kEE0ZJBKa-dd4XbF4qvP-7" style="edgeStyle=orthogonalEdgeStyle;rounded=0;orthogonalLoop=1;jettySize=auto;html=1;exitX=0.5;exitY=1;exitDx=0;exitDy=0;startArrow=none;" parent="1" source="o_WTmm--45rSbdLKJnr--7" edge="1">
          <mxGeometry relative="1" as="geometry">
            <mxPoint x="499" y="600" as="targetPoint" />
          </mxGeometry>
        </mxCell>
        <mxCell id="kEE0ZJBKa-dd4XbF4qvP-3" value="advance" style="rounded=1;whiteSpace=wrap;html=1;" parent="1" vertex="1">
          <mxGeometry x="439" y="50" width="120" height="30" as="geometry" />
        </mxCell>
        <mxCell id="kEE0ZJBKa-dd4XbF4qvP-8" style="edgeStyle=orthogonalEdgeStyle;rounded=0;orthogonalLoop=1;jettySize=auto;html=1;exitX=0.5;exitY=1;exitDx=0;exitDy=0;" parent="1" source="kEE0ZJBKa-dd4XbF4qvP-4" edge="1">
          <mxGeometry relative="1" as="geometry">
            <mxPoint x="689" y="600" as="targetPoint" />
          </mxGeometry>
        </mxCell>
        <mxCell id="kEE0ZJBKa-dd4XbF4qvP-4" value="man" style="rounded=1;whiteSpace=wrap;html=1;" parent="1" vertex="1">
          <mxGeometry x="629" y="50" width="120" height="30" as="geometry" />
        </mxCell>
        <mxCell id="kEE0ZJBKa-dd4XbF4qvP-13" style="edgeStyle=orthogonalEdgeStyle;rounded=0;orthogonalLoop=1;jettySize=auto;html=1;exitX=1;exitY=0.25;exitDx=0;exitDy=0;entryX=0;entryY=0.25;entryDx=0;entryDy=0;" parent="1" source="kEE0ZJBKa-dd4XbF4qvP-9" target="kEE0ZJBKa-dd4XbF4qvP-11" edge="1">
          <mxGeometry relative="1" as="geometry" />
        </mxCell>
        <mxCell id="kEE0ZJBKa-dd4XbF4qvP-14" value="1:调用advance" style="edgeLabel;html=1;align=center;verticalAlign=middle;resizable=0;points=[];" parent="kEE0ZJBKa-dd4XbF4qvP-13" vertex="1" connectable="0">
          <mxGeometry x="-0.5143" y="-1" relative="1" as="geometry">
            <mxPoint as="offset" />
          </mxGeometry>
        </mxCell>
        <mxCell id="kEE0ZJBKa-dd4XbF4qvP-9" value="" style="rounded=1;whiteSpace=wrap;html=1;" parent="1" vertex="1">
          <mxGeometry x="134" y="100" width="10" height="60" as="geometry" />
        </mxCell>
        <mxCell id="kEE0ZJBKa-dd4XbF4qvP-10" value="" style="edgeStyle=orthogonalEdgeStyle;rounded=0;orthogonalLoop=1;jettySize=auto;html=1;exitX=0.5;exitY=1;exitDx=0;exitDy=0;endArrow=none;" parent="1" source="kEE0ZJBKa-dd4XbF4qvP-1" target="kEE0ZJBKa-dd4XbF4qvP-9" edge="1">
          <mxGeometry relative="1" as="geometry">
            <mxPoint x="139" y="600" as="targetPoint" />
            <mxPoint x="139" y="80" as="sourcePoint" />
          </mxGeometry>
        </mxCell>
        <mxCell id="kEE0ZJBKa-dd4XbF4qvP-15" style="edgeStyle=orthogonalEdgeStyle;rounded=0;orthogonalLoop=1;jettySize=auto;html=1;exitX=0;exitY=0.75;exitDx=0;exitDy=0;entryX=1;entryY=0.75;entryDx=0;entryDy=0;" parent="1" source="kEE0ZJBKa-dd4XbF4qvP-11" target="kEE0ZJBKa-dd4XbF4qvP-9" edge="1">
          <mxGeometry relative="1" as="geometry" />
        </mxCell>
        <mxCell id="kEE0ZJBKa-dd4XbF4qvP-16" value="2:身份证图片,人脸图片,活体检测ID" style="edgeLabel;html=1;align=center;verticalAlign=middle;resizable=0;points=[];" parent="kEE0ZJBKa-dd4XbF4qvP-15" vertex="1" connectable="0">
          <mxGeometry x="0.3086" y="1" relative="1" as="geometry">
            <mxPoint x="45" as="offset" />
          </mxGeometry>
        </mxCell>
        <mxCell id="kEE0ZJBKa-dd4XbF4qvP-11" value="" style="rounded=1;whiteSpace=wrap;html=1;" parent="1" vertex="1">
          <mxGeometry x="494" y="100" width="10" height="60" as="geometry" />
        </mxCell>
        <mxCell id="kEE0ZJBKa-dd4XbF4qvP-12" value="" style="edgeStyle=orthogonalEdgeStyle;rounded=0;orthogonalLoop=1;jettySize=auto;html=1;exitX=0.5;exitY=1;exitDx=0;exitDy=0;endArrow=none;" parent="1" source="kEE0ZJBKa-dd4XbF4qvP-3" target="kEE0ZJBKa-dd4XbF4qvP-11" edge="1">
          <mxGeometry relative="1" as="geometry">
            <mxPoint x="499" y="600" as="targetPoint" />
            <mxPoint x="499" y="80" as="sourcePoint" />
          </mxGeometry>
        </mxCell>
        <mxCell id="kEE0ZJBKa-dd4XbF4qvP-27" style="rounded=0;orthogonalLoop=1;jettySize=auto;html=1;exitX=1;exitY=0;exitDx=0;exitDy=0;entryX=0;entryY=0;entryDx=0;entryDy=0;" parent="1" source="kEE0ZJBKa-dd4XbF4qvP-17" target="kEE0ZJBKa-dd4XbF4qvP-19" edge="1">
          <mxGeometry relative="1" as="geometry" />
        </mxCell>
        <mxCell id="kEE0ZJBKa-dd4XbF4qvP-28" value="3:调用orcUserIdCard" style="edgeLabel;html=1;align=center;verticalAlign=middle;resizable=0;points=[];" parent="kEE0ZJBKa-dd4XbF4qvP-27" vertex="1" connectable="0">
          <mxGeometry x="-0.2824" y="1" relative="1" as="geometry">
            <mxPoint x="25" y="1" as="offset" />
          </mxGeometry>
        </mxCell>
        <mxCell id="kEE0ZJBKa-dd4XbF4qvP-18" value="" style="edgeStyle=orthogonalEdgeStyle;rounded=0;orthogonalLoop=1;jettySize=auto;html=1;exitX=0.5;exitY=1;exitDx=0;exitDy=0;startArrow=none;endArrow=none;" parent="1" source="kEE0ZJBKa-dd4XbF4qvP-9" target="kEE0ZJBKa-dd4XbF4qvP-17" edge="1">
          <mxGeometry relative="1" as="geometry">
            <mxPoint x="139" y="600" as="targetPoint" />
            <mxPoint x="139" y="160" as="sourcePoint" />
          </mxGeometry>
        </mxCell>
        <mxCell id="kEE0ZJBKa-dd4XbF4qvP-32" style="edgeStyle=none;rounded=0;orthogonalLoop=1;jettySize=auto;html=1;exitX=0;exitY=0.25;exitDx=0;exitDy=0;entryX=1;entryY=0.5;entryDx=0;entryDy=0;dashed=1;" parent="1" source="kEE0ZJBKa-dd4XbF4qvP-19" target="kEE0ZJBKa-dd4XbF4qvP-17" edge="1">
          <mxGeometry relative="1" as="geometry" />
        </mxCell>
        <mxCell id="kEE0ZJBKa-dd4XbF4qvP-33" value="已实名直接返回" style="edgeLabel;html=1;align=center;verticalAlign=middle;resizable=0;points=[];" parent="kEE0ZJBKa-dd4XbF4qvP-32" vertex="1" connectable="0">
          <mxGeometry x="0.4188" y="-1" relative="1" as="geometry">
            <mxPoint x="27" y="1" as="offset" />
          </mxGeometry>
        </mxCell>
        <mxCell id="kEE0ZJBKa-dd4XbF4qvP-36" style="edgeStyle=none;rounded=0;orthogonalLoop=1;jettySize=auto;html=1;exitX=1;exitY=0.5;exitDx=0;exitDy=0;entryX=0.1;entryY=0.177;entryDx=0;entryDy=0;entryPerimeter=0;" parent="1" source="kEE0ZJBKa-dd4XbF4qvP-19" target="kEE0ZJBKa-dd4XbF4qvP-23" edge="1">
          <mxGeometry relative="1" as="geometry" />
        </mxCell>
        <mxCell id="kEE0ZJBKa-dd4XbF4qvP-37" value="5:调用ORC识别图片信息" style="edgeLabel;html=1;align=center;verticalAlign=middle;resizable=0;points=[];" parent="kEE0ZJBKa-dd4XbF4qvP-36" vertex="1" connectable="0">
          <mxGeometry x="-0.2631" y="-1" relative="1" as="geometry">
            <mxPoint x="23" y="-1" as="offset" />
          </mxGeometry>
        </mxCell>
        <mxCell id="kEE0ZJBKa-dd4XbF4qvP-41" value="数据库记录" style="edgeStyle=orthogonalEdgeStyle;rounded=0;orthogonalLoop=1;jettySize=auto;html=1;exitX=1;exitY=0.75;exitDx=0;exitDy=0;" parent="1" source="kEE0ZJBKa-dd4XbF4qvP-19" edge="1">
          <mxGeometry x="0.0042" y="16" relative="1" as="geometry">
            <mxPoint x="324.33333333333337" y="350" as="targetPoint" />
            <mxPoint as="offset" />
          </mxGeometry>
        </mxCell>
        <mxCell id="kEE0ZJBKa-dd4XbF4qvP-20" value="" style="edgeStyle=orthogonalEdgeStyle;rounded=0;orthogonalLoop=1;jettySize=auto;html=1;exitX=0.5;exitY=1;exitDx=0;exitDy=0;endArrow=none;" parent="1" source="kEE0ZJBKa-dd4XbF4qvP-2" target="kEE0ZJBKa-dd4XbF4qvP-19" edge="1">
          <mxGeometry relative="1" as="geometry">
            <mxPoint x="319" y="610" as="targetPoint" />
            <mxPoint x="319" y="80" as="sourcePoint" />
          </mxGeometry>
        </mxCell>
        <mxCell id="kEE0ZJBKa-dd4XbF4qvP-38" style="edgeStyle=none;rounded=0;orthogonalLoop=1;jettySize=auto;html=1;exitX=0;exitY=0.5;exitDx=0;exitDy=0;entryX=0.98;entryY=0.624;entryDx=0;entryDy=0;entryPerimeter=0;" parent="1" source="kEE0ZJBKa-dd4XbF4qvP-23" target="kEE0ZJBKa-dd4XbF4qvP-19" edge="1">
          <mxGeometry relative="1" as="geometry" />
        </mxCell>
        <mxCell id="kEE0ZJBKa-dd4XbF4qvP-39" value="6:返回识别文本信息" style="edgeLabel;html=1;align=center;verticalAlign=middle;resizable=0;points=[];" parent="kEE0ZJBKa-dd4XbF4qvP-38" vertex="1" connectable="0">
          <mxGeometry x="0.0129" y="1" relative="1" as="geometry">
            <mxPoint as="offset" />
          </mxGeometry>
        </mxCell>
        <mxCell id="kEE0ZJBKa-dd4XbF4qvP-23" value="" style="rounded=1;whiteSpace=wrap;html=1;" parent="1" vertex="1">
          <mxGeometry x="494" y="260" width="10" height="60" as="geometry" />
        </mxCell>
        <mxCell id="kEE0ZJBKa-dd4XbF4qvP-24" value="" style="edgeStyle=orthogonalEdgeStyle;rounded=0;orthogonalLoop=1;jettySize=auto;html=1;exitX=0.5;exitY=1;exitDx=0;exitDy=0;startArrow=none;endArrow=none;" parent="1" source="kEE0ZJBKa-dd4XbF4qvP-11" target="kEE0ZJBKa-dd4XbF4qvP-23" edge="1">
          <mxGeometry relative="1" as="geometry">
            <mxPoint x="499" y="600" as="targetPoint" />
            <mxPoint x="499" y="160" as="sourcePoint" />
          </mxGeometry>
        </mxCell>
        <mxCell id="kEE0ZJBKa-dd4XbF4qvP-29" style="edgeStyle=orthogonalEdgeStyle;rounded=0;orthogonalLoop=1;jettySize=auto;html=1;exitX=1;exitY=0;exitDx=0;exitDy=0;entryX=1;entryY=0.25;entryDx=0;entryDy=0;" parent="1" source="kEE0ZJBKa-dd4XbF4qvP-19" target="kEE0ZJBKa-dd4XbF4qvP-19" edge="1">
          <mxGeometry relative="1" as="geometry">
            <Array as="points">
              <mxPoint x="344" y="190" />
              <mxPoint x="344" y="230" />
            </Array>
          </mxGeometry>
        </mxCell>
        <mxCell id="kEE0ZJBKa-dd4XbF4qvP-30" value="4:判断是否已实名认证" style="edgeLabel;html=1;align=center;verticalAlign=middle;resizable=0;points=[];" parent="kEE0ZJBKa-dd4XbF4qvP-29" vertex="1" connectable="0">
          <mxGeometry x="0.05" y="1" relative="1" as="geometry">
            <mxPoint x="34" as="offset" />
          </mxGeometry>
        </mxCell>
        <mxCell id="kEE0ZJBKa-dd4XbF4qvP-43" value="" style="edgeStyle=orthogonalEdgeStyle;rounded=0;orthogonalLoop=1;jettySize=auto;html=1;exitX=0.5;exitY=1;exitDx=0;exitDy=0;startArrow=none;endArrow=none;" parent="1" source="kEE0ZJBKa-dd4XbF4qvP-17" target="kEE0ZJBKa-dd4XbF4qvP-42" edge="1">
          <mxGeometry relative="1" as="geometry">
            <mxPoint x="139" y="600" as="targetPoint" />
            <mxPoint x="139" y="270" as="sourcePoint" />
          </mxGeometry>
        </mxCell>
        <mxCell id="kEE0ZJBKa-dd4XbF4qvP-42" value="" style="rounded=1;whiteSpace=wrap;html=1;" parent="1" vertex="1">
          <mxGeometry x="134" y="320" width="10" height="40" as="geometry" />
        </mxCell>
        <mxCell id="kEE0ZJBKa-dd4XbF4qvP-17" value="" style="rounded=1;whiteSpace=wrap;html=1;" parent="1" vertex="1">
          <mxGeometry x="134" y="190" width="10" height="80" as="geometry" />
        </mxCell>
        <mxCell id="kEE0ZJBKa-dd4XbF4qvP-47" value="" style="edgeStyle=orthogonalEdgeStyle;rounded=0;orthogonalLoop=1;jettySize=auto;html=1;exitX=0.5;exitY=1;exitDx=0;exitDy=0;startArrow=none;endArrow=none;" parent="1" source="kEE0ZJBKa-dd4XbF4qvP-19" edge="1">
          <mxGeometry relative="1" as="geometry">
            <mxPoint x="319" y="370" as="targetPoint" />
            <mxPoint x="319" y="350" as="sourcePoint" />
          </mxGeometry>
        </mxCell>
        <mxCell id="kEE0ZJBKa-dd4XbF4qvP-48" value="&lt;font style=&quot;font-size: 10px&quot;&gt;正确信息入库待审核&lt;br&gt;错误信息入库直拒核&lt;/font&gt;" style="shape=process;whiteSpace=wrap;html=1;backgroundOutline=1;shadow=0;" parent="1" vertex="1">
          <mxGeometry x="170" y="270" width="120" height="60" as="geometry" />
        </mxCell>
        <mxCell id="o_WTmm--45rSbdLKJnr--5" style="edgeStyle=orthogonalEdgeStyle;rounded=0;orthogonalLoop=1;jettySize=auto;html=1;exitX=1;exitY=0.25;exitDx=0;exitDy=0;entryX=0;entryY=0.25;entryDx=0;entryDy=0;" parent="1" source="o_WTmm--45rSbdLKJnr--1" target="o_WTmm--45rSbdLKJnr--3" edge="1">
          <mxGeometry relative="1" as="geometry" />
        </mxCell>
        <mxCell id="o_WTmm--45rSbdLKJnr--6" value="7:活体检测" style="edgeLabel;html=1;align=center;verticalAlign=middle;resizable=0;points=[];" parent="o_WTmm--45rSbdLKJnr--5" vertex="1" connectable="0">
          <mxGeometry x="0.0588" y="1" relative="1" as="geometry">
            <mxPoint as="offset" />
          </mxGeometry>
        </mxCell>
        <mxCell id="o_WTmm--45rSbdLKJnr--1" value="" style="rounded=1;whiteSpace=wrap;html=1;" parent="1" vertex="1">
          <mxGeometry x="134" y="390" width="10" height="40" as="geometry" />
        </mxCell>
        <mxCell id="o_WTmm--45rSbdLKJnr--2" value="" style="edgeStyle=orthogonalEdgeStyle;rounded=0;orthogonalLoop=1;jettySize=auto;html=1;exitX=0.5;exitY=1;exitDx=0;exitDy=0;startArrow=none;endArrow=none;" parent="1" source="kEE0ZJBKa-dd4XbF4qvP-42" target="o_WTmm--45rSbdLKJnr--1" edge="1">
          <mxGeometry relative="1" as="geometry">
            <mxPoint x="139" y="600" as="targetPoint" />
            <mxPoint x="139" y="360" as="sourcePoint" />
          </mxGeometry>
        </mxCell>
        <mxCell id="o_WTmm--45rSbdLKJnr--9" style="edgeStyle=orthogonalEdgeStyle;rounded=0;orthogonalLoop=1;jettySize=auto;html=1;exitX=1;exitY=0.25;exitDx=0;exitDy=0;entryX=0;entryY=0.25;entryDx=0;entryDy=0;" parent="1" source="o_WTmm--45rSbdLKJnr--3" target="o_WTmm--45rSbdLKJnr--7" edge="1">
          <mxGeometry relative="1" as="geometry" />
        </mxCell>
        <mxCell id="o_WTmm--45rSbdLKJnr--3" value="" style="rounded=1;whiteSpace=wrap;html=1;" parent="1" vertex="1">
          <mxGeometry x="314" y="390" width="10" height="40" as="geometry" />
        </mxCell>
        <mxCell id="o_WTmm--45rSbdLKJnr--4" value="" style="edgeStyle=orthogonalEdgeStyle;rounded=0;orthogonalLoop=1;jettySize=auto;html=1;startArrow=none;endArrow=none;" parent="1" target="o_WTmm--45rSbdLKJnr--3" edge="1">
          <mxGeometry relative="1" as="geometry">
            <mxPoint x="319" y="610" as="targetPoint" />
            <mxPoint x="319" y="370" as="sourcePoint" />
          </mxGeometry>
        </mxCell>
        <mxCell id="o_WTmm--45rSbdLKJnr--7" value="" style="rounded=1;whiteSpace=wrap;html=1;" parent="1" vertex="1">
          <mxGeometry x="494" y="390" width="10" height="40" as="geometry" />
        </mxCell>
        <mxCell id="o_WTmm--45rSbdLKJnr--8" value="" style="edgeStyle=orthogonalEdgeStyle;rounded=0;orthogonalLoop=1;jettySize=auto;html=1;exitX=0.5;exitY=1;exitDx=0;exitDy=0;startArrow=none;endArrow=none;" parent="1" source="kEE0ZJBKa-dd4XbF4qvP-23" target="o_WTmm--45rSbdLKJnr--7" edge="1">
          <mxGeometry relative="1" as="geometry">
            <mxPoint x="499" y="600" as="targetPoint" />
            <mxPoint x="499" y="320" as="sourcePoint" />
          </mxGeometry>
        </mxCell>
      </root>
    </mxGraphModel>
  </diagram>
  <diagram id="XYOMZz3gXE-gS1KjlrcU" name="Page-2">
    <mxGraphModel dx="1426" dy="769" grid="1" gridSize="10" guides="1" tooltips="1" connect="1" arrows="1" fold="1" page="1" pageScale="1" pageWidth="827" pageHeight="1169" background="#FFFFFF" math="0" shadow="0">
      <root>
        <mxCell id="0" />
        <mxCell id="1" parent="0" />
        <mxCell id="YT6Hr-ajXvsEarm_LwC1-1" value="Service A" style="rounded=1;whiteSpace=wrap;html=1;sketch=1;shadow=0;fillColor=#ffe6cc;strokeColor=#d79b00;" parent="1" vertex="1">
          <mxGeometry x="160" y="40" width="120" height="60" as="geometry" />
        </mxCell>
        <mxCell id="YT6Hr-ajXvsEarm_LwC1-2" value="Service B" style="rounded=1;whiteSpace=wrap;html=1;sketch=1;shadow=0;fillColor=#ffe6cc;strokeColor=#d79b00;" parent="1" vertex="1">
          <mxGeometry x="540" y="40" width="120" height="60" as="geometry" />
        </mxCell>
        <mxCell id="YT6Hr-ajXvsEarm_LwC1-3" value="ServiceB Api" style="rounded=0;whiteSpace=wrap;html=1;sketch=1;shadow=0;fillColor=#ffe6cc;strokeColor=#d79b00;" parent="1" vertex="1">
          <mxGeometry x="170" y="100" width="80" height="20" as="geometry" />
        </mxCell>
        <mxCell id="YT6Hr-ajXvsEarm_LwC1-5" value="rpc" style="rounded=0;whiteSpace=wrap;html=1;sketch=1;shadow=0;fillColor=#ffe6cc;strokeColor=#d79b00;" parent="1" vertex="1">
          <mxGeometry x="360" y="150" width="120" height="60" as="geometry" />
        </mxCell>
        <mxCell id="YT6Hr-ajXvsEarm_LwC1-9" value="" style="endArrow=classic;startArrow=classic;html=1;rounded=0;exitX=0.5;exitY=1;exitDx=0;exitDy=0;entryX=0;entryY=0.5;entryDx=0;entryDy=0;sketch=1;shadow=0;fillColor=#ffe6cc;strokeColor=#d79b00;" parent="1" source="YT6Hr-ajXvsEarm_LwC1-3" target="YT6Hr-ajXvsEarm_LwC1-5" edge="1">
          <mxGeometry width="50" height="50" relative="1" as="geometry">
            <mxPoint x="220" y="370" as="sourcePoint" />
            <mxPoint x="270" y="320" as="targetPoint" />
            <Array as="points">
              <mxPoint x="210" y="180" />
            </Array>
          </mxGeometry>
        </mxCell>
        <mxCell id="YT6Hr-ajXvsEarm_LwC1-10" value="" style="endArrow=classic;startArrow=classic;html=1;rounded=0;exitX=1;exitY=0.5;exitDx=0;exitDy=0;entryX=0.5;entryY=1;entryDx=0;entryDy=0;sketch=1;shadow=0;fillColor=#ffe6cc;strokeColor=#d79b00;" parent="1" source="YT6Hr-ajXvsEarm_LwC1-5" target="YT6Hr-ajXvsEarm_LwC1-2" edge="1">
          <mxGeometry width="50" height="50" relative="1" as="geometry">
            <mxPoint x="650" y="200" as="sourcePoint" />
            <mxPoint x="860" y="260" as="targetPoint" />
            <Array as="points">
              <mxPoint x="600" y="180" />
            </Array>
          </mxGeometry>
        </mxCell>
        <mxCell id="5Aev1RExUfUuKyrzrUi3-2" value="" style="shape=image;verticalLabelPosition=bottom;labelBackgroundColor=default;verticalAlign=top;aspect=fixed;imageAspect=0;image=data:image/png,iVBORw0KGgoAAAANSUhEUgAAAggAAAGACAYAAADI95pLAAAAAXNSR0IArs4c6QAAIABJREFUeF7snQecU8UWxk+SLfSm8qQJiAUs2EBBARVURAULXUFBAQVsqIgiRQULCChSbdi7gPRmAUVEQAQpSm+CSJPqsi15v/8sE0JYdrMkm2SzZ3z72E3unfLNuXO+U2auw+PxeESLIqAIKAKKgCKgCCgCPgg4lCCoPCgCioAioAgoAoqAPwJKEFQmFAFFQBFQBBQBReA4BJQgqFAoAoqAIqAIKAKKgBIElQFFQBFQBBQBRUARyB4B9SBkj5FeoQgoAoqAIqAI5DsElCDkuynXASsCioAioAgoAtkjoAQhe4z0CkVAEVAEFAFFIN8hoAQh3025DlgRUAQUAUVAEcgeASUI2WOkVygCioAioAgoAvkOASUI+W7KdcCKgCKgCCgCikD2CChByB4jvUIRUAQUAUVAEch3CChByHdTrgNWBBQBRUARUASyR0AJQvYY6RWKgCKgCCgCikC+QyDPEITMXjqpL6LMd/KqA1YEFAFFIGoRcDgcYvUSv/uWrL6L1gFFFUHwVfhud5p4+M9z9Ec84gUfQPU91dEqVtovRUARUATyIQIej4jhBY6MfzJ+FciB+TF/869DnE6n+UzEeRyRiBbkIk4QIAHi8Yjb7Za09HTzuyEFkg6OWhQBRUARUAQUgZhCAH1HcTqc4nTGG6JgCYPDYYlD5IccEYJgvQLp6emS7k4VjwcyoGwg8uKgPVAEFAFFQBGIBALoRUMUHAkSFxfn9TpEoi9e54cnjIF821R6epqkpaccCRdkgKJFEVAEFAFFQBHIrwhYguBxiziceBRcEudK8OrHSOjJsHgQLDHweNySkgIxcIvDqRkE+fVB0HErAoqAIqAIZI0A6QzicYrLFSfx8RlhiHCXsBGEtLRUSUlNEpfLFe4xanuKgCKgCCgCikCeRcDjcUhCfIGw689cJwgkY6SmJZs8Ay2KgCKgCCgCioAicDIIOMTlzMhPoITDo5ArBMGGFCAHKamHzYbECHhHTmYG9B5FQBFQBBQBRSAqEcCTEOeKO5LEmPve+FwjCOxQIKwgDvUcRKWkaacUAUVAEVAE8hwCGN4up0vi4wtIbm+JzBWCADlITU0WcWTs9dSiCCgCioAioAgoAqFBAC895ybEx+UuSQgpQbDnG6SkHBaPuDWsEBpZ0FoUAUVAEVAEFAEvAjaMzyFLCfGJuZaPEHKCcPhwkjic6jlQWVYEFAFFQBFQBHITAXe6w2yBjI9PyJVmQkYQYDSpqani9qTkSke1UkVAEVAEFAFFQBHwR8Ah8XGJ5ryEUJeQEATIQbo7RVJSkk1cRIsioAgoAoqAIqAIhAsBhyQmFAp5qCFkBCE5+b8jeQfhP+0pXFOg7SgCioAioAgoAtGIgEPiJTExMaRdCwlBSEtLk7Q0di3o8ckhnR2tTBFQBBQBRUARCAABd7pTChQoEFIvflAEIWPXAochJQXQfb1EEVAEFAFFQBFQBHILAYe4JCGBrY+h8eQHTRAy3syYnFvj1XoVAUVAEVAEFAFFIAAE3G6HFEgsGDIvQpAE4cjbGSUtgK7rJYqAIqAIKAKKgCKQWwi43WLORYiLiw9JE0ERhHR3asaJiVoUAUVAEVAEFAFFICoQSEwoHJIww0kTBPIP0tJSJC09JSQdiQpUtROKgCKgCCgCikAeRyAhvlBIwgxBEYSMI5X1ZUx5XJa0+4qAIqAIKAIxhIDLmWhOWAy2nDRB4I1SySmHxaEvZAp2DvR+RUARUAQUAUUgZAg4HQmSkBD88csnTRB4Y2NKKgRBzz4I2axqRYqAIqAIKAKKQJAIkAJQsEBhEQnuZOOTJgiQA7Y4hmi7ZZBw6O2KgCKgCCgCioAiAAIQhAKJHL3sCgqQkyYIySmHhDBDqA5kCGoUerMioAgoAoqAIqAIGAQgCIkJnIcQ3AucTpogHE4+ZE5RVIKgEqkIKAKKgCKgCEQXAnGujDc8BqOjc0wQYCaU5JT/lCBElzxobxQBRUARUAQUAYMABCHYA5NOmiCkpEIQNEFRZVERUAQUAUVAEYg2BFzOBEMQwupBsPENPAgiShCiTSi0P4qAIqAIKAKKgNMRL/HxCUoQVBQUAUVAEVAEFAFFwAcBj0sSE4N7s+NJhRgILWS84lk9CCqQJ4eAhqdODje9SxFQBEKPQDBu+ND3JkQ1RpYgEGLQogjkHAHIQXJyimzeskUcwnvLlWjmHEW9QxFQBIJHwCHFixeT0qVPC76qaKshEgQBDDhFMRUPAmu7FkUgpwh4HLJz5x754btJcm65wuY8DS2KgCKgCIQbgcMpqZJSoLLUqVs73E3nfnuRIAhYfyzoqWmEGLQoAieBwBGCsGT+DKlfvbh4nEoQTgJFvUURUASCRGD/Ibes3HWK1Kl7ZZA1ReHtShCicFK0S9kj4CUI06T+RaXErQQhe8z0CkVAEQg5AnsPpcmqHaWlTr1aIa874hVGgiAwaBNiUA9CxOc/z3ZACUKenTrtuCIQSwgoQch6Nk9qF0NaWpqku5NjSU50LOFEQAlCONHWthQBReAECChBUIKgD0e0IaAEIdpmRPujCORLBJQgKEHIl4If1YNWghDV06OdUwTyCwJKEJQg5BdZzzvjVIKQd+ZKe6oIxDACsUwQ3G6nFCxQMLxHLbPNUXMQYviJCcfQlCCEA2VtQxFQBLJBQAmCehD0IYk2BJQgRNuMaH8UgXyJgBIEJQj5UvCjetBKEKJ6erRzikB+QUAJghKE/CLreWecShDyzlxpTxWBGEZACYIShBgW7zw6tCAJgsfjFoersLg8qXkUgPB12y0u8bgPiziCfHGKJ13ElSgufa9WtpOX7HBKvCdZPJ7gMHe4PZIeHy/xehJ5tpiniUuc7hTxOHImoEoQlCBkK1x6QZgRCJIgiCtOCpdvJOJ0hrnjea85T9JB+W/7d0G/MdMRV1ASK1wvLn1DW7ZCkLZ/i6TtWSzpOdNVx9XrTCwiCWWuFZdD5Tw70NP3rJDkveuUIPgApbsYspMa/T46EQiSIDjEJYUrNxaHKyE6xxdFvUpP+keSts0O2pr1OBOlcMWbxeWKi6LRRV9X4ASH962TtJ2/Bt05R3xRKVjuBnHFuYKuK9YrSP7nN0k/sFbSc/jqePUgqAch1p+NvDc+JQhhm7PQEYQEKVzpFnE5lSBkN3lJhiAsDt5rE19ECpZrqAQhO8BFRAnC8SCpByEAwdFLohABJQhhmxQlCGGD2tuQEoTwY64EQQlC+KVOW8wdBJQg5A6umdSqBCFsUCtBCD/U3haVIChBiKD4adMhRUAJQkjhzKoyJQhhg1oJQvihVoKQBeYaYoigQGrTQSAQRoLA0eAU+6/tNX+7XBnJX0lJSRIfHy9xcVnH19PT0821BQsW9N57IhQ4jpw2bJ3//fefuc/tdovT6TTno/Nj+8Xvtp/2Gv62n/t+Z/sdyAxEkiAwttTU1GNw9R13SkqK+c6Ox3eO7LjBwo6duhITE4/DxBdDX7y417ZvMfedf+7jc/71/d3eV6BAgUAgPu6aaAsxWHwYF/gwZv8CTsi3xdf3Hnu975zwHBQqVMgrw1zv+z1t+c6rrYPPeTYSEhKCekeAf//Vg3C8qCpBOKnHV2+KOAIRIAgoI38FxILGQnXHHXfIyy+/LOecc06W0FBHq1at5K233pJTTjkly2t//PFH+fDDD2X06NHCfbfffruMGDFCevbsaf4tUaKEWUBZLA8ePOhdtK1SHTZsmFmw/UuDBg3k2muvDXgKI0kQDh06JC1btpQvvvjCYP/qq69Kjx49DBlLTk6Wm2++WT799FM57bTTvCTgm2++kTlz5njHd8UVV0ijRo3kzz//lMGDB8vbb799DDlD4cyePVsWLlwojz/++DFkBGy5lzaYL1/ysHfvXlMfhTouvvhiad68uennX3/9Jffdd59MmzYtWyKY2UREG0FgfG+++aYUKVJEWrdunemYfvvtNxk1apSRTeYH7JDhKVOmSP/+/Y8hZsjzjTfeaPC2hOLMM8+USpUqGfyYb4hf48aN5aeffpI9e/aYZwz8//nnH7n77rtl6tSp2RLygIVckxQzhUoJQk4kSK+NHgTCTBBYIDt16iT79+/3YlChQgUZNGiQUcy33nqrvPLKK8cQBO557LHHZMeOHd57+Gzjxo3CYuhrebKgDh8+XIoWLWoWSKwx2nvkkUfkkksuMYstyvCrr76SRYsWmUUYklGyZEnzXZ8+fWTXrl2ybt06Oe+888zCSt9ee+0103a/fv2kd+/eMnHiRKNMUV6BlkgShF9++UWeeeYZg0GtWrVky5YtRvmUL19evv/+e/NTv35989ltt90ml19+uYwZM0ZQ3hCh1atXy99//y0PPfSQPPzww7JmzRqDsbVAwZNy+PBheemll8z88u/OnTvlueeeM9+tWLFCzj//fKMUK1asKE899ZSZu3379knHjh3N3ytXrjTYlypVyswP80zb5557rlFq9A8l+b///S9T69t/LqKRIOzevVu6d+8uF1xwgZFL//L7778buYRIUCyZ+uCDDwxJeOONN7ykGPlmfp588kkvQahcubJ5LiC1d955p7kWD8y9995ryDfE+KOPPjK4g/VFF11knhWesdNPPz1ob4J6EI5fEZQgBLpKxth1PITP9OwjL7zYX1yuDDf1ooWL5e/t26Rx41vk4IH/ZPCQIdK7dy9zlpCv5TR16gxJTIyX+vWv9X6OF37O7B9l27atcuedrUVyeBpZjuENI0GwFqJ/H8Fww4YNsnjxYrP4YeGgfFEeDRs2lGLFisn69euN9U/h+qFDhwoL4bx58+TZZ5+VwoULexfTs846y1hEKJeff/7ZEAY8CHyGQkPpf/LJJ0bBYe1WrVrVtMHccA99GTJkiLkPRde2bVtDCPiORfa9997zWs/RThCQR0vKUPwoC5QAhGjSpEnGA/Ldd9/Jpk2bDHECo3LlyhkFjYegePHiZj5+/fVXmTt3rgnNWG8MOIMj3olu3boZ/C0pe/fddw3ZA7+nn37aEC+r7FCQfA8BgSxwTdeuXeX999838/Xtt9/KgQMH5LrrrpMqVap4Q0DMO4rw9ddfF0il77N0IrmPNoJgQyj//vuv4JmCGHXu3PkYjxoeHTBhrsAY7wrPAuPHu8D8QR7s3OLlqVOnjsGS67gHzwB14LWBcPMdhBeSxu8QBoguP5Au7oOE+YeNcryeqAchU8jyFUFAMHHFbt685Zj9xfFx8VKmTBkpXKSIOU02kAc4MAG08eGjsbWs7vONwQVW/8lfBYM/s/I5snbdKlm8+FdZvnyFLP51qfzzz3ZpdFNDOXTwsFkIMqwlt7Rp28Y8hJQeTz4jhQsXlF69ex7BKiP2/d67H8off/whLw948cipvIGN+6RGEWaCYBdI376y8OG2Rtl//vnncv311xsFNWHCBLMQYuX63odCGzlypAkZ4HpeunSpDBgwwCg33/g1iqtDhw7GasYFi9LZunWrsdoIM2Ad42Zlsb7rrruMq5b7IQh4DSAI3HPTTTd5Ldi1a9capYWXAQVI/YGWSHgQGA99RclPnz7dxKotUbOYMgYIUd++fY2s2nwMCAL4EFoAE7AD07p16xq3dLNmzcwcoNhxmVuCwP08FxS8PNT78ccfe2HCEwFpeOedd4yywpKFeBHyQO65B8JXunRpQ0hsob+42vGEBGrpRhtBsBhB2vhhTGBqyRPY4UEAe7xWKG6wAOPLLrvMeGAIu0CUkGPyDyBs999/v6kPTxHl0UcfNfMNsbPkzBIKvrfPQbt27cyajcfI9iFQeT7RdepBOB6ZfEUQEMRp06ZLq5Z3eRcTm3ADM4UR9+r91EnFDDMTutWr1sr8+b9Im7ats3Ur8hBs375dvv76a7N4w45zs1iCsGnzBhk/bpzMmTPXLKYonUsvvdTEd1lMUUj0pV//vt5F+skne0rhQgWkd59eZpGcNfN7s2BgqWHRtWnTxvx96mklj/EyhHQ8YSQIjOWHH37wLmJ2HMgTCuzss8+WW265xSgpXKQojeeff95YtJAI4qdjx441cVVIBIsgmLKYglmXLl3MQgdRYF5QejNnzjRW1KpVq4yyx3Jevny5aYf2qJsflBHKirnDpU2snEUYosLiizzRf8IVhCSwfmknL3gQULh4CyBTkFPkCgzOOOMMqVGjhvTq1ctYqU888YTJTUD5opjJJwBXvCy4w7FSb7jhBoMDynz+/PkmVl69enWzDoA5pA7ixf0tWrQwyh4lhHXqW8Ac4gCGyP7AgQNl8+bNpp4mTZoY8oE7HRe4r6Fxzz33GG9PoCXaCAIeLDxQFMaBV4dnHUXOGsH84CXAS4KcgQ+yj3eN0Aq4o9B5LljfIMfjx483ITnI34UXXmjmAyIB2SYUxDOHNwJcmQ9CEnhqeBYgJ4RratasabwytBesYacEQQmCIQgtW9wp69evkVNPPVU4Fh6vwqiRb8iAAQNl8W+LpVKl8oE+x1leN3bseOndq48sX7HU627M6oZfFy2RG25oKFu2bJRChY9aICHpzJFKUGoDBrwif/6xSqZMmWrc1lhaKAwW1m3btpmFGOsNi2fYsNclsQCuvAw3Notsz6d7S0EIQq9nTEz48Se6m/Ht3LHbEAwWVRZblOCkyV+Ly5UL58CHmSCwYGGFE0pASeMdoGDlI0dY6yhfPkcZEPNHceNJIMmqdu3axp1NiIGQA9iyMGJ1saiymBInxzWO0iO+CjEgvko93MMc8Tdt+hbuZRGmf1hpJHpRFzFbFmTmzCpSSB8KNi8QBMbFDwQATFEeKCFi2vSfuQAX5gaZ4zqu4XlGHsEEvMAUOcWaBR+UEe5tiBoKBuWCMkJmyUnAa2A9CHga/Hd8INc2CQ9PBaEF6iBBEfc4u038d0LwNwot0Mz7aCQIKHTILuQVsguxIlcAub7yyiuN0ockW4JgE3ohudxLci7yyFxigBD+ggxDPphTPGHkeFCoGzLNNeSHEBICP0J2zA05IpASCASybXdDBLNWKkFQgmAIQrOmLWXLlg1y6mmnGkQQ5H/37JPKlasYQW1y680mBJGe5pYtf22Rf/fskcQCBczCWqTI0Zgx9+39d6/8tXWrEWjiz+XKlhOni0zbHTJ+3AQZMuRVmT5jirHoSpQoLsnJKbJ50ybZf+CAccFhkVDnjh07ZdHC30zceN7PP0m5smUksUCiSbAqX6687Ni5wyhvMqVZNFnosGBw5fHgYEmixA8dPCS79+wxSgvLhsWqVMmSUuGMit5cg3XrNsjuXXvktttul2nTph6xCG43ixtvOaQ4XbxSxyGHDh2UadMnG6XEg9qsWQvZsGGTxMW5pGzZMjJk8CA57/zzxCFOefPNd4wVO2DgALNoDhk8RKZMnWj6FfISZoLAXKOMyOAmDo1LtF69ekZRMPckytkEQAgW8VO+W7JkibFgUSDMFYsh2BBDx2vF3xAv5pZFjp0JLJ6fffaZUViWIJickWeekWuuucYspP4EgTpQlLh3CWPgwsVKtrsYIH/cy3X05+qrrw54SiIVYkDeUOQ8k2ANaeIZJHmQZDibe4FiRrHbbXC4rnkWcetj6fKs4K1h7vgbhQ/e1ENeAd4dlA1YYd1C9FBCXF+2bNlj4uw8I7QNEeH5g5TQN+qBJOLxwHths+157q03EELDc5nZFkH/yYg2goD8I6usKYwZzPgMbAkZQL7wmvgSBDsmng9kGbxeeOEFQ5qZW9Y61idIE54b5gjvBEm9EEFINt4w1jzkl2cI7w6FZEVyea666iqDNXOqHoSAH+mAL8yXIQZDEP7akOFBOFJWrVortWtdaVyYZcuWlpSUVHngga7G9XjqqadIUtJhI9Tzf5lrBBNhnDP7J7MFCwFngWHxuKPp7TJ06BDp0vkhmThxklnsWSCefa633H9/J7ni8qtk29/bpFTJUsZKR7n/OHeOdO/+hIwfN9FcD3HA0sTtDDMn5kmsmYUFSwiXHoqHh4lFDUvTKvGZM741oRLcebBsHhwWLxTYp599aP5GSYwbN146dnhApkyZKLVqXSEXXniJzPv5B0lMyMgzyCBODmnT5m5jiV562UVGQc798WejIFFuWAQXX3KBWYxZLIa9Pkr27d8jvXo9I2w1GzxoaEwQBIsHLmvkgeRCFq9q1aoZqxH8UTwzZpC8mWgWPlzeWDfIDCQPRYNrG08CCVZYXix8zDfWFV4J33g4SgprzRIE8GWRJN8BouBf7O4IiIlVnpYc8B3hBiw7il1QA10lIkUQcCNPnjzZ4IOlj+VPyADFjnUJeQAX3NyEHIh1k+SGixqvAV4BZB8lQkInHgN7pgT3IcPEu22SHAqwffv2Rr4hCMwzv9t7wBGFhfeCxDmbyMicQgzwxLFTgnnDDU57/M288qyiBAN1hUcbQbCyggWPTI4bN85LeJknyO2yZcsyJQgQB7w5hLmYG0gsssmzwTpBkqnv2QrkGTB3yPEDDzxgdq8g9+APceBfrqFNcKZeZEMJQqBPdODX5TuCMH3adGnduq1ZYDKS7kiG2m3cYyy8Xbp2Muj16fOsvP/eh/Lz/B+NBZ+aliaPP/akeTBWrlwhHkmT6hdeKh07dZCeT/cQp8spGzdskcsvv8LE6hreeJ1Rwn1695Xfl/1mHqYlS5ZK/WuvN+GNUqeUlKT/kuS6626U66+vL3369pbFv/5urMONmzZIkSIFZdPGrcZyxzvwwYfvyoUXXmByGtq36yALF/1sPsfL0aJFa3F7UmXcuLFmwWvVso307dtLHnr4QUNOVq5YJXXr1stIpLvhWnGni7RufZdROCx0xKlZ3LA6fR8yvAQHDx4yMVUIwpFzeORoDkJvSU5OkzhzWJDDEAkykXEhsnjjPpwwYZwkJGZkG4e0hNmDwILGgg8pgrjhKSEWjaUPMWDhQn4YJ3kJWL0QPbKvIQS4SJs2bWoIBtvgIH1Y+BQsJ0gGW8hsop0/QeA65gdigXyhcFhgseBwy3IfIQYsNOYACxeSmUH0MrwfyDu/Y/GylS/QEgmCYPtmt4pCuiAA5OmQvIaSgVyh1FEQ4AX2KGNLEAjtMGcQWDw+uMZJMqRAzvH0oKAs5mAEQQBf4usQBCzio4TZY+YcAu5PECAZWLeQBurAwn7wwQeNMsW7QYIoxkSgJVoJAsreehDsDgVwY54wrvAOEJbxzaFC1jCqKMwfRhEeLDAiuZNnCvJM8iw5CcwHzxteNtYedu3goYBcsT7SLvdCuiFnEC/dxRCoZOXsuvxHEKbPkNat2kjDG2+QhIR4+IGkpCbL8mV/GCGfOWuGlClzutS64krzQHd/spt3Afl3z16pUuUcmTVrliz6daEMHPCKLF26WIoULZyR7JSSJnfd1Ua2bv1b5v40R8aNHS+9evWWFSt/N99v2fKXXHzRZdKyZQvp0eNJKV++guzevUfi4p1SsmQJWfLbMrNF6q+tW6RQoUTZsH6LSdwZ+vpQad++rZnZQ4f+k/379kvp0v8ziz1MumnT5lLqlBIyc+Z0k9DVtk17WfnHcild+tQjbliPdH6gi8ydO0+WLf9N1q5ZL4MGDTFkAqsSRYLFxEOIN8Q38x6l36//c3LZZZd4yYMlCL1695Jbb71Nli1bbgjCgf0HjDVWpGgRSUtNlZTUFBOG+OWXn029IS1hJggoFBLQUK4shCxI/OCGRlmh5Fn4GD8eHpQUiyQxVxQbSXJ4GSAIFNzgyBcJioQEWBwhFSx6yEpmBAFliIcAzxcJdJADFB7uVhQhpIUkSaxo5MZur6Q93MCWMNAvrC//kwFPND+RJgjEuFHmeA9wcbMnHkVkz5HAi4PCoIAdZAwCRUIb2xAhacwVVqn1vuBdg2xBEGysHA8R8g721INis9tOfQkLCXckxuEy53qUFGSNPAgIAqENiBp5IOxCgaCwLZDnK9BYeTQSBJQ2ZAd8+BcyxppJzsaXX35pwgWsX+DjWyDMyB47bHherGeGe0joRW7BEtwg0zYUZ8N2EG2eL+ud4xmjTYgxzyPzx3ypByGkK6ypLF8ShBbNW8v6DSQpnmIIAuXAgUPSuPGtJp6MoGIhsLi3at3MizoWXPnyleSD9z8wiWdsW/tp3o8mtk/JSAYbIkNfGy4bNq6RCV9POoYg8P0Xn48zDwuuOtxj7Bh44YXnpVLlSvLb4t+PIwjEXX//falUqlzB1I+SoF/ffjNH9u/fJyVLljKfFSpcQL75ZqYhCA92fVRWrFwmBQtmhAt4sEePfkOefqqX7NixTZo0uU26P9lD7m1/r6xZs1rGj//aWEy4CnngWWx58Gxew30d2pnYr30AfXcxgAmFkMwF5+NlcMjXE8ZJtWpHs78DXRRzJN5hJgjgg3JHLrByIAMoGbDCtYqSZ+HCwsITgFvcnvjGnDB3WD+4TbF4bIwahYUbHaLGXNuYamYEgXlEAaHsCTlhQbN7wSpBe04AOOIRI1nPyiXtYtHav5E73PCBLKqRJAjWQ0A/kUkUOqEd3PhY6oTScD+TX4Ey5wfsIHFsQWVOyLngB8sWdzUFuaUuyD4yD4lAcRGKgbwR8mFbJNarVT52ux24kytCaINwB+SXdiAcKE52V0AgcI9DFFBkYM/31BkI5tFGEMCIMApyjZJH3snXwFOFPIMn+EDMIKB4xJgb1kg8bIRlXnzxRUNsWTv5m0RHSBQeG4gxhMGecgnhYtcCCbeQDjx0rM1478j14NlibngOIQ7ZHXEeyNqiSYrHo5TvCEJmSYp20Xziie7y1ptjZNfu7VKr1lXS7p728vAjXbyoYblXrnyWTJ48SRb9ukBGDB8tv/32q8not3V0uK+jLF26XBYsnGeSFK0HgYcHhs3iQuLS39v+kUWLFhtrCCaONc+i7u9BIE4NmTjl1OIZGd2Pd5eZM7+Vd8a8IRdecKFxY3fp8rCsWv2HlyDce28nWbliufEq2H51e/QxGT9+oklke6Dz/TJ8+FBfQ/XMAAAgAElEQVQ595zzZePGdTJ9xnQ5nJSx/5s2sEqxfHj4bGncuJEkJGZ4ASAIhQoWkKbNbpeNGzZK4yaNZeWKldKixZ0m5jp37g/yzpi3cnerZhgJwokWF5QU47W7EDgzgvnFgmceWVTJ4GYRBVdCLuBvPTTEwCEEeBL4zFr03GdPA8RF7Rue4Tq8PXgSaB/F739kM0qVEIbvCY7+Y2CBZgEPRFlFkiCgFDjXgRwEcMCTwyFUhLBQ8FieeEoYBySBeDakCw8KJAjsUSQLFiwwioh5oUCeUFAoPeYG6xYSAYHADQ4ZJGQDaUbhobCYF/oDOSBznh+SjAkDkuNAgaxAIpEF5pfnm2eUPBSeez4LJNwWbQTBrgsQHYgoRBj8+ReZtzkF/MtcMGaeC7bdMgd4Ohk3c8HfYIr3DJLKukjYiB1QrHeQLQgHHjW2+kIceEYgIoRDIXPMn91VBSGHNAYiy1kRBSUIShCMIm7erLVs2rQxYxeDR4wFjrsWC69q1Woyduzn0rHT/bLqzzUyefJEKV6iuMnu/+jDTwQSsXLlcvl3726pV7e+vP76UBNbdjjdsnvXv0cOt+ku3R57WMaP+1p69uwlvy9barwMY955R156aaAsWfqrFCpY2Dgvhr0+wriIcW+y5Y3ciI0b10vBQokmB8GXIPBAXHpJDalR43J5620y1D1yYP9BadToJilWrKhMmz5NZsyYarZxvvX229Ks6R2m3Z07d8sVtWpJm7vaSt9ne0tKSrJh3FXO5KCk1dKz59NmN4aIUxYsWGgWYR7cq66qLR7xsBNUXhv6qiQkJBpM+vXrb+Lop5/+P3niiW5y/Q0NpdGNN8mTPbrLjQ0bSpMmtxpM7uvQPmRnShwnulFAEFDW/i8Sop++C5VV/JYU+C9izKn/i2yog0WT72ziou/4rSVr2/JXONZlntViaPsViGUVSYIABv7F5gzYzy2m1tXsGyKzyW92t4iNjXMNig2lw+8otswUt23Lf059++Tr3rZKy/d6/zoCUWTRRhAYL7Luv+Uzq7FYOfT9186H/1zZemzYyBo2vrJsr8lsLjTEEMiTnPNr8p0HgSTFli3vMi4t37eD4brNcIl9I0WLFTEKs1Ejtjs6pHXrVrJu/Rr54vOx8vKAl6R9u3YiDre8/NIrMmz4cGnVsqWUr1BW3h3zwRFvwDQpXqKIifk3a9pcrr76GrmnXVu5+up6UrPGFXJGxQpy8003me2IH3/0qYmv9u3bWzZu3CSXXnqZNG58s3TseJ+ULVtBLr3sMlm3dq2ccmoJSUtNk1cGDZZXhwyVTvffJyVLnGJ2SvAQYU1+9tmnsnnLBrnn7vuMZUMiUOUzz5CvvhxnFkO2XyUWyHjboD0oaeOm9eJw8CY6MSGOtm3bGFds377PSsuWzaX9ve0kPj7jEJLVq1abhEgyhu++u23GC38cHhn62jBjcX33/SyD6da/tsmtt90uPXs+Jc2aNQ3IYsqx6EYBQchxn/PoDZEkCHkUsqC7HY0EIehBRXkF6kHI5x4Ehr9502aZOfO7Y5Bgn36FCmfINddcLfEJGdn2KN3DSYdl7NgJ5oUwuNtxy1Y5K+MgDwpWx4oVf8pHH35sYm7ESFu0aC6uI2/8pQ52HaxY/qfUvPxSqV79QuM6e/ut98wJY3gwWrZoKTVqkgCYUd9Pc+ebpJ269a40rjyUO4mPBQpmnKzodntk0sQphhjgsiTJByuo/wv9pVu3R2XTpvXSqVMXWbhggXz88SemLnY/EFtNSMx4NbEvQVi/Ya2sX7fOnGHAPv5hw4fKddfVl73/HjR1//ffIen/wnPGXYv1YJk/RAA3X7/nXzL7+n/88QcpVDgj54FrFi361SSDPvBAJ3m028MhiREeM2lKEMK23CpBCBvU3oaUIIQfcyUIShDCL3VhbBHFTEJcxw6dZc3aVVLoSG5EZl3Ag1CzRm2TZHn33W2kbp1rpXOXjsec9Ia79Ntvv5PevZ6VmbOmehO2MoiK25zJQMYysUL/XQr0hcS+5557Xt555+3QexGUIIRNspQghA1qJQjhh9rbohIEJQgRFL/cbxqlzFG6HNL0x58rsyQIhBTS0tLNiYgoe05CdLoyrH//GB9hYI4x8I9b21i4f1wyw43A/zLeyGfjjiFFQAlCSOHMqjIlCGGDWglC+KFWgpAF5vkqByGCsheWplHYBw8clG3bdsjZ51QxSj1mixKEsE2tEoSwQa0EIfxQK0FQghBBqdOmcweBIAmCOOKl8Bk3i8QdzcvInY7GQK3JO+TQlrkmITWY4nQVlkIVGornyLkhwdQV6/e6922Q5F1LxC3H7+LIydidCSUksWwD4x3UkjUCqTuXSuredeJx5kzO9x5Kk1U7SkudehlnbMRSUQ9CLM1mfhpLsASBoEqBU8RhT8rKT9jlcKxuj0c8yXtyeFcmlzvA/FRxHHkhWPAVxm4N7vRUkdT9wUun0ymOhFPEGSTRiF2kj47Mk5Yk5ieHqCtByFo6HJ5ANl771MHl7EtOdyfnB7nTMeYGAkEThNzolNapCCgC+Q0BJQhKEPKbzEf/eJUgRP8caQ8VgXyAgBIEJQj5QMzz2BCVIOSxCdPuKgKxiYASBCUIsSnZeXlUShDy8uxp3xWBmEFACYIShJgR5pgZiBKEmJlKHYgikJcRUIKgBCEvy29s9l0JQmzOq45KEchjCChBUIKQx0Q2H3RXCUI+mGQdoiIQ/QgoQVCCEP1Smt96qAQhv824jlcRiEoElCAoQYhKwczXnVKCkK+nXwevCEQLAkoQlCBEiyxqPywCXoIwVa69oKQe36uSoQgoAhFBYO+hVFm1u7TUqatHLWc2AXqSYkTEUhvds3ufzJg+XQokeiRdHAqIIqAIKAJhR8DpTpeyFc+RWlfUCHvbud2gvoshtxHW+nMFAY7rtq+fzuFJ37nSH61UEVAE8icCrD+80p6fWCtKEGJtRnU8ioAioAgoAopACBBQghACELUKRUARUAQUAUUg1hBQghBrM6rjUQQUAUVAEVAEQoCAEoQQgKhVKAKKgCKgCCgCsYaAEoRYm1EdjyKgCCgCioAiEAIElCCEAEStQhFQBBQBRUARiDUElCDE2ozqeBQBRUARUAQUgRAgoAQhBCBqFYqAIqAIKAKKQKwhoAQh1mZUx6MIKAKKgCKgCIQAASUIIQBRq1AEFAFFQBFQBGINASUIsTajOh5FQBFQBBQBRSAECChBCAGIWoUioAgoAoqAIhBrCChBiLUZzUfjSU1Nk927domIU0Tc+WjkOlRFQBGIFgTcDqcULlhAihcvFi1dClk/lCCEDEqtKJwIeDwiu3ftlVnTJ0i5UyEICeFsXttSBBQBRcAgkJKWKonFz5S69a6MOUSUIMTclOaTAXkcsnPnHlkyf5rUv6iUuJ3qQcgnM6/DVASiCoG9h9Jk1Y7SUqderajqVyg6owQhFChqHeFHQAlC+DHXFhUBReA4BJQgZC0UDo8Hh2/ghcvT0tIk3Z0c+E16pSLgi4ASBJUHRUARiAIElCAoQYgCMdQuHIOAEgQVCEVAEYgCBJQgKEGIAjHULihBUBlQBBSBaENACYIShGiTSe2PehBUBhQBRSAKEFCCoAQhCsRQu6AeBJUBRUARiDYElCAoQYg2mdT+qAdBZUARUASiAAElCEoQokAMtQvqQVAZUAQUgWhDQAmCEoRok0ntj3oQVAYUAUUgChBQgqAEIQrEULugHgSVAUVAEYg2BJQgKEGINpnU/gTpQfC43eJ0xUsOz/jKh7g7xCkOcXtSRRyOoMbvdKeJx5WomAeIIjLq4DUjQRSHcIZdongkLYha8smtHoc4HGnikZzJuRIEJQj55AnJQ8MMkiA4HfFS4IzrxekskIcGHf6uol7SkndI6tafxO3I0YGpx3XWEV9ACpW7XhyO+PAPJE+16JHU/eslZdcy8TiCe8eII6GEFCx7tTgdrjyFQCQ6e3jP7+Leuy7Hcq4EQQlCJORV28wKgSAJgkNcUrhyY3G49C2Q2QlaetI/krRttng8ObOs/Ov1OBOkcKVbxOWMy67JfP990r51krZzsYjxAJx8ccQXkYLlGoorTglCdigm//ObpB9YK+k5xFwJghKE7GRLvw83AkoQwoa4EoSwQe1tSAlC+DFXgnA85vo2x/DLobYYCgSUIIQCxYDqUIIQEEwhvUgJQkjhDKgyJQhKEAISFL0oDyCgBCFsk6QEIWxQqwch/FB7W1SCoAQhguKnTYcUASUIIYUzq8qUIIQNaiUI4YdaCUIWmGuIIYICqU0HgUAUEAS3253plj2Hg+1SGT+2pKenm2v5NyEh4ZjvMkMhLS3NXMM9tONyHU0ys387nSfeA2fvy6xu7vPtW3azEEmCAF7+/bVjy2oc4Mf3vhhZ/P0/Z/z2O34HG4u37xxnh1tWmFNnVvPlPwfREmIA/8zk+UQyAwZgHx8fb+SWYjGknri4YxNUuRasrTz64u0r87Y96rc423uoI5BnKjs5Vw+CehCykxH9Pq8gEAGCcODAAUlNTfUiVLhwYdm7d68cPHjwGNT4/H//+5930bOL2quvvirVq1eXBg0aHKe4rGKyC+quXbtkx44dUrVqVbPgtm/fXt566y3566+/5Mcff5R7773Xqzh9z3LwXWi51re/lnBUqFDBLKiBlkgShDlz5shll10mYGoxSkpKkoceesjgYccLBr6kZ+7cuTJ//nx54oknvCSOax577DHp1q2bnHHGGaY+3/t+//13+frrr6Vnz55eRYbCGjRokFx77bVSo0aN44iVb/vUt23bNjl8+LCX3FmMCxUqJGXKlAkUcok0QbAy9fjjj0vXrl3lzDPPPGZMvlj7yt+mTZsMXsOGDTPY8sz07t1b7rnnHtm3b5/B0ffeTp06yYsvviinnnqqwWb9+vXSv39/efvttzMlVNS5c+dOGT16tDz99NOyZs0a+fjjj+X555/3Xm/l3PeZCgR4JQhKEAKRE70mLyAQAYLwyCOPGA9AiRIlZOXKldKjRw+ZOHGiJCcnS8GCBc2CCFnAeho4cKB3IeSe1atXS4cOHaRKlSpStGhRr3UF1Fz/yiuveK0glBKKauHChWbh27Nnj9D2hx9+aOqnbu7p1auXuSclJUVYaCErVuk1a9ZMpkyZcgxRYeFcvHixfPbZZzlSVpEiCOA5adIkQwRQOCgbcN++fbvMmDFD2rVr55VUrq1bt66ULVvWfAaxmDx5ssEVQjVr1iwzH8uWLZNixYoJJAkLtUWLFoaEcT8Y//HHH1KqVCmDKxY/7d5xxx3mngIFCph7UPYjRowwdf/2229eD0/jxo3l+++/9ypTZKNp06am35AGFGegJdIEAZl999135Y033pCLL77YS5gY/3PPPSennHLKMdgPHTrUzA3kbcOGDXLeeecZXLgWQjZkyBB58sknDVmoVq2a996GDRsauS5durT5bOzYsbJo0SJDEjLzINCvl156ydRxww03GOLBPDFfderUkfr160u/fv1MXeeee65pL1BvmRIEJQiBPp96XbQjEAGC8OCDD0rHjh3lwgsvlBdeeMEsUCgBFAsWEEoGhfHVV18Zq4iFCet/+fLl8uijj0q9evWkSZMmZkHj2n/++UcGDx5sFrk2bdocsyB2795dUDi1a9c2ig7L9IEHHjCzwiKMcqL9WrVqmXb+/fdf43F45pln5M033zRKDC/De++9ZxTU5s2b5aKLLjLt4MnIiTUbKYLAWFEIKN0JEyYYnFDwn3zyicGmSJEiBg+rAMADzw0KZunSpYZgde7c2XwGYYDIoVhQXFidzEXNmjUN4fvoo4/kl19+Md4DfrCaTz/9dGPJVqxYUa655hp56qmnDDk77bTTTNvMA/N76623mvpKlixp7kOBobBuvvlmmT17tmBVjxo1yijJQEskCQI4IdcQSZQ6ZBR5nTdvnsEUwpaYmGiGYkMCW7dulUOHDsmWLVtk+PDhMmDAAPN95cqV5a677pJPP/3UPAfIPPNkQy6WIIDpf//9Z0g0/0JAfMN0KPpy5cqZeWRO6APPwy233GKeK5435J35tV4zCIb1PAWCuxIEJQiByIlekxcQiABBwK2NMsAyGTlypPmdhRS3NcqBBRLLn0WQzyACP//8s1EYKG4WtkqVKhlFh7WFIm/ZsqWxUH3jsCyQKC/IAYvzr7/+KuXLlzeKySpDG5tHwaGIWMCxrOnjl19+aa5r1aqVvP/++6at7777zpAUCAKKKi8QBN8YNhY4FrxVUFj2ffv2NUSNuDbjB0OUA5///fffBg/COcwFVi1Ki/sI39x///0GJ+oES+rlXixZ3NzUhdeHa/HG0AbubBQeygtPhZ0LrFbkAGV03333mWvoz7Rp08w8IhfMabQTBBsSeOeddwzJRZYgQoyTMYwZM8bIFGQYjwqKGewgZBAhCmEEiBYkwBZwaNSokcGEH7Dn2Vi3bp0hIHjiCL3h3YJo4XWw5AAZ6NOnj/EEMFcQZwgI3jI8BTwTzC1kbv/+/WaOeVZsyUnehxIEJQh5QfVpHwNBIAIE4eGHHzbxT6xzLCUWKCxbXKgsaMS7sSiJ22Kt8xlWJosiip57WehWrFhhLEx+R4H5ulK5lnsWLFhgFlEUC6GEl19++bi8Aa5lYYSwEGaAmEACsLBRaFhuliBgebHg5xWCwNiwZDdu3Gis1OLFixtLHwUMobrggguMBYklab0IxMnBEqX1ww8/yNSpU43CwIWNh2XmzJmGdKH08ajgFYAQNG/eXF577TWTs4C3wcbULUGhfqtoUEIoTWLgNiHvxhtvNK5xlCahnrZt25r5tsoMsoICxesTaImEB4HxkoeBxwpyhMWOp8A3x4D+45FiTHgFuAfPFbKHDILhlVde6fU62OcCC59rkUtCOpAwMIT8Eo6AQDBPkAXau/zyy00dzCVeBYgE/YGo8Nmdd95pSAW5OdxHqIj5vf76683zZfMQ8Cr4J0aeaA6UIChBCPT51OuiHYEIEARCDCgAG2K47rrrTIz8qquuMpaMLeQjsAii4LA6lyxZYhQWSYO4QFu3bm2sLhY0FmBIAnFeLB8sU6uMWAi5F4uKUIRvLJXfcX2z+EFKUEbEz1GE9AWPBXFhSxCIw+P+zksEAUIF2ULxQIJw8RPOwZuAEkGJ2ZABhIu8AKxMig1LQOpwfzMXKBd+bLyb67D6ST58/fXXjXcH8ke9/oU5AWsSJgnbcD15DbSJpwJi0aVLFxk3bpzpJ/1hnvEo0T6kLdoJgh0zcoecQ0qRJfAnJwCZYlzINL/jgaFwPeNmvhivTaDlczwJ1EUuA14JsIfg2WJDDDwzeGEgW5Dcq6++2hAtcCesB3E455xzjJcHOQbrDz74wBAVCAr9hLxBRJg/sOYevD+Z5TJktrwpQVCCEO1qT/sXKAIRIAgom7vvvlvOP/98Y5nedNNNZkHEMkJpsYCRREi+AAlpu3fvNpYPyXPESlnE+A7Pgc3SRmGhzLAwbTzVWjwoNRQ61u5ZZ53ltYpYeElchJxAMOwWShZLFtcvvvjCKFDuJdEMMgJ5wPrOSwQBUWAcjB+lTG6A9RagKMAf97XFyxIoFBqeHSxUiBpKg2tQKNRnFY+1MvEIMA8oI3IMIHyXXHLJMZKIJwcShrXKXJNoatvDah0/frwhF5BIsEYm6IedH9zxhJoCLZHwIJyIIIA1yZZ4SbDqUcC+BIGxImN4c8iJ4TkAbxQz3gEUOjsOCAeBgW8IwBIEwhbUA6bghtcAUsK1EA6eGQgc4Q/yRSDckEe+gwRDxvAY8TfzyZwQVmOeAi1KEJQgBCorel20IxAhgkCSHIskblaS/VDSZNNjrWAlYgVhSdk4K/HRP//80yx8LIB4EVi4IBq+5YorrjB5DL579PEeoJS4F8KBW52CkmKRJsRhvQ0nykFAsWLl4rLFvY5yzCs5CBYfkvyIf0Owvv32W++ZBVjuuJ1tYR7wKGBxkidALgBEDmUDWeOHz23ohvtQ6p9//rnZhUJ59tlnjZvceiJs3eCL4kIJ+WfF2xwE6rLnVxCLJ/+A/to5sol9gTxa0UQQIEfIK0mLjJ3cAV+CADYQBEgvni7yFPAuMF7GDqaEh3h28CT4uvz9dzGADc8JpJdnC2whGOzmgcQhz8g+BBAyR0gE0g3B4LlEtiEIhI/Y6sqcBFqUIChBCFRW9LpoRyACBAELnDwDLCSsUqwUFjGsdqwZYvwkwaHUrTJHua1atcqLJklYWLWXXnqplzSw8GId40an2O2SKDzqZWskMVeUHUoOyxhrje14/gQBFzyWGjkSxGhZLMn4Z4HGimP/P/F8FtNASyR3MdBHSxCwzlFWFBSxtR7tOBgjCgHyhuJAmeNqxhMDJoQS8NLwN/kLECwsVN9ENhLisIIhbP4FSxoS56/oCRGROMf3zCV9s/F4tt6hVCEg5JKAeyDb7qKJIGCts2UW6x+sMvMgYNXjYYBYkTeCnDFOcCEnAAKNjIO/L0EgpABpgDhDYsEQUsWuD/J4kFmeO8JlkDtwheTiJWPHEESCa2+//XaTj0MeCG0rQQj06c76Oj1JMTQ4ai3hRiCMBAGFjVWDm5XdC+wAQOGQg2B3MaAUsFxR8pAHqwi4z1qVWFncZ61hIGOBQ9FhIeFCtdvGSJpjocVLQVm7dq2Jv7NAQkJohwWYxZZFlXwG8gxIRiRJjJ0SWNMoSqw9LCyy+cmf4DPuJ/4eiLKKJEFgvGxZRCGAq40n8znWJ96YzDLVUWr2HASuxfIkjIPiBwt+x7Pif2AU1i6eCciXf4F0ERvHI8G8kUhKO4QXyCEhBIXnwGb9gzsWNX1mnghbZHcao20zkgQBeYUMEOe322UhqChkvCJ4csAWL5kltGBM4V925mDJkxsASWVXA+ECSAaYoehx/eMFIHeBNniWINyQKO7BY4GM8uyRR4B3gjnh+eBvvD6QMcge5IQQA3MJSSCkpwQhNAuyEoTQ4Ki1hBuBMBMEFj6sFBQVVhKKHgUFQcCDQCiB7XVYiigGqwyAhS1ZxL9RSlxDDoMNJbBjgXpYKFl4WZzJDmcBRoHhAeA+Fsizzz7b/A3RYKFmmyXeABZNwg4kONIuCykLK8qLRDO2U0JA8HBAEDgbgH5wWFA0EwTGxd55kv6wCgmRoHxQBOCEEsJbkxlBALPp06eb8XMtCp3cAGLZzAd1odAJUdgtkswVBIEcBJIR/QsYQ/xQnPQNBQd+YA5ppB6IAJ/ZEMM333zj9dbQB/t9do9LJAiC3YYIXvyOMocQkz+BwmYrKHJKDgYEFAxtHgfPADsZmBs8DHhOwARChheH+cPTAtmDEIMfh13haYPIQhhQ9iTZkvAJqWJeCSsQsoAQQCS4jyRHnkPahkBDREhQZCcDxIB7aAv513MQspM09SAEh5DeHZ0IhJkgYM2jpHGTsljhvsbKwjLFNUoyIBYu7m0WRJQwLm2UGAodqwbLE+uVBRaXKf9ilbLQ4RXAdc3iRlgB1yrkAeXIgkm4gfpYNNkiRrvsG8dyYrH2LSgnXOUsnNxvkyrJaWAhpg0Su/zj7Cea6Eh4EOyefIgQBAcFA5a4q61F7vu+BAgcFigEgh0GYIMCgxRBtDiPAuywVEluxNOCBXrbbbeZ8I0lGRAEckZwVfsXFCAucebWv9A+oR88OdaqtoTA/k2IhKz+QLLqI0UQkA3CApABCCfyhZK3fcZbBbYQB76HeEJ6UOxWnvC04VXB64UcQ8rIByHMgMxj8VtimhlBRe6RX9qkDuSe0B5/W4LAM8g1yAn10z7PHV485haSTfJvoDLOHGkOwvErgHoQolP9aa+yQyDMBIGFCMWLBc/iyb/kEuCuZ/Hjb+uu5jp7ihv7vLFGfRdELDRirpAJFDZxcHtQkrXiuJ4dEWyRI+chs4XUHsDju20P2KgfaxnLzFcZYWWhtGgzUEuW+iJBEKxSJX8Dz4mvl8CeT4DFiTKx2GAtMi52PYABIRv+xptANr3vQVPUj7ICY5u4yGdYuLipIWX+BcuY+bG5Iv7f+58XkJkIB+Kx4b5IEASLOUSSMdrETT63/fY9I4LtjsimPRnUyMqRQ6dQ6nZ3jyVbkCjmC6+XLZnhwX0kQjI/PFc8H1Ze+Y75hHBzABjzanMa+I4cFQgM/WIO9aCk7BbSrL9XghAcfnp3pBAII0GwC6fdhmX/tu5Vu4DaxcheZ3cu+C9SvorE/u6bbGjrs4qQevwXUnsf//rX73vAj++9mR38E8j0RYog0DdfLP37ar+zWPhixGd27CcaN8rMHt7jqwAzw9T2hX9zonQCwTezayJFEKySzypXwlf2/GXTl+Ba3P3fRJodfrYOX1x8nw/7vf3Md+785SVQQkZb6kE4XhKVIJzsE6z3RRaBMBOEyA42sq1HkiBEduSRaz2SBCFyo45sy0oQlCBEVgK19dAhoAQhdFhmU5MShLBB7W1ICUL4MVeCoAQh/FIXQItpqW6ZM+cHuebausYtOn/+AilZopRUO++cE97tcXuE//xdaPydfDhNDv13QEqUyIj1LVmyTKpVrSYFCyWYv3HRcbjIjh175JJLqvOJeDwi8+b9IhdfXF0KFy4oGzdskcOH/5OqVc8VcRzbjT//WCPlK5STIkWOHkKCa2/K5OlS7+o6UqzY0VPmAhj+yV2iBOHkcDuJu5QgnARoQd6iBCFIAE/idiUIShBOQmxy9xaU9dKly6XpHU1lydLFkhAfL5MnT5UPPvhIvvjy02MIgNud7s3KZYvQwIGDxOEggcgpDnFI+QrlZcyYt2Xs2K/lnXfelvHjx0laWrrUqHG5TJ40WaqcVdEMBmX+ySefyjezvpd33nlLtm7bKtRdt8418tlnn0qFM8rJe+9+KFu2bJLevXuJKy5OypUr4wXi8pq1ZcSI4VLz8qNbwdxuj1Q840yZ9c20Y5K4chIDzBHSShByBFcwFytBCAfwahgAACAASURBVAa9k7tXCcLJ4RbMXUoQlCAEIz+5ci9Zty1b3Clbt24z2eU2AYf93+wR9lWwVaudLaNHjzJJUmSkb/97h/Ts2cvs/yXb99ln+8qChT+b/cSNGt0sjz/W3WzXYtsch5U4nOlmDCRnscVr1szvzSlkbPsiu5jtXWQvUz/bhsgEZy8zWcSffPqhISOUmjVqy8iRw6VGzUvNnnLejgdBaFD/BnnrrVFS5awqpt9kh3PyXK6QBCUIuSKPmVWqBCFsUHsbUoIQfsyVIChBCL/UnaBFSwQGvfKqDBz4ijlwxypTFDj7tTnoxR7ryvVVq2W8sIeCmx9y0bPnM+bgET5nT/KUKZPNMbwLFy4yh8BwTC3Kv0GD+tL32V7ikIyX1sybN09WrVpt9oA3bXqHlCxVXK65ur589NGHxoPwwfsfy8aNG6R3n16mPafzaCa9L0Hg8Jhhr480IQr259s3DLJnnD3Qnbt0MiGMkJcgCYJ4nJJQqIyIyxXyrsVahZ70JElN2sFmt6CG5nHESXzhMoK/S0vWCKQlHxBJ2SNuy8pPFjBnIYkrcPRI7pOtJj/cl354l6SnJeV4vdp7KE1W7SgtderVijmYdBdDBKf0iy++lAEvDzLWOuftu+Kcpjcsn7/8slBq1Lws42hWEUlIKCATJo719vbBrg/L6tVr5Pffl0nVaudKakqarF27xhztumvXTmP989KZHTt2SZNbm0h8vEseeqiroBhffnmg/PTTT+ZVqbfccrO0bt1KONrX4XCJx+MWB93wOA0pKFmyuPTr/7xp9+effzFeBu7nnurVL5RmTe8Qt5u8BpHKlc+UadOmmvMBHn74EXNq3wOdO+b4gQtoSoIkCORvxLmd4nbkAnkJaAB55yK3iLg4btoZnGI3mHscQn1askYAX5+L3KAgCUKGeDNvKufZyZxHHEfyurK78tjvlSBkjZfDE8gJIT51cLk5/tSdnLOZiKGryQNYu2atxMUVkObNm8uLL74gRYpmvFEOhduq5Z3y0cfvHTl8xylOR5zUvrKmF4H0dLckH06VuvXqydy5c2TtmvXGk/DLgnneg0uGDx8hK5b/KaNGjzALhF1rqL/zA13NITzjx38lf239S+rVvdacPOYbDsAL0KVLZ/ltySKTt/D++x/KrJnfmiNMeZHKeedVk0GDB5g+0Z/y5SrKnB++k7OqnC1duz5krolWghBDoqRDUQQUgQgioARBCUKuiJ/lVRdddJk0b9bce3IZyphjQ8kdsKeEcdhIt8ce8vZj2tRZ5u1phCF4Wx+n961evUoW/fqLzJn9kwk/cJ4/R/ny5jpO+bvu+muOKHOPVL/wYpM78Gi3h+XOO1vLpZfUNCfI+Rb6l5CYIL/9ttB8bMmDb4gBokdJTU2Ts8+qKrPnfCuVKlaWhx56xBCEDh3aS1y8K/R5CEF6EHJlQrVSRUARyHcIKEFQgpArQm/zENhl0KTxbV6CwOecJ8970H1fjepyOYTz3AsUTJDtf2+XMWPekyVLlkqPp7ob7wDnjnP06KBBQ2Tzps2yatUa2blzp9Spe5UUL1bUhAo4S537Jk2cYnIeSDK897575dFHHjXhA18PAiEIXlD025LMCUKJEsXkyqvqZZAHcZjkSI5npS/JySmmrvr1r5bPv/gs9KfPKUHIFZnUShUBRSBnCChBUIKQM4kJ8OoMgiDyw5y5kpR02HsXOxRQ5OwC8C0o3Ouuqy9x8U7j0m/f7j6pWrWa3H574yP5Yw4566yzJC7OZXIIRowYZc4rHzFymHg86UZJp6akyhVXXCnt2rU3r2/lZTbz5v0kb775lhQqlBHi+Pvv7XL66Rln0ZcoUUKmz5hynAeBOi+++CL5Z/suE77YvWePNKjfwLx3gCTJjGNQPRIf75QyZTPedBfSogQhpHBqZYqAInByCChBUIJwcpKTxV0oTN4QOHnS9OOu4s1zWP68ztdXsUIQGje+RSpWKi+r/lwrjRplbE/kbYIUcgN4eRAhgfR0j8yYMcuEGHDzk3jIa1sJTRBagHzwKto33xwl+/bvNVsfqX/Txs3y1FPPyCeffuD1JvCKW9/tioQYho943ZyNwAty2GI5YMBASUlON285JOehRo1LQx9W8EVKCULIZVIrVAQUgZwjoARBCULOpSabO1D87ELg/eoZxSGpKenmVavE7nHXo9w5o6B8+XIiDrfZYdC69Z1SoUJ5ad6slVxwwYUye/b38uPc2XI4Kc28vQyvAOchoPA3b95ichOqV69u7n3uuT7mXIPklBSjyDkoqUePJ+Wee9pJalqqxLlc5oTFQ4f+kwpnVDCHNmH4lylzukya/LU4nS7Zs3uvXHttfSld+jRDNCZN+loSEgqaV7IuXPiLLF26TPr162fGdVrpUiHHzVuhEoTcw1ZrVgQUgYARUIKgBCFgYQn0QuMZ8Ii4PRmv550ze448/3x/6dDhXtm7d585o6BVqxbSr19/aXv33dKs2R1SsECiscrdHre8OmSoNG7SRDp26Cg//Dhbkv5LMece/LnqDyl92mlm18HIkaNkxQpCDMPFae7LSCjkO96nzkFJY8a8Y7b2eNwic+fOla5du5htkRvWb5ShQ4cKrxJ2u9PEI255rNtjMnXqDDnn3LOlWbNmcvvtt0liYoI8/NCjkphYQIYNf1U8Hoc8/tgTxgMyavRIKVa0SKZHQgeK0wmvC5IgsPHL4Sokbt10l/1UIKvpycEeg2DyVDyuArrlLnvExSFp4iEBOLidpWaNccQVMs+vlqwR8HhSxJGeTjZ2jqBSgqAEIUcCE8jFEIQ9e/bIpInTZMyYMeYd6YMHD5Kzzq4sw4eNkD/+WC0jRg6Vf7bvlD59+sq8eT9Lu3ZtzMFG5cqXMzkKWzZvlVq1rpQqVc401v3y5ctk3frVcuqpp5rQxLBhw2XlilUy+o2R0AJvt/AufPrpZ8aD8Nbbb8jmzZtk3NgJ8vbbb8knn3wsl156sQwZMlQ4p+Gpp5+SBg2uNqGEVX+uktNPLyfFSxQxdf2751/p27efrFq9yuymiIvLIB8pyWly770dzPkOb741ynhAQn6aYpAEweNMkMIVGonblXH2hJYsEDi8Ww5vnZPjhdO/RmdcYSlQ4Tpxm4M2tGSFQPr+LZK6c1HQBMGRUEQSy14nEuQZFvlhttJ3/S7pezeK+8iJs4GOWQmCEoRAZSXg61Ck27b9LU/1eEZ69HhCzr/gPG+m/+jRb8rKFX/K68OGmPpQ9oQKXnxhoHTt2lkqVqpgPt+0aYt06dxVxo77Qg4nHZaal18uCxcskBIlS5jvR49+Q/5YuVqGDh18zEKDssaDwHZIzk5o06aNObnxlUEvSWJCojicDhOioA+PPNJN2GI5c9bUY5Q83/fr94L8sXKVvPf+2+bER/t+djwcaalp8vhjPcQV55BXXx0cdQTBIS4pXLmxOFwZL7DScmIE9Kjl8EuHHrUcfsz1qOXjMdeTFMMvh94WM8IMGad34Qv0Klh3xkFSCQnxXoJgQgvuDCPu6IFHGW9zJL8AwmFOXXQcPRKZz6jf6TrWZUa7XJeWlnEPL2qKj4sXtyfjXQ0ZbbkzXgJl6uezzHYh8B3nj5n3QR5DAvg8o79HxxVSqIP0IChBCHw2lCAEjlWorlSCECokA69HCYIShMClRa+MbgSUIIRtfpQghA1qb0NKEMKPuRIEJQjhlzptMXcQUIKQO7hmUqsShLBBrQQh/FB7W1SCoAQhguKnTYcUASUIIYUzq8qUIIQNaiUI4YdaCUIWmGsOQgQFUpsOAoE8QhD8T5D0/ZvfSQANpGTkhBzNLwnknlBdk9cJgsnFOZJbk9Vumsyus8ehZ+TqcBZJ4HMWDP6RCjFkduKpzVnKCrtAT0rlOptrBT6ZybWtK7udT9m16d9WdvOhHgT1IGQnI/p9XkEgDxAEu/vEKh6gLVSokHm/xqZNm2TNmjXSsGHDgHZ4TJkyxRx4VaFCxg6WcJa8ThDYEvzpp59KgwYNzFkhmRXmat26dbJjxw6pWbOmcHooha268+bNk5tvvllmz55t3ndSq1atXIc/EgTBV14zkpNtErTHjNtXsfM9cgzB5boDBw6YF8T5KnV7vy9YbOemLls+/vhjqV+/vjnAzZaDBw8Kn3fo0CFLAk39JHPTtm9/qYfvihUrdsy7bLKbNCUIShCykxH9Pq8gkEcIQosWLYyVxA8nT77wwgtGwbz88stGGUEQ+I6jrOvWrXtCsvDII49Iq1atpHbt2mGfobxEEFAMK1askLVr1x6DE9t6zz77bLn00kuP+fzqq682Z5CgYDgYjPtbtmxpFAunmfLCsq+++kq6dOkiH330kZQqVcq8PbV8+fIBEbuTnaxIEATksHv37rJ69WrhVe+nnXaaUb68j4Vj2iFIFLCCDDzxxBNy4403mr8/+eQT+eKLL+TMM880r5Hn+PWiRYvKqlWcnXK6qYNj4HlPC9ewTZpzYJo2bSpXXnmlOWcFAlK1alUzH88995zccMMNXlLCM8OL6F577TXzmfXocA0nt9JXtoLTF+6HgE+YMMEc9BZoUYKgBCFQWdHroh2BPEIQUOosniieZ555xliiLGIDBgyQ++67z6D8008/GYUDCeC7lJQU72Jsp+G9994zC+k555xjPqI+FmEIg69llxvTlpcIAkru7bffNorpggsuMDjxGR4BfgdblD+/z5o1S1566SWvV4ZDyA4dOmTw5LAxLF0UDcoQBWcVUJUqVeTNN9+MSYIAVrzhtXnz5oLMTZw4UTp37mww9H2z7Lvvvitly5Y1BIGCh4a3wUKIZ86cKRUrVjSE7P333zfHsOP9Gjx4sDz11FNGhvHq3HPPPdKkSRNDwsC2Xbt2gveA19xDBHjlPfVDDiAbkIjt27cL3jTI2x133GFINn3s2bOn8TowdzxznPRKH5UgBLciaA5CcPjp3ZFCIA8RBBZPSo8ePaRy5crmPRUonP79+xslz2I2Y8YMY/lQWCxZ/LCubEGZYUFZFznW1/Lly+XDDz/0usNzayryEkFA8aMYcC+jfMBt/PjxMnLkSEMOUEooEL6DHKCUIGdYx7yfZODAgV7Fj/saS/qDDz4wc0cdeBBat25tXN/ZxciDmY9IeBDAbsmSJTJt2jSZPHmyseAJu1x44YXSqVMnI7O2gDGeAUsQ8NgQMrNnqEAAUPDgZgkZ9V911VXGW3b48GHjscEzgzcBwsW8QEaefPJJ81ZY5mvp0qWGIEDWbBiB54n77777bvMMcO9dd91l5hAiQ8gCDwQeHyUIwUghOSJOKVigYFCy7vBkly3i10cbO0p3JwfXe707/yKQBwgCixUWFW5aFMru3buNpYM1haWKixaLp0+fPsb1nZCQcaqjtabGjh3r9Q74hxhYjKmLxdLXsssNgchLBMEc9Z2SYl509vTTT0ulSpWkd+/exm2OsuAtpli1KMDXX3/duLtZj7CYb7vtNqO8qAOyxltVmSe8EczPsmXLpGDBguaV6ihMyEJueW8iRRAmTZokGzZskO+//94oa5Ty6NGjZdSoUeZlcP4E4frrr5cFCxYYIuBbwBTssPytegArnoPvvvvOeAAIr0EkfAuf4+3xx5WX2F188cVeb4UvQRg2bJh5qd38+fPN3OFpo894FJQgBLciKEEIDj+9O1II5BGCQN4Bix7ua+KvJBlyLPXChQuNpUQZMWKEVKtWzWuVQijatm3r86ZPMWQCT4NNkEPhofg+++wzJQg+MogyIsSANYnSAlfyD7799lvZv3+/IQ3nn3++bN68WZ599llj5WIJ47omnDBo0CCjbLCareXrK+LWa0C9JJzmlhchkgQB7xRerhdffNHIJNY43i7k1yp7sMIbg5Kn4G2BQBEu4Brw/eWXXwzxsgViRXgG+UfBkzRK3gJvoKX425koe8g0np7777/fzCVz+tdffxmvA4mNeBF4DwzPAt40CkfH44HTEEPwi7MShOAx1BoigUAeIAgseLi3yTvgXRf8zgL6xhtvmFjrY489ZiweFmKsUUgELlgsr1tvvdWEGKwCQsGRwOUfYsBKUg/CUQEEc7DFAgVHFBsKidg3sfXnn39eLrnkEunYsaO5Ca8N13IfPw8++KC5lrADSoxkUpSRdW9zD0oPj0JukQPaiCRBQEYJzUCgIE54D1DSyKsltcjtueeea7wK1tonARcPDdjY7YuMBZyQfYgZypuC54A2uBZPBWTDH09yDQgdQFJoC68OIQXIH3NDCIR28KRBFvDQ8TcJi4Q8IDm+uyOyW6Y0SfF4hJQgZCc1+n10IpBHCAIKZ8iQIWYxI/+AxDkKit6GFLC+1q9fb1yjderUMQqO0ARubFuwgtl+h0ucQnIWbmASIJUgHBVRFATW7ZdffmleX44nhl0HYI0CwjomNv3DDz+YzyFi5IHgksZVjnuduSHejlLEa2MtaVrB4mXnwy233JKrz0UkCQK4IWuNGjUyuJCbAant1auX8VidiBiBFzsYIFf+hVwCMEPh+xa2kUKMbS6D/Y428EA88MADZnePLZA4m4PA3PLsEJLjc0Jy3GdzdwgXQQ4DLUoQlCAEKit6XbQjkMcIArHaV1991bhYsfrJ+LZkAUKAUiNpi4IrnOQ53xyEhx9+2CTH2W2O5CCwK0IJwrGCimXat29fo+TxuvjHoK0bGwsUlzXJjLivIRbcC854EAgF4YHAVY3XwW6rwyrFGxTLBGHRokVmjIwZBczuA0iuP0FYuXKl2algz4yASNmtiv7LB3OB7EIG/AkC3pxu3bplmmwLqca7Zg8U8yUIEGrmkXwTCudV2ERI/sU7kRlZOdHSpgRBCUK0qz3tX6AI5DGCYEMMbNUaM2aMcZdaa2rbtm1m2yNJcxQsImKr1iLiM9y77M+/4oorzDW4UIm7KkE4VmBQDIQESFQkPk5Gvv+OA1zo5HTglaHYt6BCEnB3owjZwkdIgt0O1GPDELi4mZtYJghY6BAsPFNgiWeFvA5fggBW1157rfEoWDc+IQZ+v/zyy497irmOEAMk158g4KWBaPgX5nLnzp0m94HQBbk87KrAi0MOD5/haYOocC3JpMwT2yjpN94hdv4EWpQgKEEIVFb0umhHII8QhK5du5qDXMiQR9FgkbHHngQ3tnVRIAiQA0sQ8CCwkLLlzsZ3seIIU5A8R8Hj8M477+guhhPIKZYlpIw4tz9BAG/22nMAki2WWLDtDo8C2/1wsePG5jpCFCgdsulJnItlggA+ECMKRIAdNORi4LFC0SOTELBrrrnGnElgtz/iQeCQKhS3f8HKR5n7EgTCAYQY8Npkdq4EeOPBwePGM0MdzBvtQipolzqYX/ppzxthznzPvwh0KVOCoAQhUFnR66IdgSgnCCxuhBFQOFg+WKQcjMSJdBxAw2JmY7n8S+Ic27X4HQ8C8XESs060gxgFiEtckxQzF1TwIXZNfkFm2fEk15Gn4EsQsFZRPHh3cHlj8WKF+m65syGMWCYIkAEIkT0cCXkEKxIJyZFBIXM+BDsVSD7Eq/LHH3/InDlz5IwzzjC5Nv6FLaOQ4osuusgQN3aOUA8EgSRe257vfcwb84gXCILgX+xhSUlJSWaO7ZZJm9vD9dwbaB6CEgQlCNGu9rR/gSIQ5QSBBYsT+FhcsaiI01pC8Ouvv5rfsUQpXIMbF4uVz1kUCS9gbZ1onz1JiuwnxyrLrb34diry0jkIts8oDaxS4tv+L8RCKbHfH4VnlYlvboJNaCQHga1yEDs+QwGRsMfZChzkE4u7GCC1YIenynoKOKkQ2YQwoJQp9khjcAEnZNbikRmp9f2OvA+LO/k35HWwM8R/nqiTMyuYJ+7xL/ashayO4YEgBjpPShCUIASqfvS6aEcgygmChY9F1V+B412g2AXRvqvB7kaw7lEbG89sKuybBX3rya0py4sEweIDlv67PCy+mX3ni6GdJz6zOQh2+15WcxOKeYjULgZCYHZsNknRKthA3zyak/FDuuzz4V+/nUPaz20STJ+VIChByIns6rXRjEAeIQjRDGGgfcuLBCHQsUXrdZEgCNGKRbj6pQRBCUK4ZE3byW0ElCDkNsLe+pUghA1qb0NKEMKPuRIEJQjhlzptMXcQUIKQO7hmUqsShLBBrQQh/FB7W1SCoAQhguKnTYcUASUIIYUzq8qUIIQNaiUI4YdaCUIWmOtRyxEUSG06CASUIAQBXs5uVYKQM7xCcbWGGEKBYs7qUA+CehByJjF6dfQiECRBEHGIq0Ap/j96xxglPfN4kiU9eV/wvXE4xZlYSpziDL6uGK8hPf0/8aQeDHqUTodLXPGlxON0BF1XrFeQnrpfJP2weHI40L2H0mTVjtJSp16tHN4Z/ZerByH650h7mBkCQRMEW6kunNkLWE6XzKxqVLyzx5srQoO50+MQEE9X2AOA/eQwV4KQNbQOT1YnVWRyL5ez3zbdnXHohhZFIMcIhIwg5LhlvUERUAQUAS8CShCUIOjjEG0IKEGIthnR/igC+RIBJQhKEPKl4Ef1oJUgRPX0aOcUgfyCgBIEJQj5RdbzzjiVIOSdudKeKgIxjIASBCUIMSzeeXRoShDy6MRptxWB2EJACYIShNiS6FgYjRKEWJhFHYMikOcRUIKgBCHPC3HMDUAJQsxNqQ5IEciLCChBUIKQF+U2tvusBCG251dHpwjkEQSUIChByCOimo+6qQQhH022DlURiF4ElCAoQYhe6cyvPVOCkF9nXsetCEQVAkoQlCBElUBqZziJ1iE7d+6RJfOnSf2LSonb6VZYFAFFQBEIOwJKEJQghF3otMFsEFCCoCKiCCgCUYCAEgQlCFEghtqFYxBQgqACoQgoAlGAgBIEJQhRIIbahWMJgsiuXXvlt5+nyLUXnSIeDTGogCgCikAEENh7kNc9nyZ1rq4dgdZzt0l93XPu4qu15yICu3ftk8mTxkqJxELicaflYktatSKgCCgCmSOQKiKnV6oidesoQcgMIX3dsz45EUGA14a7091ycm9xj0iXtVFFQBGIMQQcIuJwOsTpdMbYyETUgxBzU6oDUgQUAUVAEVAEgkdACULwGGoNioAioAgoAopAzCGgBCHmplQHpAgoAoqAIqAIBI+AEoTgMdQaFAFFQBFQBBSBmENACULMTakOSBFQBBQBRUARCB4BJQjBY6g1KAKKgCKgCCgCMYeAEoSYm1IdkCKgCCgCioAiEDwCShCCx1BrUAQUAUVAEVAEYg4BJQgxN6U6IEVAEVAEFAFFIHgElCAEj6HWoAgoAoqAIqAIxBwCShBibkp1QIqAIqAIKAKKQPAIKEEIHkOtQRFQBBQBRUARiDkElCDE3JTmjwHxoqb09HRJSkoSfteiCCgCikAkEGD9SUhIkIIFC0ai+VxtUwlCrsKrlecaAh6Rnbv2yPTJE6Rk0QRxizvXmtKKFQFFQBE4EQJuT7qccvo5UrfulTEHkhKEmJvSfDIgj0N27twjSxZMl/oXlBKPSwlCPpl5HaYiEFUI7D10WFbuOF3q1asdVf0KRWeUIIQCRa0j/AhYgjB/mtS/qJS4nUoQwj8J2qIioAjsPZQmq3aUljr1asUcGEoQYm5K88mAlCDkk4nWYSoC0Y2AEoSs58fhyWGWGJenpaVJujs5umdeexe9CChBiN650Z4pAvkIASUIShDykbjnkaEqQcgjE6XdVARiGwElCEoQYlvC8+LolCDkxVnTPisCMYeAEgQlCDEn1Hl+QEoQ8vwU6gAUgVhAQAmCEoRYkOPYGoMShNiaTx2NIpBHEVCCoAQhj4puDHdbCUIMT64OTRHIOwgoQVCCkHekNb/0VAlCfplpHaciENUIKEFQghDVApovO6cEIV9Ouw5aEYg2BJQgKEGINpnU/ihBUBlQBBSBKEBACYIShCgQQ+3CMQgESxCccVKoQkMRp0OBzQ6B5H8l6e+54vEEiVVcQSlUvoFIkNVk191Y+D75wF/i3rVUPBLkm0oTCkuhMteKOGMBldwdQ+quFeLev0nSHTk7tl0JghKE3JVMrT3nCARLEBxxUrjSLeJwxeW87Xx2hztppyRtmx00QfC4CkiRio3E4XTlMwRzPtzD+zZI+s7FQRMER0IRKVjuBnG6lCFkNwspO5ZI+v51kp5DUqYEQQlCdrKl34cbgSAJgkNcUrhyY3G4EsLd8zzXXnrSP6EhCM4EQ8pcTiVl2QlB0r51krZzsUgOlZV/vY54CEJDccUpKcsO8+R/fpP0A2uVIPgApS9ryk5q9PvoREAJQtjmRQlC2KD2NqQEIfyYK0E4HnMlCOGXQ20xFAgoQQgFigHVoQQhIJhCepEShJDCGVBlShCUIAQkKHpRHkBACULYJkkJQtigVg9C+KH2tqgEQQlCBMVPmw4pAkoQQgpnVpUpQQgb1EoQwg+1EoQsMNcQQwQF0r/p9PR0cTozso0djoy9YB6PR9xut7hcWScZcS/32PvtvXzG/b6f+7ZL/bbYNvmbe/ibH3ONR8SRyZZAd7rbfO5/r63zRO0GDXuUEYQ33nhDrrnmGjn33HPN0NLS0mTZsmWycOFC6dSp03HDBdNx48bJRRddJJUrVzbzyxxOmDDBYHnLLbeYfw8ePCiJiYlSsGBBbx2pqanywQcfSKFChaR169ZBQ5ldBdFKEFJSUoyc2sLvvXv3lm7dusmpp57q/RwZtPj+/vvvRp595ZW/zzrrLINnfHy8mbsePXrIq6++egw0fD5lyhTZv3+/3HTTTdK9e3cZNWqUmZ9Ql2gNMfz888+yePFiI9N2bWAe4uKOTTwFU3DhGp6BpKSkbCEqVqyYeR7s2vXYY4/J448/LmXKlDHrF/O7aNEiMwfPPfectz6eG9r3ndNsG8vkAvUgHA+KEoSTkaRcuic5OVluv72ZTPh6vMQnHH3gZn8/W774YqyMHDUs05ZRGENfGyYNrmsg1atfYBZDHtD//vtPOnV8L+aOHQAAIABJREFUQF4ZNFDKlDndPEDbtm6XQoULSrFiRc1Dx3ULflkgw0eMkg/efxdmIg5xygOdO8sjjzwiVc89V6ZPny7ff/+9DBgwwLTvcGaQin///Vfuvru9TJzwtTh8dlG50z1y/Q0N5auvPpcSJUoE/eBmOugoIwjPPPOMNGvWTC655BKzkLFo/fjjj/Ltt99Kv379vITLEj1wnz9/vrzwwgvm55xzzpEdO3ZIQkKCPPzww/Liiy9KpUqVDBEoV66cNGzY0Lsgb926Ve666y5p0aKFlCxZMlPycdlll0nVqlVDIqnRShAmTZokM2bM8MoXuK9fv16KFy8up5122jGECuLA58gwpAtFU7duXa8yatu2rXz33XfSqFEjqVChgtx6660ybdq0Y8gHz1P79u2lT58+cvrpp8ttt91mngvmjPk+dOiQIRnMcbDKKtoIAtiyzjz44INy4MABKVq0qBn3Sy+9JD179pTt27cL69f//vc/sy7cd999BktwaNmypcGUe2yxhokvTsg591HAEpIMYYaUjB8/3nwOGVm3bp2cd9555m9w5/mi3WAxV4KgBCEkC2ZuVcIDdlaVqrJu3RpJSIwTDHeEfvy48TJixGj55tsZR5o+avXzoPEzZfI06dr1QXn7nTfluuuuk1WrVsnZZ58tI4aPklmzZsqECePNVqf77+8ql112qXTo0N5LEGbPniPP9OwjP/zwnXTu8qDs27vfPJQ8hMVLFJd/tv8je/bsyfi7eDEZNXq4WQR37dwlNWrUkvUb1gqOj4z+irjTHXLuuVXl5/lz5ZRTTjl6Lk4oD8iJIoIA/hAEFHb16tUNdps3b5a1a9fK6tWrjXKHjDEvpUuXNnPIgssP32OpYo0OGzZMBg0aZAgZim/o0KHGUkOpcZ+daxQUFlnFihUzvDtHPE2GvDkcsmDBAqO8mjdvHhJRjVaCgNeGUr9+/Uw9ZBYbcEZBFShQwGD+559/GqUC+cLytLjiebj33nvl/PPPP44g4D0YPny48R6gEPfu3WuumT17tqkDzwSk7s033xQs4WCVVTQSBAgZhKh///5GTuvVq2dIFvgNHjzYEFI8K++9955Uq1ZN6tSpY+aF58ISXiuQ27ZtM4rekjQru9Zo+fLLLw1JaNWqlXzxxRcG75tvvtk8BxZbyMGjjz5qCDbkIljMlSAoQQjJgplblfgThF8XLTWKAEvzq6++MoqEhxHrpfKZZxhlbAsPy4oVK6V1qzYyc+ZM86BOnjJZSpYsKrfccqs8cH9nadmqqVxes7a89toQufKq2maxRPH/+ONcGTJ4qHz99deyevUqSXenyBOP95BOnTrKOeeeLXNmz5V58+bJ0z2fEiIdtWvXNg+jL0GgH08/9Yxs3LjRdGnOnDnmOly2LpdTRox8XUqVKhU66KKEILBwsWCuXLlSypcvb6z+GjVqGCX0119/GTyuvPJKmThxolEwkCwbNrJEwbq8UervvvuuIVUsxHgBUPKQBesiZ7GcPHmyjB49+piwg60DZTVw4ECpUqWKNG3aNCR4RytBeOutt0wo4YYbbpAnnnjCS5bsoLF4kVOIhG+IjtAOOELcKDxP119/vQlNnIggQARQRB9++KG5fteuXdKkSRMj57jQUYAoqwYNGpg6g1VW0UYQsNzxBCCbeEkgocg1IS7WHsgtGECkRo4cKZ07d5YzzzzTEATue/nll00ozRY8OFOnTjXeGP+Cp4Zn4bPPPpMhQ4YYrxwhIOQamSbEYZ8h1hcImw1nBCPwShCUIAQjP7l2b2qqW7768ivZt2+fPPvsc+ZBq1HzMunfv59s3rxFDh44ZBYkLMbdu3fL7bffLq8Metl7iIrNF+ChSUo6bCylNnfdbRbOdu3byrJly+WrL7+U555/TipXOltmz/lOKlasYOqqc1U9SUlNkwP7M9yGM2bOEJfTKd9/P9tYwyj1DRs2GPd3zZqXyZlVKonT4ZT9+w/Itm3/GCKycOECcTodsmbtajmwf784HHFy7733ydChg6VI0eLSqeP98tNPc6VM2QzrOSQlSggCiyMkAVcrLlEwK/L/9s4DTIoifePvzGwCVIwET4Kn5+n/SKKIiZwVRNFTDxAkSlpQQEUFRURRQBTMJxI8s4cklYwnqICKoOQgBpC0SA4bJvyft2Z7nV0WN0zPTO/u2z77IGx3dfWvvq566/u+qj7tNNMxcpCnN+Ghhx4y4QeewxwFthNjqPQwcECnKOD5w4cPN+KCTDmgrV692sx02VHSnct2oIuXHea6deuM+GLbB9v9BF566SXTCdN+KETYydpxOFkgMJTAgZpiYM+ePYZ9mTJlzP/Tq8NcgmrVqhkM5EQRfs899xg2HOho199//70ZwHITCLyG7ZScnGwGfYoz4z3btw9t2rRBnz598NZbb5mBjLNmK28nXO5OEwjkQFHF8AE9BZxYUCww3MCcAAo0Mp8wYYIZzEeMGJHFgh4EesEooK2DgzxZWgKB5Vv5SvRUsEzyZNjn3Xffxfvvv4/U1FQjmHnPzp07G+HHPqty5cqnzLEqSDtIIEggFMReonZueroPjz36mHFfvv/+B0Zxt217E5o2awS/D5g5c7bphBiHGz36GaSk7MPoMaOMB4EdHuPcPl8wWYszmFKlkjB79qeYNGkypk//MDiI+APYuzcFdetei23btiI+IZj06M3wY8qUN83MaOHChUakMFEo2Klmuq85I4ILX371Jfbu3WnU+h13tMeihYvg9wdf7KpVq+C7Vd9kKnvgskv/gWXLl+KsM89B9eo1zYteoeIfiWNhw3WIQLCeg7MYdoS1atUyAz5nTykpKUaEMa7arl074+ZmKIEdJWdk/GFMm94hDjqM43IgYltTEHCgp+BgLJdCgrMztjeFAMugnXBAYsdJ0ciZG+9L8VG3bl1znR2H0wUCXf0UCAzN0MVPbwC9aPSynH/++VmDBwchxrR5Hme8ZMo/KaYaNWqUq0Dg+0Ax8dhjj5mQD70PfJ+2bNli8kB4LblbuQd28GYZThQIdPtTUNE7RS6cPFAg00bJlHk05E5WlseG9sn3guKXeSC0Xx5sL4pahmN48LxevXqZSc3KlSuNEGG/Ri9P7dq1ja1THNO+KR7YDiyXoYX27dvbgl0CQQLBFkOKVCE5Qww///Qzylcoj/feex9ffrEc/379ZTz/3Hjs3p2CocOGmJfr0KHD6J98n6kSlTcz5/9yQQVkZHhxVZ2rMWnyv82gxSGe4QfOUAcNui8r0ZDei+uuvR6//PIL1q5bDbc7DvXrNcSEF8Zle8xjR9PARK7de3YgMSER6Rnp2LtnLxo1aoY1a1cbsWJl2qeeSEfNWpdj5coVKF36dFSvVsO87CVFINBNzZgsQwoUbHXq1DHxasvlT1FAUcWBnR0fOzt2qBQM7FzZIV511VXo0aOHmWVRLIQeLJtJWRyg2LGys6X3ggMVQxz0WLCjZc6DHYdTBQJnqxygLa8MBQBF1MSJE80sk1nwFAEc0MmLHhgKMM46eQ0HLA5ADK3RE8Hf5Qwx8J3kzJgJjnfffbeJr9PTQIHActk+uSWKhsvdqQKBiZsM6zDRk+87bYx9BwdtiiQO7BQQtHnLzimwGA4KXdHEfooTErK0wmMsz+pDggnQnYzngPbMnB6Wx4O5CQ0aNDB2P2bMGCOY7TgkECQQ7LCjiJVhCYStWzebJMUG9Rtj9uyP8cwzT6Ns2TPx4JBBGDfueaxY/o1ZoTBjJgcWLkME0tO8KFeuvImFUyBQ2b/y8stYtuxrTH1zCo4dO4qqVS7C6tUrUblK5SzvwKrvvsfdd3fNXC4WwNy588wMbPjjw4yosI5jR0+YDnfX7u1ZLzE9GXUykxQPHz6IKZPfMqdz4OPgOHjwILhcbjPzYsfbvHljM/DZ8jU/B3oQGEagx+CLL77AkCFD0LFjR7zxxhum42TYgEwYR7WWxuUUCOwo6XXgTIpuWnoc6MLOucSVAoEeGbp4eXBQpBv87bffNgKB13OwCwrD8A+nCoShQ4ea2SMHeIorHvyT/OkRIDcOIvw7B3LyZl4I2fLvFBIc3C2PTW4CgWWyXejdo1ubs2jOcOmZYPyduQkM9dh9OFUgUHjR9U87p6javn073nnnHRMqYN4NV+5w0KfNk5G1ZJfcQpfqWssV2X4Mz9CmeQ1FF/tBigHaPtuOuTgbNmzIymGg6KMAZlszhMT3yo5DAkECwQ47ilgZWQLhxy1YMH8+3nvvAzNjadWqJZ586gnUqXMlHntsuFklwCShsWNHo0bNYHw1LdWL884rZ14kCgSGB+hdaNyoGSa8MB5fr1iBGTNmYfFn87OUfEa6Dz173oP69RuYzrJjx/ZGbDz77Dg0atQg23NmZPgwY+YM7N69w7zoOZMUDx7cj2fHPmc8CZs2bcG8efNNhnKtWjXNv7GTbd6iqcl8DjeBy1TMgQKB8VHOpDiz5yyHIQJmylOstWzZEpMmTcLatWtN58YwDQcsukkZYqDgo0fIypZnAhdDSrm5rtmZkiFDCNasjB0rZ11MZOU1nFWxnfj7cHk7TSBYqw7I2xrcrWdkbJxilF4Za1kePV+0RStDnu1BFznZs02sGDaXlzIcxAEw5zJHnk+BwHJ58D7WKgYKBJZJ9zsHUK4eCpe5EwUCZ/PMB2COB9nyudkGFLIUpkympleAwo1txBAEB3F6AphHEyp0rSRFegeYr8DQAc8jNyZEM3/k6quvNu8Kw2VsJ+Zg8aAQthKeLY+RHZ2yBIIEgh12FLEyLIHAQZ6dP+N2zAXgi7JhwxokJCZg6CPDkJRUBqVLl4LXl4EHH7zfvFShAuH8v3BNcHDZ4cez55jNRjhgrVixHBdUqhisfwCYNesTTJ4yBcn9ks0LuWTpZzh86Ag2bNhkOjy6Dp9//nmj8M2mKAjguuvqZs2YONutc+U1+OmnrcHljYFgrsPgwQ9g27afTScya/Z0k8BobapiVxKXUwUCXd4ciJjxzg6Nbmm2K9uTuQnsTMnACjEwN4G/o9ubHSRnYORdvXp1cx3LYUccOuBYIQbOvkL/nedTdDAkMXXqVFMexUK4g5UTBQIHbCYn0pMSukkPZ7acfXIg50yfgo35IWRiCQQO4hzE2D7c68MSURwAmZnPVQqnEggUbUYc79uXbZkj35clS5aYH86mw90gzIkCgfkdtFMmgjIxl4M0eXOJJw8yYTiG7wB5s/9asWIFvvzyS+NRC2VieRAYUmM/Qq8DQ2Qs38rPocDl/9N7Qw+E9e7wfaCXk/0L+zZ65Ow4JBAkEOywo4iVYQkELpuiYmZIYfpHM/HKq69h4cK5xv2WnDwAVav8FR063omdO38zOQWhAoHr6nft3oGaNWuYFzJlbwquvLKuefF+WLMq20vKJVp8CY8dO46HHxpmEoweeOABM4vlsWvXLrNOn/E+6+AsgEsWOehbIQbOVtm5vjHpNaSe8BovAevPrP2WrZqhS5e7w+4wT4LuQA+ClaTI1QuMuTJJjgM0BzNmvHOpo7XDH2dYnIUyd4CDEgcs/p4DGztNZopzrTljrxzguDrBGujpJaBrnCGM3AZ/DoAUJpztcUVLcRMIfA+4ioMzT7q3Q138HKS6d+9uvC88j7Zs7XRI5lx7T35cT8/Zq5XfEbr0lCKLwo3LS63D8iBYAoEDI9tuwYIFhjEFAr1FHLToGg/3cJpAIEu68+llYZiGtstN0JiLYC0XZX/C0A3zAniQBRnz9/TS0C6tgzkcDB9QzJE9y2GeB8UFy6aA4CoehkzpuWEIzRIInLgw7EDm9ExQWNhxSCBIINhhRxErIzRJkTsppqamo2XLVujZowfadwhmrHdo3xH16jVEz3u6mVm71flzYGZMkLOXT+d8jLlzP8Xx4yfQP/le7Nmz27yE1apXx6hRI02HZpwImVsoM4768MOP4vPPF5sOz+f34eCBI6YDZifA2ezNt9xkUgfi4uPRsmVzLFr0GT6aNh3Tpn2Ey2vXNC/x7bffhuGPjcT2Hb9i0hsTsXHTRtx5Z3vjEqxW7TJ7RYLDBAJnSBQInJVycyO2A92m7CC5OoEDPHlacVgrrk1hxZk+BzUO+iyHW8tayYcc5LnCxFp/z3bjcjN6I7iSIbfBn50tO2QKNDs8Nk70IHAwpm1y8xx6EJj0xtk7n50zWoYerMNixDAOww8M91Bche54yPbgwMPERw5s3Mhn2rRpWWVwxszBjDNZ3o/3YTiCgxTblNdwpstlqUwyDVeUOU0gkF3fvn2N8OcEhuEEDt60XQpcHhQI9Ngwz8YSCMzL4QyfAzk9o9ZhLWu0/qQAsXZmpDigZ4hhIf6wv2IZfLd4HoUbbd9qJwpxOw4JBAkEO+woYmVkFwgeTBj/slmWNX/+PMTFueD1+XD9dfXw8MND0bpNy2wD7rGjqahQoaJ5cWZ/PANulwtdu3XHaaedgf9++J65tlHDJqhStZKJTwd3JAs+Cvc8oAfhq2VLzN/ZOd7Ts6+Jxd57371o07oNOnXugG7duhpPBDvFgQMHo2KFv6BT504oV+5cuFwBzJg+E0OGPIxFixagUuXgmud58xZiQP8BmD5jGi677NKwO84/ehh6MPZj9fI5aFzzbPjdf+zJn58GcsGDMhe2gcuTfYVAfq7N7RxmyNPlSvcrZ0rW8i0OGuTFwYydoeUOD52x8v8Zv6Z3ITScYO22yPI4CLEDtYQDZ8ZG4OVy8DqeH7rUrLDPxeucKBD4rpAlvWT84ayTAxb/jcKMCZw5kzutfRB4vnVt6IBFphQCZEzPD3+sg16FVatWmex8a2UE25XXsDz+P+9nlV3cBAJtijbK1SB8VgoGMqHNWzZNIcw8GPYbPMiGHh1OXPLDI/T7L9b/W2EJ3s/6HgPLZtuwHny/7NqATQJBAiGcfjLi14YKhFmzZ6B/8kAs/mwhzj+/IpL73WteBsbzqOCrVOUA/McAcejgMbMZz8xZ0zDqqdGYOPENk83O5ZBWjJWKu0N7xrm/MO7QZs0bZRMIn86ZhW7dephVEnRr9+5zj9lCmS9n507dzKY//PcePbua3RF5mM7R60O/5P6YNfNjLP3is2zucHbKn3wyB13u7oapb07CDTfYszbfaTkIETeOGN7AaQIhhiiidmuneRCi9uAxvJEEggRCDM0v71tTILzwwosYMKC/mckwecf64A4Tro4ePY5atWqcct21tZ6Y31a45JK/ZbmqQ+9MVf/ttyvNIF6+fDnjstu5c5cZ/Nu1uwUrv12J6jVqmM2Wcl7HBCTOlK+77vps2zybbwps2myWT1orHEKvZb12bN+Bc88715aYuCnbYSGGvFu36J4hgRD9tpNAiD5zCQQJhOhbXQHuaG2bmzMD2nLPWQIgryJDXXU5z7WWiFmzf8tNnbPsnC7B0PNy1s+6lvc9VfY2f8fDjpi4BEJeFmDv7yUQ7OWZn9IkEPJDyd5zJBAkEOy1KJUWOwLyIESNvQRC1FBn3UgCIfrMJRAkEKJvdbpjZAhIIESGay6lSiBEDbUEQvRRZ91RAkECIYbmp1vbSiBMgQB3HMpUbg3z/Wodf0rAn5qCtN+Wwh+SFFsYZC5PEkpVbgUXM191/CmB9CM/w7/3O/jCZO6JPw0JFzSzd4lxMW27jJS18B7aBP8fO8zn60kPHvNi095yuL7+1fk6vyid5Pe7USopuHNuYQ9X4FTrrU5RovVRFZ8/+GUvHSJQYALhCgQACWf8HX63BEJe7F2+I8g4sj2v0/L8vdsVB88ZFyPgkkDIC1YgPQW+Y78DroIt381ZrtudCM/pVRFwyc7zYu49vguu1IMIuHNfPnyq6yUQ/pysBEJelqff20/ABoFgf6VUogiIQEkjIIEggVDSbN75zyuB4Pw2Ug1FoAQQkECQQCgBZl7EHlECoYg1mKorAsWTgASCBELxtOyi/FQSCEW59VR3ESg2BCQQJBCKjTEXmweRQCg2TakHEYGiTEACQQKhKNtv8ay7BELxbFc9lQgUMQISCBIIRcxkS0B1JRBKQCPrEUXA+QQkECQQnG+lJa2GEgglrcX1vCLgSAISCBIIjjTMEl0pCYQS3fx6eBFwCgEJBAkEp9ii6mERyBQI3y+fg4Y1ysLn0e58Mg4REIHoEzhyNB0bU7jV8jXRv3mE76itliMMWMVHiECmQFjw6Qycc2YSfD5vhG6kYkVABETg1ATSfQGcU+Ei1Kt/XbHDJIFQ7Jq0ZDxQIAAjClJTU8H/d4X5UZuSQU1PKQIiYDcBfwBISIhHUlKS3UXHvDwJhJg3gSpQWAIF/EZYYW+j60RABEQgTwLhfPEwz8JjdIIEQozA67YiIAIiIAIi4GQCEghObh3VTQREQAREQARiREACIUbgdVsREAEREAERcDIBCQQnt47qJgIiIAIiIAIxIiCBECPwuq0IiIAIiIAIOJmABIKTW0d1EwEREAEREIEYEZBAiBF43VYEREAEREAEnExAAsHJraO6iYAIiIAIiECMCEggxAi8bisCIiACIiACTiYggeDk1lHdREAEREAERCBGBCQQYgRet7WHALdbLo5bnNpDR6WIgAiIQOEJSCAUnp2ujCEBCgP+pKWlxbAWurUIiIAIAB6PBwkJCcUOhQRCsWvSEvJAmZ97/mTmNJRKSoQv4CshD67HFAERcBIBP4DKVf6G+g30uefc2sUVKOBn9Xi61+uFz6/Zn5MMvUjVJVMgrF4xBw1rlIXP5S5S1VdlRUAEigeBo8fSsHFfBVxf7+ri8UAhTyEPQrFr0hLyQJZAWD4HjWueDb+bOl6HCIiACESXwMFjXmzaWw7X15dAkAchuranu52KgASCbEMERMABBCQQ/rwRFGJwgJGWuCpIIJS4JtcDi4ATCUggSCA40S5Ldp0kEEp2++vpRcAhBCQQJBAcYoqqRhYBCQQZgwiIgAMISCBIIDjADFWFbAQkEGQQIiACDiAggSCB4AAzVBUkEGQDIiACTiMggSCB4DSbVH3kQZANiIAIOICABIIEggPMUFWQB0E2IAIi4DQCEggSCE6zSdVHHgTZgAiIgAMISCBIIDjADFUFeRCKuA0E/AjABUC7Xubdkm7wv4ArkPepOiOmBCQQJBBiaoC6eS4E5EEocmbh9iQisWI9+DTm5dl2/uM74du/QQIhT1KxP0ECQQIh9laoGmQnIIFQ9CzCnYjSVW6Axx1f9Ooe5RqnHvkR3j0rEaDDRYejCUggSCA42kBLZOUkEIpcswfcCShTtTU87rgiV/doV/jEoR/hTfkOgNwt0WZf0PtJIEggFNRmdH6kCUggRJqw7eVLIOQfqQRC/lnF+kwJBAmEWNug7p+TgARCkbMJCYT8N5kEQv5ZxfpMCQQJhKjZoN8fzPB2uVzmh4fX64Xb7TY/J42TgQACgaAbMvQa/p3/bv3wWqu8nGVY9+Q5PD/079b94+NPjhvzvJz39Pl85vq4uLhT3s8WmBIItmCMZiESCPmnLYGQf1axPlMCQQIhKjbIwXnZsuX49ZdfcMedd5h7+rw+9O3XD48/Phzly5fPVg9rwN//+37ce999mDx5MjyeoIiwRMOSJUsxdeqbeO21V5DbIL93714MG/ooXnn1ZbhdbvgDfrz77ns47bTT0KZNa+zcuQujRj2NF1+cEBQhXKbmghEBY8c+i8aNG6F27SvgdgfFDAXC8OEj0KRJYzRs2CBy3CQQIsc2QiU7WSBY74sltEPfodB/C0WT2zX5uS4/eCUQ8kPJGedIIEggRMUS/T4/WrS4ATff3Ba9+9xjZuB7dqfgmmuuxcZN65CQkJBdIGQO1uvXbcatt96KdevWwu0JehMC/gBWfrcSfXr3R+PGjbFt2494593/mJl96PHrLzvQuHETbNm6ERNfn4Jdu3Zh6dKlSEpKwhVXXIHff/8dM2bMQLdu3UzC1IB7++Gss85CIODGzW1vQffu3dG6TStkOjuMMGnbth06drgLt9/RLnLcJBAixzZCJTtdIFDc0vbr1KljBHJGRgY++OADNG3a9CRxTkQUyW+//TbatGmDM844I8vDR4/fJ598ggsvvBA1atQoFE0JhEJhi8lFEggSCBE3PEYJ9v9+ENWr18DSpUvQu3dvHDhwAOnpGdi+fTsuuvgiugWy6jF+wjhcXfcajBz5FFau/A4//PADmjRpAn/Ah2HDHsG+lN/Rr18yRjwxHPXq1Ue/fv3gdnkwfvw4lC5T2ogPDuY///QrmjVrgY2bNuD9997Fjh2/4fPPgwLhqrpXGoHw/nsfok/fXuaaXr16omzZstkEwo03tsS2n37ErFmfmKTr//znP6hV63JUr1HN/L1mzRpo0rSRvQwlEOzlGYXSCiIQOMh+//33WZ6wnDP3MmXK4LLLLjO/T01NxZo1a/Dbb7/h9NNPN/9eoUKFrLDcqlWrjGfLOmjHFStWNIO+x+MJCupAwNh6586d8eabb+LMM8/E0aNH0bp1a7z77rvmfOs8692hgGjZsiU+/PBDnH322Vnv1Lx58/DOO++Y9/ell15ClSpVcg0P/hlyCYQoGKRNt5BAkECwyZRyL8aK+3do3xnnnHM2xk8Yj/Xr1puTJ0+egoMHD2LgwPuyXXxBpfNNJzZv3gKMfmaM8RJcdNFFZpbv9WXgmWdGo0H9hmjUuL7puCg0Jk+aitNOL42XX37RdI4PPvggln21AuvXb0StWrXQpWtn3HjDjZg2bTpKly6N5s2bYvee3XjpxVfwxBPDceZZZU2HGtQpbtxyczvjWWjVqgW2bN2MSZOmmDAFZ0+XXPJ3XHTxX7Fu7XpcdtmlGPfcGHsZSiDYyzMKpRVEIHDQ79q1q5nF86BI5iyd4pT2/I9//ANDhw7Fzz//jOTkZJQqVcqIgkOHDplz+/bti3bt2hmPWatWrUwZ9ArwSEtLM2KA59x5551ZuTKvvPIKUlJSzMyfNsxj69at5r2ywnl851588UUVKXjoAAAUBUlEQVT89NNPmDhxIj7//HM0bNjQvBf0pm3cuBFTp041v6Nguffee41I+Otf/1qgnBwJhCgYpE23kECQQLDJlHIvhq7Kb775Fs2atsSixfNQtUpVMysKIIAOHTph0MBBuOKKWtkudns8qFChPFJT03DN1ddj7ty5eOKJEaBn4cYbbsKIEU/g22+/NSED6+jTpzfGj5+Aps0ao1mzJjh8+DA2btiMjh074euvvzZeg7p165oOlPkKoTHW/fv3Y83aH3DeeWfjtVffwNNPP41jx46Za9gxr/h6BVwu30khhpdfehVbtmzFc8+PtZehBIK9PKNQWkEEgiWa+W7w/++66y4zm7/99tuzBtojR47ghhtuML/r2bNn1gx+yZIlGDZsmAkPVKpUyczy6UFr0aKFeUqWt3DhQjz11FPmT4oI2jLLfvXVV4090+NAzwO9AUOGDMlGh6E+viN8Zz777DNzfwqIxYsX4+OPPzb3scTIvn37zL8/+eSTqF27dr4pSyDkG1XMT5RAkECIqBHu2b0PV1xxJdLT0zFv/icmyY8ze3aO/GGHZK0ssCpCl+bq77/Dt99+g0eHPW7corUur4Xdu3cgIz0DmzZtMbN8XnfRxReidOkkeNweDBkyFKOefhJcEMGO8p2330Ny8gDTEV5xZU384/9qmCTFiy++ONszV6tWDatXf4ezzi6L48eP4+jRE+japZuZgbVo2RRnn3UWPHH0LgTQuvVN6Ne3P1rd0AwSCBE1nSJVeEEEQuiD0abat29vYv3/+te/sgTCzJkzzcD7v//9z3i8rMGfg/ujjz5qZv70cFEg9O/f34gJ66Cn4MYbb8SiRYuMyH3ggQewbNkyzJ8/H+vXrzf3oCeAYbsLLrggG+dy5coZ4TFy5Eh07NjRXEuPAUMNd9xxByimrYPig96FHTt2GPGd30MCIb+kYn+eBIIEQkStcMTjI3HiRBpmzZqFKVMnmvi93x8wrv1t27ZizJjRoMcg9OCaAQ7IDzzwILb/+huuvPJKM6sfOXIELq9dG/QW3HrrbZg3dz5GjHgcgwYPMjOe6tVqYO26H8yqA6/XjxbNW2DDho0455xz8M23XxuhUumCSihzWlK2+33+vy+wdetmIxBMR+x34ZZbbjVuYIYi6Nq16nhru1tN+OKquldhyuQpxoPAEEX5CuXs4ygPgn0so1SS3QKhU6dOuPTSS42theYS5FzaS4HAMAT/5EHRvGXLFnTp0sWIC4YTpk2bBq7oYf4M8wcogufMmYNbbrnlpNAA3zWG5ChYKCh4DsXBpk2b8Oyzz5rzGcKjF4NLh3v16oUXXngBFBb5PSQQ8ksq9udJIEggRNQKD+w/jNKly+Dyyy/Hm/+ZZFYPsJNp0rgFBg8eiMv+7+8nJTnRDcpO8auvluHLL5abDu2NN94wM6X69etj9Oin8eF/P0Cf3slm9tWnTx+TyEVPwLr1a4wHYfasOXjrrbdMKILZ2I888gh+/fVXc+45556ZLSmSnod169b8IRBCVjFce+21JtObMzfWadu2bSZezNUOVuyWf//880VwZy7DDBuoBELYCKNdgN0Cga78Dh06gELhzw4KA3rhaIOWQGCeAt+TESNGYNy4ccYTcPfddxuxQIHB8ALfCQ74lviw7kGBwevpLeCgT2HB3AiK5bVr15pEx8GDB2PQoEEmafLxxx/Ha6+9lutKiFPVWwIh2tZZ+PtJIEggFN568nklE//o3qdAYKySg2zvXsnZ8gCsnABmd3/33deoVLlS1gD8247dqFmzJnbt3oEft/5iErMYJmA5dH8yIcsSCPQgnDhxDC1btDZx2K5du5hllEuXfmHco8ePpZn7snNkp2dlaP/zn7chMSm4TDLnMkdrz/htP/6Ctm1vRqnSpbBgwRzTKVsi4VQbNeUTUfbTJBAKhS2WF9ktEBhuYLLiQw89dNIgvm7dOiOaOdvnu0ABy1k/D9rhueeea65lCMDKd2AIgl4D/n3AgAEmyZCrJSy75b9TxHPgZziQ5dNDcNttt5kQ3+bNmzFmzBiT5MjkSYYeeP3w4cPx73//WwIhlsYXwXtLIEggRNC8MosOAP8XIhBMp5T5KTezrIr/+d1mdsJlXEMeGmwu9Hp9OLD/kNlgqXv3bmjStAm6de1uMqe5fwGXS3Kmk00grP0BBw7+jjGjx6JX775o1rQp1m9YY0IaPh93R3Sb3Rs56+nRo4eZfdE7wLBEjx5dM5c5unDzze1MDkJ6ehrq1auHKlUvwP2Dh6B8+XI4dPiQKeeJJx43eyTYKg6MQnEhJWU/Vi+fg8Y1z4bfHdyBUodzCdgtEOgxmzJlihnUraRADuJMIGTuAfcz4CoCK8Rg5SDwHGuporU7Kb0CFBKWQGDOAFdQUEDwHP4/PQ3XXXed8cjx/QgK5YC5jt4H1oF5DBQMFN4UEhIIzrVHu2omgSCBYJctnbqcEIFghRgeeXiomb1zV8VSpUrjnp69UbFiBZOTkFQqwXRarVrdiF9+/hUXXFAJa9euwesTX0fVKheajZPoQeByrFdffcXsiUDPAzduWbfuB7jcQFpqGnbv3oumTZthw4a1GPnkqOB68QAwf/4C7Ny508y0mMzFQZ4Cof+AfmbJ5LKvluOpp57GgQP7cc011+C555+Dz5uBevUaYO68OTjzzLK4qc0tePSxYWjRvJm5n62HBIKtOKNRmN0CgYmGXNnA/AKKYB4czJlwy3wc5gUwFyC3JMWcz8uBnudRIPDYsGGD8QjQ88AVPaNHjzbJjBQcFMx8l8aPH2+WINPTwPtfcsklRrDQU8F8H3oQuPySYQx5EKJhYbG5hwSCBELkLS8XgbB50zY899xzJtOaM55GjRrhhRfGIz4hmLDIWQ+XenHmsmfP76hVsyZ27toOuvnvv/8B00EyQapLl7uwe88e3Nz21qBAyMxBYBmhOynyHvRIzJo1EyOfGGX2YGACGNd590vubTo7buU86qnRWLz4MzRr1hQd7/oXKpSvgMNHDqNxo+bo0rUTkpP7GZHx5ZcrzNrw119/HdddX9deL4IEQuRt0uY72C0Q6ObnQMwBmPsT0LY58+fAzmWPnMnTA1AYgUBxzEGd+Tlm07CrrsLAgQOzdjOlMODSSOYg0DMxffp0Ixo+/fRTkxPx8MMPGwFB4UEBoxwEm43JQcVJIEggRN4ccxEIlgg4dOgwBt53v0mgovfgX+1vN7OaULe9yUGoFVzmSIHw4INDMGHCBJO0+NBD9+Pc887FkcMnzJrtVatXwuMJfjvBCIQmTbFx41p8+cUKjBo1ymwW89bbU0yG+PFjx9G7dzJWrFiBceOeReMmDYxQCD22bvkJN93U1mzWxH0YrO9B8JwFCxaje7cexuXavsMfa9jDBiqBEDbCaBdQWIFAdz5XCNCbRo9A6EfLOADz99z7gLP+ypUrGyFN0Wy9Hxy4uVSRK3VOdYR6EELL534kfCdo/9wPgaG0nEmLFCBcBcH7cM8Deh2eeeYZsyKCgoX5DMxRyPktlT/jryTFaFtn4e8ngSCBUHjryeeV7KCaNG6OZ8eNQa1aNbMlRhmh4AP2pqSYhMKPpv0XSaWSsgmEXTv3mFDA198sxy8/bzedWvUaNUxW9UsvvYCxY8bgo49mYOiwYWjbtk3WtxP4Maa7OnbC3Lmf4rZ/3mE8BozdcrGByx38omTAD2zavAU9unfHnLmfZMV7rUdbu3Y9Vq9abdaoe+KCwsM6fL4Afv3lVyxZuhSdO3fMJ418nCaBkA9IzjqlsALB+moo/8z5VVJrSaO1Twj/bn35NPRrqBzU/ywPhtfRQzB27NhsAiCYe+M2Az2TfCkGcn5VlR6M+++/3yQm8hwmL1avXt3kCjE0wfeJ1+UUFhIIzrLPwtZGAkECobC2U6Dr2BlZn0/OrTOz9pPn73J2Uvw4k88fvN50oshMbAxJyGJlcq4oyLkBE8/J7bPSoR1wbsu+GFI41RJGdr78KmVcfPYPRRUITs6TJRDCwheLiwsrEKJRV2OjmWIgN/unl8J6N3P+3trt0apn6O9zEzX5eR55EPJDyRnnSCBIIDjDEmNYCyvzu7BVCPf6k+4rgVDYpojZdU4WCDGDcoobSyA4rUVOXR8JBAmEomOtJaWmEghFrqUlEPLfZBII+WcV6zMlECQQYm2Dur9CDEXeBiQQ8t+EEgj5ZxXrMyUQJBBibYO6vwRCkbcBCYT8N6EEQv5ZxfpMCQQJhFjboO4vgVDkbUACIf9NKIGQf1axPlMCQQIh1jao+0sgFHkbCLjikHReLbhc2b9MWuQfLAIPkH5iL/yHf4pAySrSbgISCBIIdtuUyguXgJIUwyUYk+tt/yZHTJ4i8je1PswW+TvpDuESkECQQAjXhnS93QQkEOwmqvJEQAQKQUACQQKhEGajSyJKQAIhonhVuAiIQP4ISCBIIOTPUnRW9AhIIESPte4kAiJwSgISCBIIej2cRkACwWktovqIQIkkUJwFAgIeJCZm/+5PQRvZFShgRo31BTafP62g99L5IhAkIIEgSxABEXAAAQkEeRAcYIaqQjYCEggyCBEQAQcQkECQQHCAGaoKEgiyAREQAacRkECwWSCwOH5aNcN7wmltrfoUFQLyIBSVllI9RaBYE5BAkEAo1gZeJB8uUyCsWjEHjauVhTbnK5KtqEqLQJEnsP9YOjbuq4h69a4u8s9y0gPEIklRHoTiZ0dRf6IAkJJyAIvnzcZfzksCXL6oV0E3FAEREIG0jAwknPE31Kt/TfGDEVOBkHECcBU/pnqi6BBIT0/HgQMHonMz3UUEREAEciHAVXmlS5fGGWecUfz4xEIgECh/0jOOFz+geqKoEqAdaX//qCLXzURABEIIFOs+SAJBti4CIiACIiACInAyAQ8SE6K8URIrQdWVlk4PQkCtIgIiIAIiIAIi4DACblc84uMTwvLSFmonRXJgiKGAmzA6DJ+qIwIiIAIiIALFk4AEQvFsVz2VCIiACIiACIRFwONOQFxcfHQ9CFaN09KPyYMQVvPpYhEQAREQARGIDIE4T6IRCOEcBQ4x/CEQjsPv94WlTsKpuK4VAREQAREQARHInUB8fCl43J6w8BRaIGRkpMPnywBcSlQMqwV0sQiIgAiIgAjYTCAxoTRcLndYpRZaIHi9XmR40+Fy+cOqgC4WAREQAREQARGwk4ALQYEQ3m6GhRYIfr8faekn4JIHwc5WVVkiIAIiIAIiEBYBF+KRmJgYVhm8uNACgUscU9MoEORBCLsVVIAIiIAIiIAI2ETA405EfHx4CYphCwSvNw0+v9emR1IxIiACIiACIiAC4RKI8yQhLi4u3GLC8yB4fZmJimFXQwWIgAiIgAiIgAjYQSAhvjTc7vASFMPyIPBis+VyWqo+12tHi6oMERABERABEQiDAMdkj8cDCgQ7jkLnIFgCgcsd/YEMO+qiMkRABERABERABApJwO9zISkpCe4w9z+wbh+2QOBqBn6XIdzlFIXkoctEQAREQAREoMQTCH66Oi7sLziGggxLIFheBAoECgWJhBJvowIgAiIgAiIQAwIcgxMSuHtinG1jcdgCgRx8Ph8yvCdigES3FAEREAEREAERCAQ8SEpMMiDsmqzbIhDo2uCuij5vBsLc2VGtLAIiIAIiIAIikE8CwdCCC3YtbbQ1xGAVZnIR0tMBl/ZFyGe76jQREAEREAERCIsABQK/2hgfF/Qe2HnY4kFghVjJ4O6KR21Zf2nnQ6osERABERABEShuBDgxZ84Bcw/sCitExINAccCD+QheX2pxawc9jwiIgAiIgAg4ikAg4EZiQqJtyxpzPpxtHgTLi8A/0zNOZK5qcBRLVUYEREAEREAEijwBK++AYQWPJ/wtlU8FxFaBYN2ElU/PSEMgoHyEIm+JegAREAEREAGHEWBSYqLZNTESoQXrYSMiEILeBD8yMjLg9aWZB4jkQzis5VQdERABERABEYgMgYAb8fEJJqwQ6XE1ggIhmLTo86XD6/PC5YoMK5UqAiIgAiIgAsWeANP8XG7ExzHnwB1xcUCeERMIoeEGnz8D3gwugSz2TagHFAEREAEREAFbCQRzDtxIiC8V1VWCERcIwXBDcIUDQw7+QLqt4FSYCIiACIiACBRXAgF/MKQQ6XyD3PhFVSAwXuLzZcDr9cLn88Plpioqrs2q5xIBERABERCBghPw+4N5e26XC/HxiVnhhEjnHOSsaVQEQuhNLW8CN3jQ9xsKbji6QgREQAREoHgT8HgSsn10KdrCwKIbdYGQUywEExl9xqsAl08eheJt93o6ERABERCBHAQCfo8JITD50PpxAqSYCgQLgLXpA70KQMBsssSf4PbNwSWTAfjM70KVlOWN0DJKJ5iS6iACIiACJZtAcAwLHjnHKhcyP8PMZf+Z55i8AjdDCZFfsliYlnGEQDhVxS0BYISCEQgm4zHrD/5r5j9SO+gQAREQAREQgdgRCEmqY/5AiFqAC38uAmIVRvgzWI4WCLFrZd1ZBERABERABEo2AQmEkt3+enoREAEREAERyJWABIIMQwREQAREQARE4CQCEggyChEQAREQAREQAQkE2YAIiIAIiIAIiEDeBORByJuRzhABERABERCBEkdAAqHENbkeWAREQAREQATyJiCBkDcjnSECIiACIiACJY6ABEKJa3I9sAiIgAiIgAjkTUACIW9GOkMEREAEREAEShwBCYQS1+R6YBEQAREQARHIm4AEQt6MdIYIiIAIiIAIlDgCEgglrsn1wCIgAiIgAiKQNwEJhLwZ6QwREAEREAERKHEEJBBKXJPrgUVABERABEQgbwISCHkz0hkiIAIiIAIiUOII/D9V9LWokVm2oAAAAABJRU5ErkJggg==;" parent="1" vertex="1">
          <mxGeometry x="10" y="310" width="365.63" height="270" as="geometry" />
        </mxCell>
        <mxCell id="5Aev1RExUfUuKyrzrUi3-3" value="" style="shape=image;verticalLabelPosition=bottom;labelBackgroundColor=default;verticalAlign=top;aspect=fixed;imageAspect=0;image=data:image/png,iVBORw0KGgoAAAANSUhEUgAAAggAAAFdCAYAAABmV5W6AAAAAXNSR0IArs4c6QAAIABJREFUeF7svQeUZEd1/3+7e+LmqA0KK21eZQlFsgQIFJFEMIicbMD4Z46NOYZzbP98fj/7D/9zfA422OA/GIwIBgkQQQKEcgKlXWVpVwFlbZhdaXc2zvR0v//53Hq3u/rN6zgzvb079WC03a/fq7p169a937p161YmiqJIwhU4EDgQOBA4EDgQOBA44HEgEwBCkIfAgcCBwIHAgcCBwIEkBwJACDIROBA4EDgQOBA4EDgwigMdDxD8FZBMpkx/WBgJ0hw4EDgQOBA40OkcyPiGS4lNrup7hq3DGtNBACESBwb4F4ZFjo3l/1QwlkdLPxl/uVHidVT6qJ+sT1zR7vL6JRPfdGUmOizlOV6uF7zhP5FKQ7X6jd467SrRYO1utF0pPHBVuQLcf6sLbbLlpbZZuan8otyUfkjpL0dD/GzdvvX6q5G+9cutkJfKHm2GB/XkK1UOUtuVpKG24mhFvkq8raGIyuWmyHgVnlXwwC+7BRmvrDX+VlXGGx3n5edSeVBVFurVX+6zkswkdU3Mg5rjxgZeS/orwQOf/zVlvDH5GtWulP6t0J8Njt1643yUfPs8qqnrGmtXha7zlXk9mTX1mKAhSS/FjAYHsemxOgAP2kcZ1bju+c4BDPsJIGD8nYU3T0AUFUX/9CYM4jvfMhJFBWe2tENiU1ZyISSsQqboesCe1Q7gnjHe++w/ayhPy7VnfamJ3G2PBvclG9/0Pmc8WrVcayjPckFD/F7pWarlXjGuw8r1pDFZrrbLl9aY7rrtMh7EjPLbpZ/TeJARodzSoICv/ghxfVa9XY3wgDqs3IRmg/m03+Sgor9oR8w7v58r2uWXm+RtsUrfJmWGPrK+dYPayZrPL3iQc3RW8CuucxRvYyK1bQZ24rbqs83IF/X6MlH0Xo95q/KVlO+47yrk2/rTeOv3dYJfFWPM74dY1pPyVTGWvX4u8aAab+3ZuP6SwfB5mzLGtC9s7GbjPkyRL33OH7tpfevJRFK+SuPc10kxP1J1R4qeqcsDb4z57VLdYWPMl1tPz/h6sWTkE/pzFA+S+svkwNqV4Fe1vq3oA2SxBm9r6i+TL2tArb41GY7Hqc9b1SdGg8lMQr58G1Khw2M9ZDqngoXGL9PFVGP1M/agNytZ7S8fC3APlcL9bAlYMLTcvf1ztR0gqNGPilLEuMXyXCwWJMoUyoY89iDE0Cr2JgAVTPCdf2H0MkMsLA6SxYowCTV9hWRgolxuuc6S9ok7MjaqowBC3PlWp+rTeNDos75AJ5S9CqyvsEsjeDSKNONYalcDz5YMgf+sT09s9P2ZfUmTprQrOcCcRfNoNYOGAvcBHUrZAxclnsTKWo2a9Zc38D0fkP5ekweJdlGmjtVk3yYBVWz0RynPpAGJH1C2GIg1mnzg6ANFX76S9Hm80zITPIjrycTeLOdPi/ukJF+mhBxvM5KVKAYI+hmem/LS1015VWimWL5N6fn9kOxbTya0L5LPpsi7KnvjVxoNVQBCsu9LsuYZJmUhNCV5a4YhlrsKfVBj3JhxrDrGfF3igwlT9r7MJ9vlyUzquPGNmMfbJHAsgfB4jFXlgS9faX2bHLveuFM1Bb3JdiV1mY1zkwsTtmq6wx83/jhK6tokvcb3pHwl9VdKvf64qeClP+6T7xnosD6sNXZjOSiWAYEv72rgbVKrfefKZHzqpXrS6i97EAAFeBMy2aw+m0WUFSiUn7Uem8h/2wYQHChw4CAqRlIsjpSNvKIqp8xKaGsiWx3KDhwIHAgcCBwIHOg0DpSWzgEHDgBnsznJAhRiwOC8D+0BChMOEJzHAEBQkEIxr8hUYwzwGJTcUZ7Ltz3t7jSxCPQEDgQOBA4EDgQOVHLA84Bmc3gRuiSbyak3weIbqsU5jAcrJwwgWMBhUb0FBSkU8BgUHO4xV6ctaPtuYHMDjUfrQhmBA4EDgQOBA4EDByoH/CXteFkPD0I22xWDhNizMGqnxPg0eEIAQinOoFhQcFAssvYSr8cGD8H49FwoJXAgcCBwIHBg8nFAwxjcsgPeBJYgdPlhAkDCuAIEy1kAICDGQOMMdCdCJJkKz0BACZNPqkOLAwcCBwIHAgfGhQMEkOrWyIxkc10xWCgvO4xLHRpDOU5nMZRjDQwcmNcgjvKsoDgAhPHqwFBO4EDgQOBA4MAk40Dksi7o3gk8Cdmc5ErLDuNnX8cVILCcMFLAc0CsgW1Vsa2H40f0JBOF0NzAgcCBwIHAgcCBFA44mOCWGvAkVAYwjpVl4wIQ3C6FogYiFoojGm/glkP8/asBIIy1s8L7gQOBA4EDgQOBA2UOOBtLroSMDxKybvlhrNeYAYIFJKrnoMDWxTgZRAAIY+2b8H7gQOBA4EDgQOBADQ54CbninAm5nAUujj1fwpgAQjnuYESXFkrgoJyPN3Rt4EDgQOBA4EDgQODARHMgcjsZstmM5HJsg+QvzvDYYt1jBgiW46Co5yVYKkmjZuwujhbbFV4LHAgcCBwIHAgcmGQcACSIxiMAEspZF1uzxWMCCBZ34NImJ8HBJOuX0NzAgcCBwIHAgcCB/c4BQEJWAUIuDlpsNTVzywCBMxUKBdInk+sgTptccXDPfudSICBwIHAgcCBwIHBg8nEgyko2lxONR4hTM7fChJYBggMHed3S6HYr+DsWWiElvBM4EDgQOBA4EDgQODBmDsTxCLrMkOsuHy/dZMEtAQSCE9nSODKSd3EH4fyEJtkeHg8cCBwIHAgcCByYQA5ELhahq6tH8yO0cjUNEErbGkdGdIkBcODSKAcPQisdEN4JHAgcCBwIHAgcGHcOkKMwm5OunAMIrZzV0BJAKOjpjHmJ9BAmy5QYAMK4d3AoMHAgcCBwIHAgcKAVDmCaM8QhsKOhu30AwSVFyrvgxNZ2T7TS3PBO4EDgQOBA4EDgQOBAoxyI2M3Q7bY8Zkmc1NzVtAfBbW3M659k8CAEhNAcy8PTgQOBA4EDgQOBA23ggGZXjHMiZO20x8ZtdgsAgQOZ8lLUzInxskLj9bWBI6GKwIHAgcCBwIHAgcABiYgRZMtjt5726LwIjRvspgECgYkjhWGJdHtjfIVdDEESAwcCBwIHAgcCBzqMA5Ee2uQAQvfEAoRI2N6Yl8IIyZEsKJFIiBCg2GFSEcgJHAgcCBwIHJj0HIiPg86WAUIzuxma8iCUAcJwDBBiV0UACJNeDAMDAgcCBwIHAgc6kwPZDPkQ8CCQD2GClhhceuURKRQBCEWRyABCZzIlUBU4EDgQOBA4EDgwqTlQOgaa3QzEIDS+m6FhDwLeA9vBUCySQTFyAKFxMDKp+yg0PnAgcCBwIHAgcKDtHPAAQrMJkxoHCJEPEOIdDAEctL2vQ4WBA4EDgQOTlgMW7obt6eTQt06yjQoQXD4EBxAmwoMQAMKkHZOh4YEDgQOBA/ubA86D7XLvZCL1aTuSIgxenNFXl71dYF78o/uc+Ore4yc84fa+91l/5L6X60ef9eLueM9yAak3PV52z7BrAKPM/oHO8LLr8c8EKua6JgYgwE89wbEwLMVopLIP9rfkTKL62T0ynM9LxDkYsbw6IJ0yKCr4Uu33tPuNPGuF13s2CfmTIzVtSuAPcr/8tI723/f5UK1dPFNFiVTwsZl2+XTZe/Xaleyz8RJiq582+onMWpWPev1cre1VNXIDsjoe/PT7oRYtY5WZavKX1oZqfT7RY7BaG+v1bbWx1yhv3XNw3/VARjLZrHR1kbin8VmsUblz50559plnJBoZisEB5ZtRN2NfObYzUhQ2+lWABb9rKoy+SMQpiPEbboOgG0NahgKAmG77bAH6enpiRNoByXX1yNz5C2XBgoUuvXEHeBPaCBA44jksMYyXOm+2nHx+RJ564gl5ZetG6c4WpKjCVzYGZaHOxpDBkDB5K5ygm9DboIkUKdsw8g1L0lCD2t2Ad5c9GyNwcb+7X5II3D1brsv/Pc1oO4pcOfaZwWqKxeoqxk/57TK6cjFFrl5XltVrit2V7re+UpkkDa2vVHnTzTLKahAaiRSOzymJeVuut5IHo3lfD9iUFZbrx0b6OdlPlTJTCZgcj9LpqmZQrP/L/TS6n61cJ1Nlfrn2Wg/4fV4pX56iHsVv40GafPkG3IyFyVXST500iBkRgrH5J7WfqReKfZnyP7tfyv3kS1ml/Dm5Hi2f7o2kjI/mt+PV6PFY7lvrc3+s2ahP0uX6o9xPBjD8ehlPhZTxbG3wraLjd6EQyYw5i2TJUctkypT+ps8G2DKwWR5/aK3Mn16QXFdMUyaepcdaojIuzrXC54HKnecIUIuuZXhy4oXXuRJcHRqYj3te3ylrQtOKlFGMirJ7X076Zx0lK1Yf3XQbm7UHjT7vAEKP5HITuMTgPAh2BoMv4I2SGZ4bEwcikeHhvKx/eJ10DW+UBbNykskitAh9rNz4HBuO8iJd/HsCTFQawlYoS1OwZSXiA5fRn22U2mFfVeqvmKCZAk8Cl0ol4DR6PJi1WAMWvhKwepNtSKMjxXCUZuc+v5N1JQ2H9YPPI7++RgxW3IaKfjYF7r+fBDZpbWhlDKcBJuO3b6Tsc1xHifVV+F3Rz8aTtGcTAFb7uVq9SX7Ua28aQEjyO62upHxhW53hqTrGUtvryUIFv8wTVE3u/d/HmP4+tV6vP2ry2+IC9BjBiiABlgS274xkX9diWbx0jUyfNk2yTc6uNw9slhfX3y/LFxWku9tNFKISj1vRX+P3jk69okgKxUgGBkVGeo+QZauOmTwAQdd/ioVwSNP4yVTzJcUAYcPD66RPtsjied3Sla2n9JqvJrwROBA4EDgwvhyIZNuOEdklC2XBEWtk+vRpbl7uOxrqVLhpYJO8sOE+WbWoKL09MUAYXyLHVlokki9kZMtgRqLexbJ01bGdAxCkfGjThAQpAhBsm6Oe4lg65nlsPA1vN8eB4aFh2fDIWumTATl0Xo90hSRVzTEwPB04EDjQdg7ght82OCw7owWy8IhjZPr06U0DhI0KENbJ6sWR9MYehLY3pFaFUST5Yka27MhKscMAAktYXfGpjhMCEAiOsyBFXYsJAGG/yKYDCPdKn2wNAGG/9ECoNHAgcKBZDmAzDCAsWnKsTBsLQFgUlTwIzdIxkc9jIw0g4EFYtupYb5lpImtupOxM+djnDDFSjV0N50GgOD2oaYQsisGD0Bh7x/kpW2LAgxBtkUPnBw/COHM4FBc4EDgwARxQgLAjLztloSxacoxMa3GJ4bkN62RNB3oQ3EJvJMOFjAwM5iTqWdRxACGb7ZauHCc6BoAwASLeAUUmYhAOnd8dlhg6oFsCCYEDgQO1OcDsetuOgi4xLDpyTUsAoZOXGFxGhkjyhaxsHcxKsWdRR8UgELhteRAmECCMeB6Eps58CONnPDhQAgjEIAQPwniwNJQROBA4MPEccABhJAYIR48BINwnq70gxYmnvLEaLFR8uJCVAYIUO9CD0AaAEJYYGhOXCXoqLDFMEGNDsYEDgQMTyYHyEsOCeInh4AtSBCS4JYZsAAghSHEih1OVsoMHYT8wPVR58HDA3xLcxP66g4cB49ySZN6I6sUTt7Ztx3AcgzDGIMUOjEFwCwwAhEnvQRiKgxTDEsM4j7b6xQUPQn0eddwTlosNwsr52jqOzAOSIJfF0GXJrHWR7jYnkiUPvektl1GvI/LgHpC8h3VFyUQZiciPE5/wW60fHEDwgxSb9yCQB+H5DZ25xBAAwqhdDHHu6wNVuA9EuiuCFDfX3cVQSjNaMWobR/0HIovaSbOm0K1hZDBdmpC1q1ey2T7JaFrkOKe7EppUp37fpPVT2u9+dslqGfVSMjpWPbsjbZZtdfjp/+yzHWhj7alGY63fTb02kCHTo5vDejIYp/yeOJ1xeu9HmS7J9s+TbP98yZLhz09w2E6BOdjqyohki0WJhnfJvl0vikTDpUToyaa6JQZiEBbKoiNbj0F4nl0MnbrNMQ5S1ERJPR24zTE+rGkCgxRDDMJ+HePNeBBi/Z3tnS5RD2gdRW5pavkYz6AatVH1cEU1G1It261vC3z7kPxsDK9mO/dnvYV9Eu3bIVGUTxULSCtkuqVn+mLp7l8gEnW7DLTx1XwOzFoAoRoTkzl9a3VkLXCQVr5v9H0WVOvcJC21RlMSjCTTFvN7JNHwXslvfySewab7A6Jcn3TNWi4905fqsbflK034kzTVQxNjKSNtvp0mFVXSU1cFmc20YSw0cKpiXop7tsrg1gckW9hbAyCM4y6GDgYIw8WMDOywGITjOisPQgAI+9V8T3zlzQCE+BCZ7pnLJTvjSD1AyIEEcliYYg/rsGPptGhomwy98oQU8ztTFw8cQOiT/rkrpFf7oMdLLWsHFDVjNMdCbavvpnkNkgCgUUNfj4ZqoKDKe1FRhocGJb/5dimMDFVfZujqk+5Zq6RnxnIFCNWlvpqHxIGRSmDhnwnh05c08Lam4Zfh36vGkzRg5z9bPrSssoQ0xJwGScdKAxMMZHhYCru2yo6t90iuMNSAB4FtjngQml9iKG1z7GiAkPUAQoclSgoAoZ4COsB/bypI0Tm4e2YfJ91zVuoZ4OVzGCtnkWmT/EahQ7WJva+SahxZ45+hNupz2nu++qtXbq3f60lCvXZxGE9h34Ds2fqQREPbawKEKQCEWUdJRnrjU/Ko3U7Q9A0Kn+sd5FTLJeOfdplyQFVdbjfv06h+IFctw9eodKVJkd3jdL0RGRraKSObbqsLEHpmrZSeGSskkwUoc1lbaxl0A9Jul3v5MuOcvF+mrRJMpIEDoyGtfr8u6+80gMJzaTT4/K33fhL8WJuTNPj1xOBCXx2W/K6tMritHkCwGAR2MYwlSLGTYxAiGS5OeoDAWdw2C62nZsPv482B4aG8O4uhTiZFDpNjjbZn7vHSM3ulnpxWXmYon5A+3vRNlvJYU1WAsO1hiYZe0ZPckpd6ELJ4EFZK38wjJSN98VHKTglXGiozGPVgTSMAwZR+8mTNtBlyGtVjMeCV4HO0PNT7PU2C0r0sBL4N79sp+c23tgAQfJCQNIZpPEkz/tUAVS23fTNLEj4dSYBgv6XRUG/ZoBUaqtRfHJYRPAgNAwTLpNiqB6GTAYJI5RLDZPYghEOC9ostVIAQn+ZYK5Mi9qooRemde7z0zl4VnyrmFIOb/zRrBPZLczu0Unfue2FoQPZtfViKeBD0fJLKSwFCpk+mzFshvTPxIAAQEs9EUbzskHTbt2JI28GuKD7JOF1+SIij0lX1mL5ku6y85mWyGBVkaN+gjGy+VYq1lhhyfaIehJm+B2FieGXtT+VBxRHQ6fXzfnXeuXfS6qhZb1yVX3Yj9dTmUAwYorzkdzbiQYhTLWuQYmupljs5k6L2S2mbIzEICzsu1XJIlDQxY75zSi3FIKyTvqj2LgYfIPTNWamwQOesJQUUAELrHesDhIekMDQoWT2fpBpAWCm9JQ9C+RmUtG9Q6xmGWvTWN8yj327WSNSjt97vafTbO7Tdb7+jrTZoYHvd0JADCDVjEFoACNTP6bVGV7JvhoeHZefOnTJr1iwX15DJxKfdFvS73aOcoaEh/Zs6dWrpvgEId77NiORyuVL77V1+472enh7p6uoqsY/7u3btkt7eXv0z0GD0xjc0QI5y7Xdo5t3u7m69D23cg3bKaU7+Yi9VNNIgQBivIMX7ZPXiYkee5hgAQsFSLYfTHFs3LmN40w9SJNVyjeOeSwBhzvHSN9cBBP4XT/9qEmFHe5uiq/awKRieQ4FVUzCmbCmHZ92x4YWSUkwaB7++WobPnzXxGUULHSyn1FpNNzqNLv41pUzdpmgrI94rqJIiC237tsi+rQ9IcWiXZKoChP7Yg2BLDOVy8vm87NixQ+ubO3euKmuuvj7nadi8ebPSNWfOHOmKFf2+2Njwjj2Lcqecbdu2ydKllZH6PLd7927lC+XSduOV1T1v3ryK6H7o2rdvn/YRFwaKd3lvy5Yteo93fKNFuRitl156SY488kjtW6ORf+kbyqUMyurv79dyuP/KK6/o8zNnzlT6MIrQNm3aNDWqVeVqAgHC1q1bZcOGDXLooYfqn99W6H7xxRflmmuukT/5kz9RumnXC88/L488+qiccMIJsmDBAuUpPPzjH/8oDz74oJYDL6dMmSKLFi3S95577jl5/vnn5fDDD1e+bNy4UX+jz+n/hx56SMszfsOLvXv3yrXXXitHH3201rNp0yaVHfjLv/zOv5RxzDHHKA/5vn79eu2/FStW6D2uxx57TOnhOZO7xjRUGSCM7GxkiQEPgp3F0Po2Rz3uuWODFP1ESXgQJuUuBgb5yH497rnZmU9jAn8APNXEYU0VAIEgRV1YiPeAmxuYJnuuYJvNobBRgBitxYsXlxR0ku8ookceeURmz54tRxxxhM5M7PKNN0oSRTg4OKiKCOWL0kQpYrwwKKacfDBhn7dv367vmsGxOmbMmKE0orwxTmvXrpXTTjtNjQ2Gx2ZnGBzqgV5mfIcddpgqb5QmBo2Z4PLly7UcDCNtR2nSpvSL6I4YIAw86ACCMCYqL7fE0CtT5uFBGL3EQLtuv/12rfMtb3mLPPXUU9qO4447Tnn+85//XHn72te+VqZNnSq5ri5tIzw3g3viiSfKySefLDfeeKPcc889cv7552s7aCf008Y//OEP2sbXve51As+4Rx9jfODR6aefXpqNwrtnn31W64E+jM7KlStl9erVatweeOABGRgY0Hcoiz6fPn268pP3oPkDH/iA9veTTz6pfQb/qYfPGCbaR3m8Ax133nmn3kce7KKeNWvWqDGzWXCSv7rEgAdh0/gvMbz88sty/XXXyWDMNwyxDyyR329+85vy13/917Jw4UIFPANbtsjvrrtO++bCCy9U2eQzbbnuuuu0PwBz9A3j4JBDDpE77rhDZQAAQFvhG3XRh48//rjyEF7Nnz9fXvOa18j8efNkz9698u///u9y1lln6bO///3vVb7pYwAAfAN8AEhWrVqlQIu+vOWWW/QZQCQADLofffRRlbHXv/712o+NX/GSWsMeBACCZVJkiaHVGIR1srpDMynaaY7lPAiTEiDsv+OeMRh5VfxF6e7qkq6uxo+tbFzwU57U6Wgtl3zUniX9JrY5JgGCW2JwACEqFmVwxw65+ZZb1EByoZCWLFmiih8Dfvfdd6tyOemkk0qzTpQ5sxUMLRfKBuWOIsLAGkCgLJQQCgeligG84oor9PsFF1ygig9l9epXv1qN1FFHHSWnnHKKvo+RwaBhhHgX8LBnzx6dHWNgqBPlBw0o1De+8Y36Hbq+9a1vyWc+8xl5+umnlS6UM3Vj5FDKGCEUMwYVo0N7UNA8c/zxx2sZKGLoM4VcHyDEHoSUwF3EZiTTJ1MVIFR6EJBljMH//M//KCA544wzlEYAAnQye7z11ltVeS9btkzppi8wNPxG3xidzDC/+93vKh8wssxI6RNmt/CQmSPtxCDRv8xm77//fjUS0EFbmW0CROg3fuMPo0VZAAMMPH8ANf4on3cxPtTDb8y4f/zjH8unP/1pNVgvvPCC8h4jBx30MW1jhgwtAAQMlMkaRoznMFx33XWXthcwgTwhG0mPzkQuMUA3bTf5RjbgO+2k3dB67733qtHGgL/1rW9VOulL+pV+AMghs/ABQAHQoh2ACfoMwHD99dfLM888UxpDyCJ/8IG6eZ6xhRzAi1deflnuuvtufQ8PAn3GBeijHsDIRRddVJJ3+hDw/cQTTyiQMNCI54A+pG76BF4zPrkHsKkGysrjodkYhHFKtbw+XmLo8fNZjEm7j9vL7Bqb5HkQ9u8SQ7FQlCefekrdYsuXLZOVq1fp+dZV46Fa6HqN/o+KqgAY1Hv3DMWlpAMEBtdRS4+UWbNwj7ZQYTOvtLrEQAxCJl5iiF3oGF2UMzMlLpQvigHlzEwW5YcBZoaKQuMP440yx1ijJFGa3ONdjDxKDMWCQkJJMVNH0WEgvvOd76ghQalhsFBwF198sSph/t70pjepQYLvDz/8sNZDnaeecopsePxxNWDM6gEUGHhAANfb3vY2BQIYyx/96Efy0Y9+VObNnSu7du/Wumkjv73nPe/R2RsGjZmv0cXMG8Vt31HCyBe0oHxpG3RUrtH6HoTaAMEFKbpdDOIFKUIzbbntttvU+DMTREEDELhQ6PAFgIRS53cAwM9+9jOlFWCEEcUljaGHpx/+8IeVT4AFPAk8YwAN4wHowiOE4cGYHXvssVoXZcAj+MrfunXrVPbhBeWaccTA24yefuYd+umzn/2s/Pa3v1XjBO/OPvtsLXv3rl3CkgiGEjoAJ/ATQIJRxbPALB2g9rrXv15uuukmrQs5Mg8T9NJnACjeq4hTmKAlBvOk0UfII0tW23fs0L6x+gECP/zhD+UTn/iEyrmNGwABQJs20Q/0LfwFdNNmgBP9deqppyqIuPnmm0seBfqOsQMI4X2WEQAIGG14T/9TFv0Dv+Ex444+AjAzlqELDwLySnl4BhjXyDn9jxeJfgIkUh5yAQCEFuQPmYdOi22orp7KAKGxJYaxp1o+IPIg6FkMnXhYU1Zy2S7J5brkoM2kWCxGKtDXXH217NqzWy44/4KSwhplnIniZ81082YZwKDFa7ZpAk/w3tRpU2XJEUdINpeVkfyI3HvvWrn88u/J1KnTVUFVJkrRHG460Lk+8P73y0knnzBqhtOM7W/o2VaXGPwYhDgKGkXGLMlmRNTPzOW+++5TxYQiQlGjXFBCuDP5jIIzxclzI/m8DA0Pq9F9wxveUHL58y5KhpnN97//fVWQKFMUIDPN3/3ud3LOOeeodwBjz4ySWTyGGSOBQjPDQD28b25s6AGkoNTe/va3KwAB0OCqffOb3yyzZ82SlzZuVBBDO/h71ateJTnW8+fOLc32UM7MoKCD95llQzduWkABipnvKFWUbnkdeuxLDBgbPAQPP/SQnHb66dpujAyGlz5htoc7ziKKAAAgAElEQVQxgn/mQeD7lVdeqQYX5U+7eMdc0vQd9PL37ne/u7Q2Tj/TZxaPAD8xKLSJC37jScKjgyHCAMEbaIEXzPjpCz8uAVrgB3QABpk1A8YwXCwx0AbGKiCA/qYv6F/6EL4yY8VI/eLnP5eTTj5Z20ibkSPKpSz6mT62ZQnq8r0ItsRQ2DS+QYrQDngDAME3wAmyDL0mo4Dof/u3f5O///u/V+ACb+E/fENeaOPll1+uRpz3MNwAUdqAIaYcDDOeNOSXdvMO/QIoYlyYd4+6GVsAD3gDePj617+uxp8+ZGwADgCUyAZeOgP1eKXg/1VXXaXlAwABn/AW8Akogx7aSB/zx7v1PQjlJYbhnVtlZ91tjuMTg6Cpljt0iQGbkI8zKRYnZ6pl8yDEEdsTPWNOsZr5/IgK/C9+8UtZuHCBXHjhRTpjzGSJgvZewJjm8/LNb35LXelT+qe4POyJC8W1Z+8eWbDgEPnyl74k/VP61XD+4fd/kF9dfbW87W3nyZIjlkgmsa0TsLJ+w3q58w93ykUXXSCnnXaqgosJvVr1ICQAAsoMJYMC8iO1Ub7MWDCazDJQ2tyzmQezRxQmrlYUGzMXZvAoPYwdyoVZosUjAMruvuce+cpXvqKuWMrDaGDY6EMUHooRzwDKivgBDCXPoLj4DcUFWACMoVABE9CBUQNU4IVAgeLJYInhL/7iL5RGDBsGDUXOHzNqlB51QQdKEne41YtRxBih7AELtIm2mBG05RLXv417EEYyLkixnAfBlQBtGKAbb7hBnn7mGVX08A9DQvvgEbIJEAIAAHygj5k1BoWlBr7jJWAGy/MYLN55//vfrzNB+pK+w1tDf7MsQT0ABPoe/mPokXeMMLNa+AHv8AQQ0wCdGCKWHjBEABtkhnosngPgyHf69Hvf+5586lOfUrkxrwU0ABQAH1y0ByNMkB+GGNmAVuoCrLGMhKEFRDADp98skj/Ng1DYfKuMjNs2x0hpe/TRx0rLH+9617uUb7/85S+VFmQeHv3rv/6r/OM//qPKDO2HNxhoZBNPGWCONiN/yC99wjOAAOQavjGWfvrTnyqYA8TyPr9THn3EH/LMkgSgD5kHPFA3/U9/MSaoE7CIfMAzABuAACCCvFAuMkw7KBvvEOPm17/+dQnc+zEI9Xc0NOtBGKddDB2/xJCTLYNZke6wzbE96+4pFnfPnr06WO+/j/W2i+XU006Rri62GlU+PDSUly9/6f/VAXbJJZdIb19v0hGgIOLee+/R2efXvvpVmTZtit679dbb5Gtf+3eZN2++Dt7ki3gntm3dJsVCQT71qU/KGWeeLrl2AYRm8iAkdzHEkeMYAGZ7KCBmDBhmZp4oNBQI7muUErxD8XMfhcIsCWDAZwwLSggjxcU7KCgMFrNRXLPf/Na3SsGJlIfywwCwxn3eeefpTAblj4HgX2ZBGA6MNHXgucC4oIQxoLwHkLAAOMqAdtqB0sQ4YcBYpgAEQAs0obDxfgAOUKS/+MUvtC4+Y5BR+ASW0XaME4oYVzmXKcuy0mwcIFTLg2Bb2OAnsocRBpRglJE3wBE0AdRoH0GMGGnaCd9/8IMfqGGFdpYM6BNmqHhoeId+YSaLAYFXgBH4Dj8BXxgsAIPtaoD3S5ceJYcddrjWi2udcjCI8BsDZDEFtusDEICxP/PMM7WvkBNACi5q2gJ/4TdeEGa4GETAAvVCN31Emcgd/QPttBGQBCjEYGLIzGvg7zShX4reEsN45kEA2KIDAEQsjQHOWGqjPQRhAhCg5Wtf+1oJIBgf4TFgjf5lfLG0hbGG5/AYWaZPKIN36G90GWOQengPXtF2ABiySF/xG7Jswbh45ehvDD7yDbBibPE8YwKQj6wQGwEopi+hgzFoSyX0C0tE/A6f+Ze+ADjW2j3itGzZg9DYEoPlQSDVcutBip19WJPtYujEPAhtXWJAOIr7BSAQIwCCvvKKK+XKK38qF198ibz73e+SmTOni/iz/EhkaHhEvvT/fFlmz54lH/vYx6S/32Wy86+hoWG56eab5Sc//Yn821f+tQQQbr/9Dvnudy+XNavXyPxDKtc+7f2oGKnSO/30U2XhonKU84R5EdSDMCIbHl4rfWxznN8tXVUSVlXd5hjHIKAkMBooLpQzs36UAu3BsDKjxgCh8FD8uEqZ7aD8UPoochQSz5miQvkxm0Hx4yblOXM9Y2guu+wyBQIYIJQiIMLczsYz6gO8mEcCw4mLlnvQjIHBqHOhtFG0GBYMJG5XjBOKFQX5VpTmvn0KKpiNokgxZLxD21GgtAfjC+2Ui2HE1Q0faD9K3LbllbdyegBhywNSHGYXQ608CCukZ+ZRkvViEJgtQzOuXwz4scccI6eedprK9tT+flm1erXs3LWr5Clgdg9QwHBy8W9/X58cdvjhakD4DX5zYWAxvLwD/6iLmTqzSEAPHgXbjkj7MEoW/U4sCLyGLxYfQt8DWuA/ddHnzFLNg4CnhXs33HCDzro/8pGP6LsAOsADRghjxKyZ36mPPsAQ4okCcABonnziCd2pgbeDWTcGkeUNZOeE449Xnvhb8Qwg4EEY7zwI8BH62KkAAEbWLO7GYgG++tWvVgAE2gXd8AEQRFs/9KEPKTDFQFMefON9AKgt6QFWGXsYc8AfvEfWGF/IKXy3gEQz6gDLd77zncpj+hPvBMAYXiPPjGG8T5deeqmCOIAI9ADMGM/wmLIYrwAX+M/YQIaQGeSpthchPjk0yktjSwzjk2r5QAAIWwczUuxZNBkTJbHEMKRBfG5qNWGmsGrBGL6NL70kP/rRFXLXXXfL0qXL5LL3vVcNmPMgGLJlP3VevvSlL8ucObPl4x//qNt7nbEjcV0VAIQbb7xZrvzJlR5AGJY77rhTbrj+BrngwgsEIIDSxWtQuuLPzGxPOOE4rWPC+TFOSwy0AeWAIf/Nb36jCgVFhIFEiTN7R9GhsFD0KBsUPUoEA2ZbBFEszCxRJLg7UTCbN21SEDBr9mxVcig8djCgDD/4wQ+qgsfIXH311dofuP553t9ChrHCAE6fNk1pY+cKytKACwYJgEL9/BHoZ0sef/u3f6tKD2DCWjiGEeP1vve9TxUkhhNXLZ4RPB6AD2SHnRMYAOqhTdAJP2gDsznADIrdzWZ9D8L9UhzaXRUguCWGldI/c8moIEUUOLSj7Jmlo7wBCyhvaIEPtJlZHWvHGCq8BRgC6F20cKG8/g1vUND0q1/9SkEexhRDxL+f//zn1a0M+KGd8AIAgBFhhv/qM8/Uba70DTNP6sRwIxfIO3zAOEEbhhp66TNc4pSDLGA4D5k/X7f3QQeG8HOf+5zK1VNPPqmGbaRQUKAJ6KJfAJTEjiAHzLK5zNNhhtkAAsaNHUvHARBWraoACLqLgUyKW8YbILjsjj5AAGAip7QZftIveBf+z//5P6XgSWQH4IvnAf7yLwCY9+ApAAJ9gRzBAwAQfMEbxPOMN4w38gu/eQ/ZpQ+QefPMQAPbHBkbqLwf/PCH6okDlPM+dQIGAZDvvewyBQj0OcCP/rUlIfhPP+Gtwttk21U1l0jFqZdp6rjZJYax72LYNLBJnu/oJQY8CCwxZEQ6LpNi2z0IbO2rlY5mYsADg4zZ/e/v+L0sWLBIDRuDF0M+deqU0QDhy1+SuXPmyMc+/mHp7yfrmB17nA4Qpk6bogrgtttul1tvuU3OPfdcefHFF1TBsr3SvzBqy5Yvl7e+9Rw5dPHC9gGEMS4x2Hop69gYAmYiGEuUN+5JZrYoLj6j2FDWuhd/2jQ1aMx2MAZsv6IseIPBwKBSJgYHdz3PY4hZ60d5YrAxvPxuhvHjH/+4Kih4juHT/eQDA2o4bK0WQ4lh518AC+CAGRiKDuBCefyOov3iF7+oZWPEUKgWiY8CxvhihIn2R44wsoAGjBWzPNqCUUAp23ILfcxMmboAI+4a+xIDpUADvINegtDgHwAAVy9KHpoI5gR84Q3AsKDQ4RP9Bc8t2I+2sUsEGjEOzErhBfyEP4A+7mNU8M7ALwwUF33ErHXN6tVybtzneBjgBX1I3XhkkBV4ihFkXMA/6GTGiUHBaBKDYLsaAKHQB230L+5tjBRA0gAC7bHvZpSoC88WoMhiECxplz+rxYOwb3hQCFIc1yUGtlPn8wp22BnzqpNPlrecc47KBAaYdXv4gxH/5Cc/qTyCLosDAUzCb36Ht4wTtobCC3jIc8gj3hz6Bp7RT286+2yt89nnntPfAE3IBoacfjMDzrggrof+Bwji8SJQlLLp2/e+971KH7JNwKIBBMY1/WY5HQyoW4Ax/zZ+tZIHIS87o0XxaY7TNLNrMzu/2MXQ8UGKhawChGhyBimSFtTyIOBBaC9AUO/Bxo3ykyuvlK6uHjnvvPPlhhtvUNf3Oy69VJavWC65XOzWiDIaXf+lL/kAAQBR6fpIehDYzbB79x5VUAzyd7zjnbo0gfEon4ZoZkJ0nR0FMXv2TFXOKvAT5VkZpyUGizBHMWH4+HvkkYd1pnLKKafK8NCQiyN4zWs0YQ4zGgACMxeMAjMVW9dnVoeLk39RgihEdgOwnMA9+AZA4F3zIGDgAB14FlCKa44+WhUjig8DhDsUpYeBQQmiTAENKD3bT47yRWHb/m2LQcCDgJIE7BCsR7kYfNzegB3eR4HCA4wxBgvA4HaquOyFeCOY6bFeD/0qMYkI2IYTJWXdNkeOe06exQAfoA+DA5ABiNBu+ItnBcNpwYgYV2jAOAMcoB0e0E/0H8CJYDpmnQABDO8XvvAFlUmMGrymbzAQGBUAgl26IyGXU/B01NKlShPAm7EGSKBPAGfQwEyV3A3veMc7tE/uvusu+eSnPqXgBQNE5D4AAbqpGwCBzNBWPCDw2xIJIS/QCWgkRsgi5wk4xU2PYT42jkFIc3cDEDjuebxTLUMrYIflH9oFnfQNwBTwBv3IhcXOQDe8o514vl7/utfJDXEMBc/hrkceATsYceSc2f1ZZ5+tfcp2SOQS3gLMkU2LjbFdQ4AFYgNsuzExCIAsgJMF2/Ku1cN4gy48ZxMHEEiq0uhZDOMTpPj8hvtkzaKi9HZoHoR8IRMDhEM7bokhm+3WtAATuM1x/y0xmPv3uuuu14H4tredK2ee+Rp55umndRsdwTrnnXeuzJzFHnfzDgzpEoPzIMRLDAnrPQogTHVZx5jBPvjgA7Jw4SK59bbbJD88rAbLgunY0sLFzgjc8u961zs1wEsz4k4oQIhPc2w11bKIzo6YuaLoUUQoJv7FhYxxQWHjAcAAY7DgBwCB31BCGH76AIWF+53yUEgoKmaTKDvexQOBkmIWZh4ES7ELGKFsDAZeAIwCngmUMMoZo2fBUqaQuQ9ow93KWinKFYWNSxTF+I1vfEMACBh4jBwuW0ABM1hmUhhR6AA4GECw/AGWehaAYEGKAIT0a+xLDOZBwPWL/GLoocFSFNvuBXiLIYIX9BNGC+MNeEDmcf/DS/bk41XhwqDx+W/+5m+0X+A/ho4lCPoNo8LvtrTD2DLvDXUw86RvmLFaxj/6x4Ik4S1bVjE8BJTSz9ALMIQ2lhjwYNA2gBYywwUIs8yNGDfovPa3v5Xevj41dnY+AHXRB3gQWP6p5u6eqCUGaASkMsMG4MAf2oz80B+284PPXPCW3TTIJ/fgK7oCGWYsMX4APPAYQ0/AL3IL8KUuxhX/0lfco2+QWZeHZY9OdOCNbuGdPbsEuJFjeEtfwSeLz6AsloegnzEAQGF5ifJYSoAu2sC7jBX6BZoMJDfmRWh2icG2OXJY0xqZNr15D0LnLzG4457dLoZOi0Fo6xIDAVltyh5ITUV34Mm6++7TteujjjxKLrn0Upk7d54MDw3L1ddcrdsNzz3vXDnjjNOkv69fQYJ5EBhUuLLNOJkPQQ/XGB6SG2+8Ra78CUGKX5EpU6fq4ELBceG2ZaChMNatXSdnnnmGnHDCiToD2ze0T0EB6U9Rpk7hErw5QSfxjWMeBMvZjuKxpCgoJVyalvQIY4wSQXkwU0dBYoxRMETeY9w1o2V3dym7IrNzDJ3GIcyapcqV5D64Uln7NyWGsmQGiqcGBYmxsUh93jFDyUyZZzCCll4Yg2kJmWwXA654Zmd/9Vd/pUYQhYxrl3f4o42WAdA8CBgw2kykuQEEaLLUtyjT+gChXqKkXpkyd6X0zhqdatm2m1In9WMgkCOMB14bvCLwDX7AH/oFei0tMQodPvMs8ujicDI628fIwk/6GePAb/CAugBT9Kt/RgKfqRvgZXkTLHkTZUIH7wAeqJ/yqJ/yLUgUvh29Zo0a9gcfekhZRx+YgWcM00eUR+wCYA0ARxuQL56jrXYOAqCIuJdqAGGighThhZ2LYSDKzxtiOxa0gZzjEY8h5My/eI4/SzdN2xg/9AOeR5vJcN9AGs8bH+xwJfNgOQ+lO4uBCznhPforeY6CL/eMFetTGzu8b3RRJvfrxx34rWt2iWF8EiV1+hLDcMcmSspIG05zbH8mRQYAygkjctVVv5De3j553/suk6VHHeW2aImoQrn8u5fLloEBueSSi+X4445XMMBWJZYYEP7LLnuv9PfbEoOb5PMungEU22+vvVa++m9f1fc2PL5BXbnHHnOsnPPWc+Spp/6oMx2WH84/73wdmMyWMEREumNI3LYgwIEfBDnOroRxDFJMGj6UBQYUI8Asxg7ewQjg8oYv5m7nXVyfuJ9NkdIXzKQABYAGeIvCoVzWlLlQ+H4CFmY61IPRQGkyi/YDFnkHeqDLr9sd8ueUL0aNraaPP/GE1m9JlJAZ6rP3+JeZHPVZzn/khvKZ1WkSpFjWBrZuVXpsRj4aJDQTg1D9sCYzDCaLuoxlpxoyq697dHLtuZ4f+Jl00Zf46R1BbIbP6LDS/ft+jbbt0NqRNI5+OVYG8sBlRtCeMePk91eJF9Vg2gRmUvTb7lef5E2SNF9OK2TWO63Sykgrq2JJC+CQcnR2xTO1RaChX5WOeEw19IJDRu7RhpcYxilIccN9srqDlxiGizkZIAah4zwIbQMIHNbUPg8CsyrWkH99DWuV/XLppe+Q1WtWxecwuGhjiTLy9NPPaLDP7j271V150oknqTH68pe/LHfedad6HTAC/qA1FG2R+N/+9re1XGbRBEIy09So7Z/9VGdkZ55xprrrLM88gWIYqA9+6INy0oknSk9vTr0H7mAkHXGNj7dGnpxAgNBQ9Q2cVV9NYaatITdSZ61nSoqyaeU25pq9w5pq72IoZPqlf94K6U+kWk6joJ7xGSvV1ep07CvLajU6xtswjbU9E3kWw1hpO/jfb/Y0x9iDELHEcGxLSwyaarnjdzHESwyTdxdDe09zxF16zTW/1jVOInUJBmLd32FrQ7EZKRSL8vQfn5afXXWVzJgxUy65+O0ya9Zsza730saX5PjjjpOent5RgZUjIwV59plnZNPmzfKP//t/a/KV226/XV56aaNceskl8sSTT8qVV17hDvyZOau0xkgdeA1wA7MW/JZz3iRz5850M9vETolxUxbjFKQ4bvRM2oKa8SC4JYaeWZV5ECYt68ax4RN5muM4knmQFtXsEsPYYxA6fxcD2xwzsnUwO4nzIBSG43MN2hODgGEeHNypLsmZM2fEEZiJ3RMcsBSfMYA7mndwN+Mx2LJ5i3oF5sxx6ZiTk3riG3bu3K2nGy4+dKHmeNixg/XZSObMnqNxBtu3u33pPd1k/OtR97OtB+KOLhTyMncuB62wDW4CtzHsZw/CQarpWmhWMwDB5UHonblk1C6GFioOr3gcaM2DwKmm4RofDqB48+IyKd4rucJQyXc62pM4doDQ+UGKfibFBbJsVTjueXzkbLxLMfxgi7v2b816WBZg81r5ZY1w0HcThzzoTXd0crE4onEH7pwHe26CVFALAKFvzvHSmziLYbzZPfnKQ0oiGdm3RfZtjZcYdNmt8kKSKk9zJA+Hu1rdIFxPlOv9fjD1FSmRh4YHZaRuHoRe6Zm1XHpmLJVMFoBg49MPJk4LLLZ7ab3lczrJ9XrlN9L7yTKSSq1aT6bRldRHyXb7ZdVqF89VtjUqjkhh9zYZ3LZOsoXhOgAhLztloSxacrRM4yj4VvMgLIo6dpujC1IkDwK7GDoJIBzEuxgmXKnp2EsMIt2JYEsY3iFMlvsB0MA2YE2x68cdpJQ1jg0YHsrLhgYSJRWV9KL0zT1eemavUEAzKg6gmn6stwmjkfd83VpPP9XTp43yL42uejbAL7vRdsXvFPYNyN5t90thaKdkLbuoP8OlBzK90j97mfTMOFyiTBkguOCZ5q966rv5EsfpjXoyM07VVHYXuw12SWHzHyQq7IuToKVUxP7vaQula8oi50XUqzx7cKTHDdCgTeJVMV98jp9LyLNmRbFn1dR5/cnEOgMQscRqTfRaiY+JQeHTFeugCpKMfI+uSmOujSq3p4IHDQAEnSRFErGEqk0tuDZGI1Lcu0v2DD4p2WKhqneGuLVtO4ZjgEAMQmsA4YUN62R1h57mCH+GixnZsgOA0Hl5ENq3iyEl7/wEjP/2FVltglBSGp5OSaXKR/cTS7YChEfWSl/EWQw9Vc9icKqpKL0zV0n3dE7tw+MRK53kxKie/krzxFSbqtaawNSakNViW9pkqpEJVqPt8u1Fo93HceLDr8i+HeulMLyrKkCIMt3S3TdXcn0zJZPrLmPOFgFCo+RNhueKmUiKI3tFBp/VwOk4Fn9009ntlO2RKNtXMuQRgLnCX4hPyBm/SC0gxq+oBlHFQ3cUxJ8zeBpzMUDgvgMDTryz7MuuAAj2O+X4z/K0D1Nc+dyjrLgupRFaXObaKALo+35O7sU+Eb3vPevRVVmXY5EBo2S9ruZyu/Qb9UIX/ND6YoBAKYURiYp7lZ/JuYB1hgMI5kFo7bCmzl9iiPMg7MiKTM6zGPxMiu2JQZgMiq7hNjaRB8EBhEhyPbMk1zW9tF3KKcDYXxJ/rjp/SPyenCSOsr+UG8eDOKXKDDqOykh8VhpS6q/Gi1q2XunyiKsoN75f8X69dvm/p82MjfjikBSGXtFlpooZpNcI54fK6MzVLUPFyl1/aM2L0LC8HMQPKvuykRpO5+xz5r6qgUrwwvKittIDPl4uG9ryslE17DyW7qgm/9XweCvtStMDjdbrpLz6RWzXth0jslN3MbDE0HyipM4PUnQAYWAHpzl2WqKktmxz9ABCm9Msj2VwHTTvlgACpzkO1D7N0Zsj+J7O8ZxU13Ms1FMu1RwDvj8m+blZx4H1fT1aqoEk//0KYxDLf6aEtmoox/gn562eCPNx0Eh4kw1x0uE46nY21TJSTRYeHh9HDhDkvW1HQXZGHPfcWiZF3ebYwUsMyJ8ChMHsZM2DYACBwLxxlJ5QVGMc8IMU6ywxuAJtOh+bWe2zeibW/70eWfXmL42Y5XqQJY2GavXWms8l293s3K9KnephCIOhnqRM9O9pjp6JrjOU3zgHSh4EWSCLlrDE0LwHQZcYSJS0uCi93V5cWONkTOiTyGA5k+LCjjuLoQ0xCACE9uZBmNAePdAKr1hi2FwzBuFAa1qgN3AgcODg5YADCAQpAhBaD1Ls7FTLBhBsF8OxHTR5aOsSQ5xzPEyc2juim/YgtJe8UFvgQOBA4EAaB8YjSLG0xNCx2xx9gIAHoZO2ObYVILQv1XIYbh4HAkAI4hA4EDhwAHLAeRDycZBia0sMB0QMQsfmQQgA4QAcNk2SHJYYmmRYeDxwIHCgEzjgghRtF8PBG6SYL+VBWDwZPQjtP82xE4S7Y2gIHoSO6YpASOBA4EDjHCgDBHYxtL7NUXcxdOwSQyQOINg2x7DE0LiEhCfHzoEYIKx/ZK30l3YxFOPMZon0vXHQvb+zLnWXXa3gfij2w8NTcwKkb4ywukp5EfwcCX7sSrXya903TqbQbvVVbXed9pb2KrRIV6v1pjWpWjNTt4Fa7gY/O7j3YL39JGm5I7T+OnwovdfM3lQrt0Y/VuSirtbPCZmqkDXLg9piPyppNWSlqlz7CQjS3rc2V6GrXj/4/B41nq2Tq9Fdj9/12luD3xVykmyjbqYqylb1IDiAMH36jJZSLXf8NkddYgh5ENzwC0GKYzf6zZQQA4RHH1or/Zktcui8bsllRLIuyZomJUqOTW4V4meS+j6t6noYwH/HnvVtQ/J3lxqobGcq9GKscKrRVReb1HifdpMsin994+jX1WyOhXobJa0uTQ4VF57Whmb45ev0NH77bbR6/bYn30+zT2YLk/3k20jfpvvDXutKaW8jdrme/JXa64PdhN325cs+G93Gm2Sf18PEtWy40ZSUr2RdSblPGzdpcp/sO7/PS/LlyXW1Nvp9Wg+n+LQlgaQvP9RVczxXxVQghEi2DrKL4RBZvORYmTGjVYDQydscLVFSTqKOO+45xCA0Y2oP2GeHh/PyyMP3S2HXSzJzWk634JOsxwcIyYkEChwQ4bL4jT6qZvTkr6zeK/PTufvVZ6N+qhp71tLC+mllHftL2RTj3qg7y01MaGu3y0uN6x2OVOZN+u/pguG3u9pn96bN6hxAaJTf5VpLs8I4O2Q9gJEOuPyc+ZXgzDcclUZkdN9VNxw+76yu0f3s86N0rEl87oGdXlCtzyuATQ2A4MtnPfmp1p5yXWntstyXKXJfosv62fXG6P9Wevf4PQ3YJA356HGZPF1htAyn88CNeldebdhd+b4vv+U2OiDpDrX3aawGUI0fu/YWJdO/QI5ctkamcxYD5zo0Mcl0eRA6eYkhbHMMeRD2M7QYGSnIpk2bZPfgy5LLQQw54d2wdodOOlVQBgLpg9wpMpd5rvK/vmpOUyiVarYyn325LDOX5d99ukxV+Wqr/HsMH2omdRpNve8RriwrraW+uvRMewKqVJ9rjm53Ld5Xmgzjd1q9cU+WwUZFTn5rV7P97Pd2Zc8b19KAoN8P6e01g5VOl6MyCTwqB1BZ/nxZSzeNZbmulEYX0yoAACAASURBVJ/KcwtGS7Rv9KqvG6QP7PK79dtYywSXczwm/UCV481vo2tl/XrjZN6JsxWM9/UUVqWMp/Vz+YnqtIwGHl674pTixaJI/9QZMu+Q+dLX26M5ApoBCJ2fahmAkJGtg1kpTu5UyyEPQr1hN1G/E+yTzxMsSv7/OItfxXHUFXOvhMGbKKoqQUNrWekr1fj4U9pq+a2+10o/1Ksr7fdG5s313ksDha32QD2fQKvl1uNnPd6l1dvKO85oJyJ+xtqoxPutlt/qe2Mlv7F6ATy5XFa6u7oky6maTXgPoNBtc+zkJYaQSVFGRoYligJAGOuQCu8HDow/BybaOI8/xaHEwIFGOcASw3OPr5M1CyPp7enEVMuR5AtZ2RKCFEOipEaFOjwXOBA4EDgQODB2DrxEDMLj6+Rotjl25FkMAIRMDBDIgzDpUi2PyEgBDwIAIVyBA4EDgQOBA4ED7eFACSB0sAeBw5rwIMjkjkEolPdxtUc2Qi2BA4EDgQOBA5OYA51/FoNbYiAPQicGKWaz3dKVI/5Do9sbujIRUW8NXoWCHfccexBss3eD74fHAgcCBwIHAgcCB1rhwGaCFNffJ6sWF6WnQ2MQhotZt4uhe9EkXWLQIEVSZoRESa0IeXgncCBwIHAgcKB5DgAQyIOwqmNTLXfyLoas5LJdkpt4D0I+3sUQAELzIh7eCBwIHAgcCBxohQMsMbCLoXODFEMehHibY9jF0IqAh3cCBwIHAgcCB1rjAEGKAIRjOnYXg/MgbBnMTNYgxXCaY2uiHd4KHAgcCBwIHBgLB0oehI7exZCTgcFMfBZDJ53m2NYlBvMgNBzfOBa5CO8GDgQOBA4EDkxyDmgMwvp1snpx1LFBii4PAgDh0MkcpGi7GCa5xIbmBw4EDgQOBA60hQNuF8M6WdXBAKGcB2GhLFvVSR6EtpzmGJYY2jISQiWBA4EDgQOBAxUc0MOaOjzVMgCBPAhRxyVKausSA2cxhF0M+2X8uqPVQ6Kq/cL8UGngQODAWDnAMc+tXJ0fpBjpaY4OIEzmVMvFsMTQioCP9R1yWvG3b+8+GR4mHwUnpnpxIA45jLWa8H7gQOBA4MC4csAOnO3q6Za+/j7JZXN6kHUz2upAOIthuJiTLTtItcwSQyedxdA2D4KdxRA8COM6ghopLBLJ5/PyxBPrZfvAi9KTi/Q89fIg41MzQ66RSsMzgQOBA4EDrXMgwtssRckXRabNXShLjlohU6dMlYxkm9JWnZ9q2RIlEaQ4KTMp+qmWA0Bofci0+GYkMjScl8ceuld6RjbJojk9ksWDUIEJ7Isd/WseBv8+mTC50p5NAgz/ff84Yd9bkVZX8p7VV+tZnknzgtSry8rmuUaetXqq8aAVWmvxuxG6jO/JZ01W0tqV5JdPQy05qFZX2v3kvXq8MZoa6Yc0ehttbzPy5Y83o6teu2rJYi0eNCOLjYyF8aorSZcv+8nxMJZxXk1/FGX7zhHZk10oi486RqZPny6ZTHMAofNTLXdyJsW2BimGJYYWTfzYXosBwoaH18oUGZBD53U7gKCmPgYKkX6KjX9RPQzuRvl+RooOG8R+v8h9KZURmT8wtdzKupxqqXyfcsuwwujyaahRRtyeMg3OS6KXV65kIv4/Du1K0GVLNlqXVWx8TGuXe2Z0e+0+btTY6Mc8T3u23Ge0130zHmhJei+jFaXx2/rByYH/rGOdLx+jnzXeprW3bMRGy1KyXONPWZZcnyXlI0UWSnIUU1dDPsckX/E4cbyN6Sr1ufE2jV8Gp/1xNlrua8uCtyRYR76UklFjt0Y/Voz/BugqS0WK/qj2fgPjvDROK3kbSVG2bc/LrmiRLFxyjMyYMb1pZ+cmdjEcAKmWOzNRUlhiGJvxPUDeHhoalvWPrJV+GZDD5vZILlOUKJORDPEJsUJxutUGs1N6WX6P72cl/iwi2UikqMsUGB/KcP/qP3qXZ2Mjh3GirtgkWqwk9Wbiyo0WpyccXbFdc3WpbcC5iMoox1qWy419APF7psRL81E1kFpEarvMN2LtginahmS7SuU7665tiA1GKQY04wye6Wn9ZjxIa5c6TSPHz9iOFCv4FfMj5oHjd1lPOj77Jsb6IMZHyi/jp+tTyucpbW82IxmwXwbeen2ezUi2GMsHdVg/G+7yYFYJhChdxLw4Zpfky5MZnvD7EUq0vYpvHM/9uqyMEt6LjUkZAMbvJOQr7mylx5UfA6gK+Yr5UVW+Yhl1GCuWawdUDN6V6SrLrdndtH50Y4wx5PrcfY7HUyx3JguuY11dlT6yGPTF/C7JVww5eTZt3PBz1vhd4tdo3lTKl/HA0UC51oYSaDU9EstPRbtMvjwZdxi9YuSU+rzETxWIomzdUZBdhYWyeMnRLQGEAyEGIV/MaAyCW2KYdNscvSWGcJLjfoEUZYCwVT0IXQCEimCfWHl691QZlEABSt0Zapvbuc9l02RmsVKRmeGyYe/UqpXrza9KvgqfLlRSuV5TKDaXLc/cykwdXbspciu3tXZVGt1kmeVWmhlJTnQcYKItzi8wul2VvC0HYpVLNGNRNlau3T5fRvPbPeGUe+lZtTlujg4osHkxNPh9UzaDVkZlP5ahkAdGfMNTAhOuva7t1WXJ95K4diflK9kP9eWr3IbqMu4A4mi6jGe+fFXKZzw7j9vlc6cMtSs9RVamybUCtdLYqpTxyjGaBCi+KqmUe5Ov6vyuLl9OJqq1q5ocuH5oVMYrZLG0aJlogzKzKFu3j8ju4kJZdBADhOFiRgYCQCiEbXb7BR6IOICwrrTEkCstMZix8ZVY7c/+TK6sEJMGolxuuslqvt7yXGq0l9FXLdU+G+vt97IxSqc1+Xta/WlwpJrabrRen1/1aKwmTtVgUlrfpfGrHg8bqbdae2vxsRGeJ/uxmnyl9UOt8scqX7V43my9Pu+SY6xZ+Rovfo+lz5NyV40fft+6fmWJAYCwQBYdeYxMb2GJIeRBGIvRaUsMQghSHEsXjfldYhCG8rKBJYbMltiDMOZSQwGBA4EDgQMTygEAgvMgLJCFR7Yeg/Di+vtk1eJix6ZaHi5mZeuOrBQn5y6GkElxQkdRvcI1SNHFIEwRt8SAB6HWzKRekeH3wIHAgcCBiedAJFt3DMuuAgDh2JZiEHQXQxyk2NPDYk5nXXhTXCbFsM0xZFLcH7IZA4QNusSwRQ6d2y25zhsn+4Mzoc7AgcCBjuZAJNt25GWnAoTWPAilJYaOPu7ZMimGPAhNb1PpaPk9EIizbY6PrJWpUbzNkVDkcAUOBA7U5IA/SoLHbX8Iy9gBQuenWg55EGRkxDIphqR9bR9mvgchBgi5ABDa3g2tVqj7DwKea5V9Vd+rn9s/I1G2R6JcT2mHzbgTMQkLVKDFDpqoIMXCUEUmi9HsGB+AwGFNR3e0B8GWGCblaY4hSHG/6oE4SHH9o+RB2CKH6TbHWhSxr5w1CDKW7R/L5G+v26+8m4jKlaVsJEvfA6E/Z7KS7eoTyfVrP+gV91nYKTy2TtGtf9GIZIe2C5t9q17ZLsn2LZBs/wLHfhPKjNvOV0JtpaQBpcwfpSJdTohMnLTLEme4fi+fiWI5Ddz90tDUr7GM6KtleXG5NVwyjPKOAMs9Em84dIlGHC2lz+XNyEqXNsyny7YOx7TENFjEkp/ho5zIKrH11KfbVe5tqbZyCxKNDMq+wRclEw2bhKd0xdgBgkuUdJ+sXtTBQYp6WBMxCBzWNOnyIIQgxbGptDG+XQpSXCf9mQGNQeiqGaQYifTNklxudqzYnMoq6UcvA6Bnt0aZu+RWubRW+GU6VRKHqcTJhnx1Ve19/36F4o6VU9qaVioASdnb5+lnJc4lWkrfZunTMRp/xamj0MWFIckPb5VMkdnT6CfVgGV7pWfaoZKdskgyWWawo5MhjVEqJu3rRMYP53dJ9uUHJD+Sd5xNA8y5XumduVy6ph9VBmmjHoyNfcxNlStPuCryRHgAw7KRjsIZNfZDOuAYk9rovsmKgRsDgeS4aAaNpymBWvd8AOLTInkpDG2VnQMPSK4wNKEAofNTLUcyyfMgGEAIqZb3i1b2AIIGKc7rUYBQ7QLvd81aKt3TlktWp00honE8+6049LLs3b5eZHgw1S4pQMj1S++sZdIzY4lItk+ypRS/ZUuU7n9onlLfPjRjK5qvqUPeiIqyb2i7RJtvleE8s9cqAKGrX3pmrZSeGcti9wHcSTlJ0J+kp4DnScHTZrpW+TUsI3sGZMfAWumaYIDQ+Yc1cdwzSwyWSbGTTnMMeRCaEe0D89km8iDg9sSV2TvnGOmevUqyutTgFGO4xoEDUSSFoS2yb+tDEg1t17XY5MWdIgBh9lLpnbFEspl4maGcW9hzjJezIPol1TP61X6v917SS5Kkvpn3q3GzmTIaNb4VzxWLMjS0XQqbb9ZTTqsBhKhrivTMXiG9M5bHAMGlHC75chJLPjbDt3aVMLgNHUN0tWb/yWcr3WPlYVjNPddMXRUzes8FwscUb1rS8VCxOtNsvTIs+d0DMjhwj+QKE7vEcECkWo4BQsiDYEnKx0HXhiIa5ECFB8HtYqiWB0EBghSld85x0jNnlWQy7vz1kqfQlEqDVYfHRpv/kX2bZd/WB6Q4tFMykZ0CUX6uDBCWxwChz51qUQEQ4rXcRGrsut7eKrq/ns2q59EuGUVvBl3NeDdKY5r9SnKzFYAQRUUZHt4hIy/eKIXCSNUlBgBC9+wV0hcDBIXJnifHzibznXGle0Hwa3MgGpaR3XgQAkBgbJEoaWDHpM2DwBJDXqKIJYZw3HPbdYe3i4HDmjQGocouBgBCEYAw93jpm71SMpIrL3z6ViKeZSh0qFiuCJ6G6v0L9IqksA8Pwv1SGNol2SoAQZcYZrslhkymT4i497Pnu67w7zUmVVHssfAj+NPuWWm1fmusxvpPWR3aohIIqmNfVP5igSwdbFW/Lp4oRgUZzg/KyPM3SqFYHSBI7EHombE85r8LMNAzJ/1VCQuciatvpA1+m9OotjLSeFOPX7XKptzk78l7Sdmo970W16vyIjIPwr0THoOgSwyPr5PVHb2LIeRBiAFC0qA0NqjDU2PgQGmJYZ1MlS2yeF5X1URJJYAw5zjpw4PgA4QECWVc4B0VHBuuMVA76tV2GKlm6W2NpuYBQu90YhD6ywZqFKFlQFaPJn63Z7JZF1eSds8HB/xuSj5ptBoxhI3wtVgse1EUCDUAEny6/Xfq8aAZgJDpmiK9s1ZINwAhG/MZgODTF0Wyb98+GRkZkd6eXunq7qqgPw2I0d6BgQGZM2eO5HI5GRoakldeeUXmzZun73Z3d5fYtnfvXuFv+vTper9QKMjOnTuF/ps2bZq+n7ygJT88LN09PUrX4OCgzJw5s1Su36f2LnXwLGXW478Dq6LP7xsa0nK7uly74QXLNlOmTCndS5WBEkCYeA9C5wcpTvpMisGD0IiinLBnKvIguLMYqmVSLAOE46VvLgCBFdrRRqiS1tjd7dwJVZthSp1/UXD1FJEpe/+9NIXYaDk+YTZrsrKNnnqzL9+oWjt8g1rbwDUDEKY4D8L0IySTLXsQ6B+MBMoZxewbeowM1+zZs0v3fdp2796t706dOrVkWPL5YXnhhRdl8eLF0tfXV2IRbeNZjAt1zJgxQ/uL+3v27JHh4WE1WhgG44n2vmc8eRZjgUFMznqhnb7keYzTyy+/LIccckjpnvULNNj71GX1cY/28D7t4V/qoqze3l79qyYXzXgQAAjqQTCAUDrL1LFq3969ctddd8mOHTtkzZo1Mgfe53LKS2jw5XzXrl1qQAEEv/jFL+RNb3qTzJo1S9t+3XXXyZlnninbtm2T17zmNWqo4cFjjz0mDz30kJx91lkyb/58ffbuu+/WPn7Vq15VASas8/74xz/KU089Jccff7w8+eSTWsYpp5wiCxYs0HLpUy74Rh8iS48//rhs3rxZTjjhBNm6datAK/yEVvoaXvPsMcccI4sWLVLePvfcc/rekiVLFBDw9+KLLyrYoW5kxuRzlFJoO0BYJ6sWRx16FkMnJ0rKSi7bJblcl2Szo8FoNWWfier5yLw3nUKzRElhiWHCgEC1guNMipzFoEsM87o0D0KaKa8FEOhyFDMzGBQGFwoAZUgfo/xMKXMfhWLK2wzOpk2b9N1DDz1UFUrSaPuzVAzRnt27ZWasRJ999lk5+uij1UBRF4rKZi4+iPBnRdSFAvRnznPnzlXlbcZuw4YNWi5l0T4zwLyHwUFBolh5j3ahOFGi0HHYYYepUeMZZoX9/f1q6NKvJgBC1ltiUIDggFqhUJSNG1+SRx55RA4//HA58sgjlV4M1E033aQ8fd3rXqeGA16asYTuO+64Q7Zv366/F0ZGZNfu3bJ79y75znf+Wy644AI56qijtH3MZGkT7bnmmmu0rNWrV2tZ8OGFF15Qo3Psscdqe3t6evQd4wt842LW+sQTTyht8JX7PMu/p556qqxYsUJ5Tr9effXV8t73vlfp27hxoz4Pf20GzXsYp5UrVyqNPIdhpr3Lly/X+pg1P/Dgg0rrsmXLSsYpCRQaBQjEIPTOXiE90x1AiCNxSiCYPqcf4NGmTRtlxoyZyjfoPvvss+W1r32tjgGr//e//73ceeed+vu6devUiGLo4fstt9wil112mfAMvOGPi+/89qEPfUhB3GOPPqpg4vAjjlCAQH3IMcaYuuDXb3/7W+UrfUJ9jFd4DgA54ogj5K4775T8yIgcd9xxcvrpp6vs3nvvvdoP0Pzoo4/K888/ryABMEG99kefQTP9c/PNN8tLL70kxx17rKzfsEH7gbq2bNmi7bfxkgSODlG2L0ix01Mts+zOLoYtpTwIk24XQ/AgtB0U+BX6iZLq5EGoBxBQGrfeeqvcd999quwxHitQDLt26WwFhW0uYxTSGWecUVJizCwwBMxUUOIoNTPsgAwMgD9TZaaEonrrW98qDz74oBqEj3zkI6rITJEy40FJPv3003qPGRgXAASF/swzz8jgzp0lmngWZbt06VKtG8Dy7W9/W/78z/9c6b/99ttLAIF2oGhp04knnqjKlO8YvD/84Q+qDE866SRtD0qT91HKzADHChCKuSnSN2uZ9M44Il5icBEHhCy8sv0VNfbUBx+hB6UODzDKAAfzZJx22mlqSDDkGDKAzUUXXaTv3n///Wo4mHEuXLhQ+Qj9b3vb27QfbrvtNvnZz36mZcIr+gdeABzgK7zgOQwDs2cMH4aG35itAiAwhNADiGHGSX/RlyeffLIaEehkFvq9731P/vIv/1LLph1GF3yEx9RDOZRr79AH1I1MQjuAERmhbOoGSNgM3gcJzQCE7jkrpA+AUIpzcAmOMKrM7DHARhs00BZA0bnnnquz9r7Yi0D7X3zpJW0ffKK9l1xyibaHWfqPf/xj+cxnPqMyBV9XrSJAOKPyCPD76Ec/KvPnz5ebbrxRAcOcuXN1iYJ+YVzRx/wxLs17wLsABgw1IBh6Xv/612v5vEdfwucbbrhBZQEwfdZZZylwo30Y//Xr18uqlStl+YoVCvapEyCyaeNG+e211yrPKf/aa69V8EF90MN44Tl+x8NggLU0LtoIEA6EXQwhD4J6EOLscSGOrb14wTvNEQ/CYTXyINQDCMwoMDQYJWZAKHsUI38ABpQUSu6BBx7Q2fVb3vIWVdI8z4wDI44xQmmgqFDuzMKYdTODMgOAgvr+97+vLljK+N3vfqczkw9+8IP6zj333KMzTX4DDPAZZb127VotF3CCgsMworhQhDaLfuc736kzUcAEyvTyyy+XT37yk0o/gIHnMKAAkYsvvlg9JAAAFCFKGwN24403ahuYVfMsszGUKQaWGTpl8FulYmzcg6AAIWWJAZiAsYF2jJGrp0duuulm7QM8IbQZ5cyFUZk2daoa7ptvuUVnhAAAjD3Gm3Je/epXK3D44Q9/KJ/4xCcUdKDo6WcMAl4D+pP78IQ64R88p076nHYDqB5++GEFTxhpvBs//elP9VlzYzNDBdxQP8CPfsU48cd3+Ih3iPqRLS74ST0228ZTgVEDmFEehpB2QAM8AfzR5xhAyksuuTQDENSD4AcpCuvsQ8oPZurbtm7V2TyyQRsBR/QPsgE9AGSMJK53DDt0Mj7wwsAf+sqAFV4DviPztAs+/PKXv1TjTp8xngCC06dNk+NPOKFk4K+//nodN7QVug6ZP1+3ZdK/9AnlwD/4xnihXi5dospk5KGHH1ZgwfgCUEIfdLKcwRhibNIW5ACABygDPEILyyS0DfmCbjw7yBh9QFuQR8pkDFUsN7QxSFEBwoY41XJHnuZIoiR2MZAHodNSLbdtiYFdDLgewxJDe9GBY/nQcF42PEwmxc0ag1At1XK9GAQM/a9//WtVNhhhjAEKjtkFhp8ZCkYWLwPfmZGgNDCoKG+e5T5GCYOMUUcxobiYdZjrHyXzz//8z6pcmTkyM0ThMJtk9oMSw6jhSmZmhCHEYOB+BSC8+c1vVhpQWhgIlBgzI+jAEPEeSo768VRghFCc1ItSZbaLEodOyqMM+4xBQmmfc845atgAPVY/NEIv9fK8udFdnzcOEKJsv/TNXirdmiipX/NRqAchjg2wZRC+P/Xkk3LX3Xer4mYWSN0YbRSyGQaUOW2n/2g/BgzPAYb2fe97nwIujDsAgbZQLgCBvgMU2TIBfOR3DBIGkd8oi/oWLVyormb4bobx61//utLBs/QzNCIHzLDPO+88/Uy90Paud71L6Qe0ARDhP30BDykDo4PXAd5fddVVCjIALbQBftBPvIshRcaY2WNo+ewbp0YBggUpdsUxCLbEMDQ0rCARniEnVh/AFb4hA9BPuwCY0IiRZlzAT7xoyAbv8Tzvfec731GPAmMCcEdbMc6/+tWvlEfmbaEf4P28eXPl+OMdSACEUSfj0bwYAGU8E/CdOs14A5ww/iP5vKxes0YuvPBCpYExALh5+9vfrn0KOMATgozgjaHfoI16uIfHA56+4Q1vkCefeEKWLlumAAWwT7+98Y1vVHDJeAYcUGYSIAzvHpCdbdjmqKmW198nqxYXpbdDAUJeUy1npaiplifjEkMhL1ExbHNsOzhwdklQasQgTMlsrZsHQbc5zkkPUkTZXHnllWqwUbzM9FAezC6YZaC8MBDFQkGVxAknnqhGl5knChxFyUzK3MgoSQwtMw0/XoF3fvKTn6jiR1mheJi9MFOzC+OB4gM0UA4GiNkU9aBQ1RXLDHjqVHn2uefUoHAPA4nRwRWKsvvv//5v9SBAGwaQf6EXhUk5KF2MDQqQ33/0ox8pcEHJo4gBD7Sd2RufmT339vTIwkWLlL6yYmwcIBSzU6RvjgtSzOouBl3JlaGhvCrutWvvdbEBq1bJc88/r0AH5Q998BEDg2IGPEErhuI3v/mNurjpF4AdhofnmSHSj/CaZ5kVAqAwWpSJwcLYWAwK/KBN1I/Bgo/wgnIAS8wm8RrgYcLw8y+AEsMOgMSTxJIEs+JsNiMbNrglhk9/+tNaLp4JwB/LSxhawAYGBmBCnwNQqYN2YLSQFWQIcEHZyAN9TVkYNItTKclNg9scAQh9M1dI18zlIl4MAiAafgIOAQEnnXiiHLFkiQJOeI+c0l6MKEAVgADdV1xxhb6DbCF/GHfzukE3xhaZ43mMPXUwlvjtAx/4gI4x+IGBR+5YhkDWAByUBW/hAeOG8UDfwBvGD+PGAiCpEyBNzAfjjnrw6jCm4R19jZGnf5ELlpgY99RPXwDEeZa20o88By2MfUAT7QPw01+amjxOUV4R9dTGPAhuF0OHBykW422O3ZPyuOdwFsN+AQZWaWkXgwUpjs2DcPXVv1LFccopp6pCQMHYMgOzyS2bN8vcefNU+WA4UUwYImZQzLiYGdk6KEYJZYZBQ8Hwt3DBAilGkSpDX0myNGAxChgMlKIF1AEOmNlj+CgbzwWKzCKsqdcAAoYJA4bSxhh95Stf0fVfFB3K7dlnntEtYhhilPbQvn1yyIIFaihx+QJWoBdgRLuYdWGMbrn5Zo0019menreU3KnRDEDojwHCkopdDPnhEXnxpRfVMFE33gqMOXTDK9zy0En7MAQYm3lz5yo/MSQYKDw1zPjNgwPtAAlbrzcvDu5/AA6GzwIeTaToG/gMfwFFGDyMIoaHtXn6lFgMDA/GybwyyATeDIw7HgTKYGnmP/7jP/R5DDptwyhhkDBu9DPGzoAgrnMABPVSP88ZeAOQ0Da+W3uSO18a9SCQB4ElBt3m6MUguIOWIgWE/ME7+oHZvi0P0F5AD3JIH/C+zbyRHXivsr5wofT39cnPrrpK79GPxBvAT+qA94Dej33sYyWPA3xGNhmD1Mvv8AtggjcFbwCeC8YEYw0eMm4AC+94xzs04PC73/2ufPzjH9f3kGfKALTDO8YkXgPkCCCCLEE/3hn4iqeNPrAxhbwgD9BLXzLuAC7wgv6lLQb+S7EgbVxiwIPAEoPmQehID0LYxRDvYrAYhOrnAOxXQ3qwVt5SHoR0D4ItMaBECNrDIOMixeWP4jf3OrMQlA3rj8wqMVwoI4wZyoqZEp+Z3TNbeeqPf1QggRE///zzVVmicKgPA46iwrhwH+WLQuJ9Ag5RUDyHosNDgEFgFkykPQoYA0MdlM1sDIBgBg2l+C//8i9aFt4G4gmYiVEGxpQZEvf4jVkqxotZOMqX7/CBNjPDYrYHYAFUoAhRjrYV0SnGxgFC+hIDs7GMFIvOq4IhwEiYCxuewCcMJm2lfuiGZ8z4rr/+OhkZKahh5n0AG+2BZvhEn8FLAAQzX/qUWTwubIwPBtkuvAY2E8Z7gAEwY08f0O/MKukD6oLPPI83wQw6III+w7MB0HzPe96jz2KYAAvcw5vDbBrZAgDh/UFO4DU8xdgiS/QXNFEfBgwjyD36j76GB816EDSTYkqQos2ELXYCgAD/2LpIPAy0Q6sPEzClsgAAIABJREFUEOANYOJb3/qWehzuvuceBZgY4pUrVujuC5Z0MMAE4sID5ByAhfFGzikbeaKfMc70P/3LZ2SQ8cFnZACaAFvILt4WvDvwgTgH+EbcDQCBz5Rvnif6DaDN7J/xSv8DwpAzDD99gSzQN/QJOzAAHrpsMTKi44yxAKhg3OHFAjAbkPcBQruWGIhBeO7xdXJMRydKsuOeJ6sHoWDbHA9WK9zZ7WKJYcMja2Vq5JYYsvUyKVZZYsAQYzAwLChhlDKK3vZFo/BQVA8/9JAqNNaAt+/YobMn3J8oOIwAoAHlbVvrmBVZ8KJtf8T4MlP55je/qQaIWRFlQwMGgucuvfTSEpggYOx3cQyCLTEARmw/P0aT9zDs1Au4QTkCXj772c+qNwFFiTJmFoxixbVLW1G8GDCUM8bWIvFR0gAZDBmzNRQi7cYgoEhRyOX94I0DhGJuqgYp9pbyILglBpu9wnfoR4FjCAEsGBS+Y+Qt2BN+ASBoAwodQ8G6M8aa2TZKHaPAv7imAQYYF3M9syzALg/AgeVJsKWGmTNmyBlnnqlgxJL7MIMk6h4ggAHEWAA8uM+SBsYTo8YfyxnIEoYHQ/b5z39eo+EBYBhK2ghIwUABMJC3iy68UHYMDupztBdDhuG1BEIWVEf50ItLnH7AWLYCEHrmrJDexC4GAwjUixzg2cBbAfhccsQRcnK8/ZAdIMg/xhJ5QIaQP2gFRB1x+OE6Bk497TQ1sHhRPvWpTynooU/hKX2E5wfQBoiFZwAT+IGc0T5kkM8ANcYhQMWW3JBpnmdswT/6Fdn/wQ9+IH/6p3+q/MPAM86QCdrCEg40IkMAA4w7Y5bPyAfPABAAd9QPIDOZ4P7zzz0nZ7/pTaWgXj/nxehdDO3JpPgsAGFhJ3sQcrrNUTRIcdLFIIQ8CPsVPnjbHKdktmiq5VwLeRBoAwofNzvKGeWGYuFCAaPQ/exuGB6ewR3MGjmzCxQPigiFw4xGZ0qFgjz9zDNqqFhGsOUHlOY3vvENVWgkoLnn3nvVuHMfw8V2PYwQShEFRT0YDhQZ3g0u3JwYUuhEgaJ8LcIaJQtNGMZ/+Id/UOXNZ5QoRg+jZl4F6vnwhz+s9FMexpbZLMbM8hCYa9zc2yhzFHc5aU/jAAEPgku1zDbHvjhIsZz9kLYCsuAV3hLLyAfgoc3M9Gyro7naMTTwnSURrn/6p39SXpx/3nnqwYF3f/d3f6fAi3fpY3jwX//1XwoQ/LwVFiyJ0QKMUScgCWNEPQA+PEiAOYw8IIA/nsdwAyBYZoBu3OXMtgFpeBOgERc1YI2gVgwsAAIaoJ0yoZVyADuWCwC5wsWeXGIwPjQLEIhB6CGT4sz0JQbopP8NNFI+/cF9DDT9v2b1auUNy03ILCABMMZyBGMFI4ysAjSQH2SM9sFr2s5zGFjahFwCBJF/ZIxxQd3ILPIJ+KJffv7znyuoApgCYiiDcYhnjHe4fvD978sn/vRPHQjYs0c9GiwhUA9jBUACXwHDACxkGNDMuOA74BmAwJiyJQjqRiYrYxCqbFlr8xLDcxvWyZqOXWKIJF/Kg4AH4bjS4WD71W5o5W3bxRASJe23zq7Ig+AAQquJklB+RJBbMhpmQig0ZviWMIkZJIrm7Rdd5Nafo0hnkRYEeP1118mhhx2mOwdQYhgTZpIYYxQ+CpFlC2ZCGAYi63PZrFzz61/rzIt68Byg8Gy9HKWJccIlC1BhZvOa17xawcItt9yqipJ7uNcxWACTOXNmq9H6ylf+Vb7whS9o2ShpQApKDoWIQUIRUj7R/oABwA6GE08D7UYxorh5nxkZ6852VSbpaRwgcJpjZR4EO3cho7xh1sjsEoUPaKJeDA+00TbLD2GxENCI4d7+yity0dvfXnI/EzeBceBdyqHtGCdABW1l1k+wne0UoV2URZ/BFwwU0fcWoAhdgEUMGEaLvgRowEtAlbmb6TfzrGA4cXkDEIhh4Ddmqbi6qYt3eBcZAhQy4zWAwHcNAo0iBZkABMAF7besi8lx12gMgh+k6GdSLBYjpYGlDeQAWaH9GGhAzPPPPyf33rtWgQKGGSPKfdrGO/AXOYVHACaWRZBJ+pJlH2SKZSpm7owtxhBggvZYZkrbxQPAZYsiz+Otoh8BCAAUllWIYbDlIwAHfcz4gJY/+7M/i+l9vrScA9/hLXyn7wBA0GEeAjwI8JZlDPofIGrJqww8G0DgvYqdC35HRMPSriUGDVJ87D5ZdWixQzMpAhAyXqKkTgIIbTnu2YIU2cUQTg5uO1CoyIPglhi6Mhw5M/qqtc0RRY9CwnWKoUWRo8RRPBhtFBIGkZk4M1PW+m3PNUaNGQoGBAWIojHFgxEnwhvQgaKjHhQ9yg3jg4LDUKEI8WCgdLiHokLBYhBxrVM2ypdZGwp746ZNWg5rqRhwZku4fAEezNowJLhg//M//1O++MUvqoFH6ZFVEKCA4QKIAFJQ1O9///srAMKHAQhxSlyAhgEEDFr61QxAsCWGwyWT7VevtmVSxCgBDmgXShne4qmADxgOLsvgZ3EfGCZc4AAJjAT04kHhPkYJ9zNttNwVzH7pB2b37PKA38yEDSBgiJgNUz5LL7bcxO8WSIoRgXeACOrD2CxbulSmxGASDwJGn8x+rMGTKAkQQx9QH8/b7gWWp/A6GEDAwBHcd8GFF6o8YMBs2QQjh/EdD4CgHoTENkeyWbJkhieJtrGshuzCc/PWINOAUtpy1hvfqDN6UjBz0WfsBAI8GFiAFwArZN5iaPwsjL48WZIm+Mt4AFgATuAZAMK29xoYQebhI+CRcUqfUBe8tPFKe+AbcoQHgbFsMSfwFrDDOLelDmSQ8uEz8Q8GKGkvY42xhWwkA0RL7SjtYpj4JYYDYZsjeRC2DGZFukMehFrp+ttuOydFhaUgxbXSn9kih+lxz1VMmJ3mmBKDgFHAYKAYMfAoAww3hhflgbHFiKBkLJe7pXJlbZKZC4qU2SjPoUBRMhgm/ogxICvj1m3bNMqaGREGDaOBUrToezwRvMusEiXEjB2gwFJFV3e3zqJQntCJocNTAbjA6KN0MVbvfve7VQHikge4fO5zn9NZHYACcGM56DF20Eab3o8HoVjU2RbtZpuYeRAwZih36MWzMVaAULHEkOvXMzHIhEDbAEO0AQMDX1DufDe3P7RjhLigGyCF6xde2/57vDwYXWZ/8I7+oAz4SrnM/ilv40svya233abAgbYqvo+XdOhvnsEzA9jzL+q32A1o5jm7eB8DxJISZQB2CGiEb7iu6V/LfcA7tJHnAKSnnXqq7Nm7t5TJE/kyejBMyCSgFINczTg16kEgSLFn9grpTexisEyK8BkQQlvSMjZa+nFm4n7CLIAX48MCWDHqFiPBZ5u9p5UJP3jfPHJ8t4Rc1l7GouWesN8MmNAX9Ds0W39aOnLzHMFv3vMBFnRxH5p51w5lAnBY26Dbci9YYqRaHoT87gEZHJh4gHAgZFLMAxA0UdKkDFK0GASXo73GeT7jbq/VNVZwh8XoTIPjdgtFdVmD6FMPjtNT74g55z9xepT4lLlCsVAuKyJvf1EVkRvMzv2qr5X0Ybol5lmtux1ZJUuJkhxAaDVREooJ1yqGHmWCMaHdGBhmMsyamEkyk0FJ4ZZHCVlmNn4DTNhOBMAGxg6eYZSPXLJEf8MIE2yGsaUuZvIYEFytpgQt7z+Gw+o0d74BGegxD4PlPEAZAgwwgPyO14FymT3hHUFx25qqzZZZ76fdGE5ota1jFpzHPdpLW+ALuQPGChDcEsPyONVy5WFNdniRGRC+2720elH0GCv+/Hfgl8mutZW2+Gv2BjqMt/5vVq9tcfXrNpc0z1Qus4ymkL60Mqx+o9Po4hkuNVoki4rLLRmx+B5tLI/H9MHVDECotYth3JWVFYjO8o7lrse/JPgynhmYKxfb+O6xRuus91xVHrU51XJn72KIMykOZiWanHkQAAgkWmnzEkMkeigJs6Bdu3brbHJoaJ9s3jIgc+fOi7fexJglVpZ8Ax1v2+q27VjkeG9vnxq3zVs4bGiXGgGee4Zo4sMOK7njON0Nd9zICFs63da2tMu58GZJX3/1U+fGTQF5SwxT9LCm1oMUTRmVVG/K+fK+YjKF7ystfyaZVF6+winVVaUOqydNQaYpRSs7+bz/PalUq/WB367G+6mZJQZ3FgNBiv5pjraLIcnDZBt8mmyGnUZnkt/VFH41HtXig99/aXVXozmNhlp9XCobYB9/qWW4GgUI5EHAg1DtsKbG+735J+vxrvkSO+yNNgYplg5r6uhdDGxztFTLnbSLoW1Biu1PtUwwETPMn/7kpzo7ZH2bQ4XuuuseWblilZxw4vHS1Y3j1q3ZYvRxjT3/3PNyza+vkaee+qP09pLmljzwM+Uv/tf/khtvZG38Ft2OtHnzFrnixz+WD374Q7JmzWopjhTk0ccek1/+8lcSFTnXnb3X5bPuVXnFbjiCjs6/4DxZtcqlkZ3QyzwIZFKM3GmOrR73PKF0HvSFNw4Q3BLDUumZcaRkcn2jjt0+6Fk1gQ1sFCCUUy0vc0mvlKZ2uf0mkAGdUHQ0JPndW2WwDamWNUhxwzpZtaizj3veOpiR4uRcYmh/JkUQOF6Dm2++Ra748ZU6sA877FB1K69f/7jMmjlTjjxqieS63DLDsmXL5bxzz5P58+dpkM0jjz6q27uOPHKp5DI5eejhB3Rd/IEHH9CgtksvuURefuUVjc7+7F/+pRx+BHnVi3L77XfIj350hZx22umyaNFiPT3ev6CLteANj2+QP/mTd8sZZ5wuuWrWerwGcimT4jqZGg3IYjwILeZBGC+SJmc5jQMEO6zJ5UEoBym2Z03q4O6dxgFCv/TOWindM5Zxrrn5Jtq0Lngw9wFrsEMysntbAAixj5njnp0HYUGHbXNsyy6G9udBIFjmgQcelO/+9+Xy0oubdM/1goWHyM6du+T3v/+DBmWdeCL7e3tU565csVID6Hp6e+SxRx+TLVs2yze/+V+yevUaHam33nqT/N//+08aoGYnBhK8xjo5++HPOusNMmVqv9x+mwMIJJCxI4f9oc6a7DPPPqNBbu981zvl9NNObStA6JcmYhDmrNKZazBK46WscYFHUhjaIkNbH5CRoZ2S1RNOKy8gZZTDONkSA2cxlLc5Vlu2Gi8qD/ZyilFR8vkdkn/+JikUR3R3SGosUFev9MxaJt3Tl0om43YghLFQRTr8eZCtPyZXV23FVf8dlsKerbJz4H7JFodVy6RfkWzbkZedhQWy8EiOg5/edBewxPDC43Gq5e4J9ta2MHjQCQ4gZOIgxU7a5ti2JYb25kF4+eVX5Nprr5Nf/PyX8VakY2TuvLmyd+8+uW/d/TJtmjtoBECQzWXljNNOk2OOOVaN9a233iZPPMH+7yvl1FNPkd2798i6dWvl7//+79W7QCAbW4mIUWCb1eLFi+SM00+T/ilsU7pd/vM//z8FB7NnxalpvVAEPAjELrCkcfHFb5c1a1Zp/RN6xUsMHNZUClKsouqKGmNZlL45x0rv7FWaKMOcIHG85oSSejAXrnqTALShrbJv24NSGN4hGS+639quejXbK70zOc3xUJFMj+5hKGtGb63di3JJRrz4ejr5ubRWn/J+s++l9ZlPS9rner+bKW48rK665CTrIgBwJD8o+Y13CEHH1QBClOuS3NRDpKt3QbzEMzaAUD0iqQw9xqO91XjXCM9bHX8mkeWwUPepfL/8S8QW66ggxf+fvfeAjuu67n73zACDSgAEC0gA7AXs6oVUly1Z3UWSbbnHjpM4cXvLXomznp8d+4uTOH5fPtuJEyd24mdZjmPLTcW2eiUlkWKT2JsodqIRvQ2mvPXb956Zi+EM5s4MMISIe5cgAjP3nnvOPufs/d/1hHpkoPuI+GOAtPEDCBO/1DJBij77uOeJViipIBaEwtdB6O8fkMOHj8hLG17SlCjObOec9P6BQdn86mbN1V61aqUEg8UaGX3hRRdqil1RcZE0N5+WvXv2yXf/+Z+1cMzJEyfk5Zdf0WIuROR3dnbI/ff/RELDIfncZz+nkeu1tTUSjkbk5Q0vye9//we56eabpaysXLo6OwWNxd4t8V1A5DxxC8Q2JIqw5Lo9MzyXRR0EAIL4ohKsQjhxbrzFVjgDoCAZF+NEgonSLJ6d2FCXDHYdlNhwd8puqZDwBaSobLoESqrjBwUlhIeVZZMsCFJm5FiYxK6j4DxZL/3vqTplTuSLvzdJ2jj7YzqW6b3apj2IxIl/qfuV6r0pQY59eqA2O+IkQRsJ8Vk0JrFwSIb7jkqMbIg0FgQqhcT8RWo9SHYVGhplErqpgFkmAJapTTfgyamsW4LaCS/P/j3V96OByEz7KR0YGmFciEUlFrWyU8YbIBzbv1VWTNizGOwshq6JaEEoCEAovItBjzgODcvzz70gv/r1r1SbJ1ebMwlwPQAQli5dohYDc6gL1oKq6kp54/Ah+fH/94BsWP+S5tCbMwS+9rWvyZNPPam1xp959lkJD4fl3e9+lyxavFjWrb1ShoZDsmH9Bo17uPPOuxRI7N9/QNPLNLTJEY1PQCSV/mbMnJ461TLTDszme0eQYkYXg41kfMEp4iu28t4tjGCxi/QbOZsOTd57lZSRsESGekRiw2npqQyb9YIxgX/jHFcdEJOXgGMx8qhFwaiNeX0GqKRo2ykkx+LVXhvZUmCMXAx2qeXghDzNEReDfdxzsN47i6EwUsYnw8Nh2bTxVT0lrbi4SKqqqmVwKCR79+yVmppqLahi0qHKykrlllveIY1z66X59Cn5u298Uzo6umTduquktLREUxmvvfYatUiQEUElN1wM9957j8xfsEAuveQSGRgc0Gp1xDjcecedMhQa0voAidTAhHjFxbB48SKtGVAcREvJduNkd//Q0LAe1lRmpzlSSTHdZXnKHW4PWzgZLWqcu5rdwN5idzuTXxU0Zui/pdk5zLM2gHNqsG8xEpz77lrpRBI1xUiokXLue+X1ICUF8gcImsWwd5s01U/cUstUUmz1CiUVrlASx9p2nOmU3bv3yK5dOzVuwOcPSF9vvx4CQxYDwpn0JZgFwYoAgCVLOYGuQ/7mq1+T3t5+ueqqazQVkipiBCNikuzu7pGf/vQBBSCkO1IFjRoJuByeePwJeX3H63LlFVdqQZ1QaEh6+/qkJFgi5RXlqrr4/RRW8snceXO1QM+02lrxKYcaP83QOs1xaxwgBNKUWva4VOEo4DTrun1rLs+4bXuy3Zcqrm6y0WDijzd/gKCllvdtlWX1MQlOyCBFSQpSnEh1EM5TFwMxCDte3ykbN22S/r5+6zjY3l4V7q0trXGhjquBokVFRQFZc8EaufjiC7U2/AMP/FSam9u1vG5UIvL4Y4/Jhz78IWlpbtE4hBdefEEiHHDzjnfI9GnT5eqrr5LiYFAeefgR6erqlKuvuVYOv3FIsxUohUs2xNx586SttU37MnPmDFm4cIEGSlIueFwBgqPUcrxQUpo0x4nPMLweehTwKDB5KJA/QBjrUstnq3HWJ5YVKl20SvoZ42myGCZxHQRHDMIopu2xXPSkOR45ckz27zugxwBTe+DYseMabwBIsOqjF2maIjUQpk2bKouXLNayvT//+f9Id1e3vPbaLvm7b3xDwpFh+X++8mX5o4/9kdqE+3r71G0xHB6W973vfRrPsGL5cgUGv/3tw1oH/tbbbtXSu08/9bRaH26++SaZMWOmbNu+Xfbu2WOBkYsu0Gf1uNpxtB5AV+NioA4ClRT9HkAYy+XmteVRwKNAVhRwa78ZG4CQb6nl4UhEOrp6NWatEkuwcBy6ZfWlQnCYUuahsFqGKyut01AzuQ8NuQxAmJiVFAttQSgQQMDF0N5m1fHff2C/1j+YPWuWVkrctm27zF8wXzMIqJoYCBTLvHlzZcXKFTJj+gw9BAgrAemKt99xhx4C9OAvfyF/+7/+Vk+UI2jxe9/7ngr+r3zly7pIcC9wdvpTTz4jd951lzQ2NGpA466du2TFiuUyf/4CBRQH9luHHfG+99/3PmlqWmpXXBw/94IFECwXQ7m0SP20oBR5ACErdubdfL5RAEhusfDRGDl1QGL+gIhGMlrnrKS70qcxnp2XYH2S6ol0OQyp3prN8+aNaLjZ5Se461Gmu5wjtuke4wwRK4A7/SzkDxDyLbUMvXr7h2Tbjjc1Hm3mjGo53XxGOnv6JTQUUTkQKCoSXywqM6dVyOqV86WijAq87iCCBRBMkOKkPqyJsxhGCRkeQx40ODgkr7++Q15+6WVNY1za1CQrV6yQ1tY2eeyxx+TCiy5Qd8IbbxyWXTt362E8q9eslssuu1xPMkOQ/7//+3/rSXikRa3f8KJ89atfldWrVuvBPN///vf1aNW//usvcYCr9PX3ahXFffsOyj1336Pv+fWvfyXdPd0KDoqLiuKHRVFgqbOjU9auWyvXXXud5WIYLZQ6X7rYLoa9u6mD0CoN04qkyMtazJeq4/Z8QgbZkzS+2HHcxjGRG/bhOPT5xc/hVGk6SsySv2S6SOn0hAtQ2ZcBF0bEW3FMlnHZEoQJ8GF9Zv5vnjgbIBCKaj1n9SfV7yPbGlkXw3ouIfpH9jHRa2MCt97k7Ffir0SPLdI4I19Mv87ui/ONCRiSGJcFA8zzUZFQvwz2nRz3Ogj5lFpmlAS2nzjdIes3HpCKsnJZvHCGtJ1pk47ufmlp65O29i5Z3jRHZtZWSV1thcybO1PKSkvEb/mNM15QZDjikxYtlEQWw0QqlFRoC0KBAAIBhNQvOH26WepmzVJXQmlJiTS3tKiFgLLLZBEQdHimo1NjC0rLymTOnEYFCPz9ysaNsmLFCl3W27dvS5y5HgrLyy+/pCeu3XjD9XELwskT1qFQpD12dJyRQwcP6XaoqKjUegvEOtA2C+fU6dNqzVi0cKGeeDiuJzuOOKypTUstk8WQmjF60ijjjs77htE1CyuRMSD+4grxBzFnmip+mfTdvDs2aRrwRwYlNHBGfD7qIKS+fIESKa5eJIEpi8Tn82uqaQLHW7NkCWnTQgIgWC0akZ3p+9HudfZtpKAem2oGafo4wjiR7r3JdMtkmTCNYokJS2SgQ3rat0sgMjiulRTzAwg+OdFyRja/dlA2v3ZEqsoqZPXyBolJWPpDw3K6dUBOnz4jq1Y2yIyaSikJFMmSxfUyvbZCAlkAhEleKOnc1EEgGBAhjj8I3xBXaHhYhgYGNaDQEtZ2TjTFU2IxjQcg9ZEUxsGBQSmvoBYA5zr0qkAvKirWI6D7+nv0PvxN/I24jUTCCjgwN1FS2Ryvq8fPakqVxVN4D/3AMkFhJo6eHtdiSSPqIFgxCOnTHGMS80VFfCXiD5SIrTpNGsEx/gONSYwjwyNDVOxJKZxU9PhLpLiyUYorZ+tpjpZqaK0hd4bL8R/JW/UNSspQlwy2bNEA5HSwy1dUKsGapVJUtcQ+rMkSgIm002SQ4M2MuzURsfz2fWeku3XTuAMEXAzEIORSKIkZ7uzulQOHT8krmw/LlPIyaVpcJ30D/TIQCsvJ5h45dvyMLFsyQ6qryhQUrFm1WGbPmCJFLg/h01LLpDlO7uOeC1tqeQTuxixo793EsbG+EbUHRlRqO4sFW+DBUiEsBkE54pEupmRz0shqdyOaTHJlatfGk7dkVSjJAgjFZXMlUNkQPwMgYTRNX5Utna7jhmlk0o1ow6mfJetkzu/TvS/V89noZ276MNpYVbxwJHGoW4Z6j4iEB1PGPKvY0bMYFkoJ1Sx9ZZZYcsTvOGsjuKGvd0+CAuzlyFCHDJ58TsIxu4hZCgI5AQInuuKWsC6YgDGWO7Xm8dzE59MMRiWKBaFAACHfUstUwu3o7JNnN+yVkuISWbmsXnq7+6W5vVPau3vkVGu3rFzSIMGioJSVBmTJ4rlSXRlUpdTNiogDhMlbB6HwpZYLs52czKEwb8zpLSNcDMaCkLoliwVGpaRmpQRrmqwqfkZzRbg5V7wtcfWjBH6yLSq2C8O20GSq9eqM/1JDy0iHqtO5OgKh6HN2n0wbBnBZAjnJAmwMv8mdTmMdHdEvt2MZjR5ErAy2SH/7LomGusXvOA7czEgcIExdJCVV88TnK7fBqCeMclr/Ix7CggNA6JTBk89KRM8BSM3GDUAoxoKgACEpMsADbDlOB8GJYT3Nsaft1XG3IAAQOKxpeY6lliOxqLS298hjz7wmXd0DMm/uDK2nU1lWJEXBgBxt6ZFFc2ZKx5luCQ0Nyc03XCbTp00Rv8taM+zqkYc1eXUQclxY3mM5UcBhQdA6CNNwa6RuyaqiGJWS2tVSUrNcUbAllqy0HefZg2l9t1mXfEoETNn6mR1pncpOkKrfFgoY4TbNSKhkRJDaJmECuVL3K+NLRgaOqRUqpgChr22HDRAsE7fzslwMZVI6ldMc54nPD0DwwEFmaru5w0pLiwx2y+Apx2mOKR6NA4RqAALrP5Hj7vCmj4hCcNODbO5JWDytp0zlV8Wgpvy5y2j5dO91vsPZfjb9zO5ezmAIy3CBAIIWStq7TZblUEmRXXeqrVO27Dgkm7YckrppVTJ7drV09Q7JysWN6kredeiUXLJ6vvR098v21w/J3XeslVl109R97c6C4GUxSDg8pBvTWuXZLSfv7jwpYFsQSHOkDgJBioE0aY4qwwAI0wAIy+zYCCbMvQDOTlAnlkQqJT7TyNMZGkZ7Lpv+ZTJkZNc/y7cUHmiRfgUIXeK3feBnAYRAhZTULJaSqrkag5CQARN/8yBwCiNoMlE/1fdYEKISHuqSoVPPSSTKeRijWxCKqhcrQHBGHzjBgpOljTb2bAU69xMLRbYUmVj8GLqSWsfFZ5pzb06mslBEVoQhVop38D7isvRo8RRtJAMJE2fFvcRZcdFfPqfOTLp2UDMSAIEYhKHxD1LMsdQyPKm1vVP2Hz4hW3ccl3kuzuu5AAAgAElEQVQN06S6ukS27TiqqYy1NZXS0tEjc+umyYlTbXKmq08+fM81MnsWACF9hkzyfrcsCH6JBWdN5rMYCldqOasdcr7fHAcIWwQLQv30YNogRZgAMQgl09ZYAMHWnM53EhVsfLGYDA+2yEArAKEzvYvBXy4lUwEIuBhKxzSI1TB6I8zSCXNdC7awT6W5Gpo5v0M48AxCK1njHU2DdQpW0974aLYWQAgNd0voxLMSdQEQiquXOIKYRHp7euTUqdNaWwX/NO0xXrKREJQIXPoOLThzhZLuCF7OZaEuC0KUy9DJSWeeX7JkiXDaK58fOXJE9u7dK8uWLZOZM2eq0EWYHzx4UIUw58loELTfr8HOHCVP0R7ebe6ltDx/88PFvQCLhQsXaoo1ZnEKybWfOaOVXUnjptAc/QSI8C+1X3hmwYIF2jfabmlp0edmz56t42SMp06dkjNnzkhTU5NUVlbG18HIubcBQm+79LSPP0DAgsBpjstnxSTbw5oACNC7vbNbnt94UKZWVUh5WVB27T8m9dOrNTPuzVMdcmHTXGnv6pSd+47Jfe9cJ7NnTc8BIJDmCECYlGmOIFQ2RmHqIBSM4b8VXmS7GPZyWBN1EKYXSVEaQ44FECI2QFguflLsslNIsqKIW2GVTaPZamoj0LwtFM1nRtBl8/5R7wUgDLXIQMvrtgXB6bSxnrRcDKW2i2G+7WLIfRKSBa3RTBEcMHsEW6pxwhipDwLjh9kjCAcGBqS7p0ePOOd7BAltkMLLxd8dHR3aJvc4QQKCxvwg3DjDBEGD4CJLiOJkej6K/RlCiYtqo2NnkYhJNBaJAwRO1sxkQbAAglXrgP9aT7fIzp07ZOeuXdLV3a2AYOrUqbJo0SIVotCIMSEooR1nuHCS7IEDB+QXv/iFrFq1Ss+DQZgDBhD23EcqNvfccccdcuGFFyrtn376aXn22WeVLtCBf6EtqdoADt7L3HA6LG3t2bNH22AeaK+2tlZ27dql3wM2oHtjY6McPXpU3vOe9yjwGBwYkK1bt8rhN9+UtWvXyo4dr+v3pGwDFmiH9wAEVq9erefOcFHw7fDhw7Jy5UodD2CFMZ8+fVpuuOEGXRep948FEEK97dLbXpgYhHyOewYEdnb1ytMv7ZbqikopLyuRg0eaZdG8GdLfH5K9h1vl6jXLZWC4Tza9tkfee9daGyC4Y51eHYRIWMKRkKZ3WRxjzNit15AbCsSDFLfahZLS10GwkjWMBaFp3CwIRsMyqaAIgLipNMWYNPI8Yq0fc1+y0ECADdsmThi1SVkdjURGe0NTgkmbv422VUTaq8t0JTdTQQzC8FCrDLRuk+hQb3oXQxFZDAQpzhWfjzoZuW8axtTe3q6C24AFBPIjjzyidT4QWIaRQ7eGhgalBc888cQTqg1SMAz6Uz4cgUM5cQp+oUVyJDrCAHq3trbK888/r6XHAQ0HDh5UYcWzCHxABWNBMF122WX6HmjNM2jX73//+1XI0T7vAVDccssteY1/5LxYQYqh4S7bggBASH3Fsxg0BsG6yxfzSWhwSM50dMhzzz+ngpQL4XzxxRer8DZrCCGO9o/AR7jy+49//GOtxspBbtADgc/psIApyrxDg3vuuUfpzTkuL774ogp5ysUzR9CNz5knABb0Zv74HAABqHjhhRfi88IcUuEVMADQ4JmrrrpKgcptt92moGbrli2ydds2Fe6AGfoEyDFzzRpZunSpjg2LQ0V5uXR0dsrvf/97tRywXjjFdvHixdLf16d9XbtundTU1OgPa4P+Jq7CWhDyOYsBsN7V2y87dx+V7TvflGVLGqWsrEQ2bTskRQGKCFlVaqsqSqVnYEh6BkLy0XuvkwZ1MbgTdSaLoaXLLxL0Kim6o5orbuvd5IoCjhiEMmmRBlcuBitIMV8XA4IBJoUpEm0ERos2hUaDcIEhooHASGAi1JrAVJrsR0Wgvfrqq6rNYAY9C0zEYqqRIVSoMYFQ42+EExe/o3HB+GCkxgQKM4dZw1RvvvlmFWRTKivl2PHj2ue33XijFBUXuyKz25uGB1pkoC0DQPCXSYmdxeD3V+S1ZxDAHE+OgELYoEVCj+bmZhXiaKAIDoQ3tPjgBz+oWiaC+jvf+Y7+jhBAi8SEjIYKDWkDgXT55ZfLtddeqwIOgQmoQANmnqEhc3Do0CFtH+FYizZaX69rgDnHcvDtb39bhRzC7v7775ePfvSj8tprr+mzgIZkAJnev51pFrAgRCUU6pLQyWfFnQXBikEAHDARWFBeevkleeKJx/VcFtYiQhDBe+WVV9qVUSmutl02bdqkghhacGjbjh07FEhBCwDChg0blH6sf+aFi/0AbQAOtIFQZg+xdgGyaOisX+aSz/mXZwAhtIHVAY0eYAXdf/aznykQMMACNwFWiz/6oz9SrR/gwHsAfFdccYX2ASEPoKQdXBtYDVgnzB/v3gKo2LpVrr76agUWzzzzjIIc5pJxAfBYU9wPXYw1yZqdwgIE6iDoaY5kMQTdVTc0qwiA0N3XJ4ePtkpvX0jmNkyX4iKftHf0SFlpUEpLqJtjbc+e3gFpbu+R1cvnyZSKyqwBQltXQKKTOwahcKWWM7GJSfV9/DRHLAgAhPSFkhIuhgs0BsFP+FCO2ittwdBgkmgxMHUEPRoKJkiYIwAB7QtQUDN1qlx33XV6FDcbEwFkrAYwq9/+9rfqN+Ue1eZ8PvvQLYuxAkBgVAgVNJ7NmzerEOSdxhQOs4NBou3BeOnjQw89pMzzQx/6kPzwhz9UgQR4AZB8+tOfjjPu3IXSyNWmAAELQmgUC4LWQcCCsEB8fkzxua9YaPib3/xGaXDJJZeo4OEzgBY0/sMf/qCWBIDAww8/LHfffbfO0aOPPqom5JtuuklpAJNHOCG4AQOAA+h744036rwgjLAEIATRJi+99FK1EPCunTt36vsRGGiifA4YQOhAZzTaP//Up9Rs/8tf/lLnGIHKs1gaeIY5RXBmsjaNTikbINgWBHcAwc5isPNp2860y1NPP6XnrMycMUPpYtY164q/6TcAC0F81113KRCCztDexB4AWKEZNIG+fM59zAPjh7bMAYLWBAECErCqQA/u5T2sVUDG2972NqUNAIF54m++e/zxx7U9hDrPYJ1gnu695x5ZvWaNCnh1MRw+LLfeemvc5cPf7AuAGwCDPgIM2Yu/+tWvFLCwNtjDBqQAQnk3oABAiYWBfWb67wQIloth/GMQtJLi3q3SxHHPOQAEiu2FI1HlSUV+PZ1DoibF27Ev9b5wRILFRVot110VBCt1lkJJbd1+iRZPSguC7WIwWQy58zrvyRwpgBmMGATruOegBNJE2FouBmIQAAj5uRgMQAAIwKhgnjB9tEyYKKABZgXj53e0KMyrMCE0ETRJmBAaGoIMZgWzQTsxzBTNCe0VJgcDVCAioodsAQYAKDAwmNZFF12kgg2tGcbFv2hKnKvx9re/XRna1772NfnMZz6jfcQagTbNfWoqra21KurlI60JenJlQai0LQgIxPyCFLEgQDvM0fih0QrRFKEFAgNTOEJ/zpw5KoARWGiTDzzwgAoHABX30Q4CjzlEo0QoQj+0ZrRK7oHWWGMQ/swVZmqAG+9FmPEO6FleViZ33HmnroO/+7u/Uw37ve99r2q7tMPfCBuEoQKE8nJZtpxDz+bHo+NznQcNUgx1S+jkM5qP78bFYDF8Syq0tZ+R5597TscKvVhLaPKAHdYtgnU4FJK+/n4FTpz4ylqEDghi9gM0ACCwLgFnrHHoC6hiTwCgGD/ACsAAyHbGksAGoA3fMQ/QFZAAKAYkM3+sdyxuABVcB7yXdpl7TqN917vepfewt9g327Zt0+/Yc8wxe4cf5oJ3MU76yvg2rF8v1TU1+jfAD4sRfaAdQBD7yQQznu06NBaENunRGITxz2I4tnerLMsBIDgtCdbvqY/4yieg1tRBaOnGxTDRshgIfsVdS7aMs+T76ILIF0teraPcD2MIh89dJcUcZer585jDglDua5F6ghTTcMXkIEXwcq6MGALCYGBMMBWAAAIDhgVTgVkZjR6tE+0FrRZtA4b7rW99S/23CCMYHpoQDHndunXKbBFqMDeEOADhlVdeUQYJQ6IdzOEAEzRdmCgMC20MYcOJm01Ll8pjjz+uGi+gAM0L7RXtF2FKm/QZtwcaEVYPZ6pZrgvEDUAQ28UQrEIgluWVxcCcbtm8WZ586ikV2sQMMDZ8yNAWQYFwwjXAfH3gAx/Qv9HsX3/dCljDysO9zAtzhzZp0twAVggIwBqAgXYN8ONvhCDzXxIskSVLlygN0YCxUkBvNGtM1QANBNef/umf6jyZ/iBgnVYDY8nJbV3mEqRoXAxqt9Jof1w2ACuAEMITsICAZLwIbYL5dK1VVOi6M5YUrFXQFHoZqwHjgKbsC2iIS4LvBvr7pX9gQIECe8hYZNRIH43q56x/9gNrFrDFWn/qqad07WNBYD6hIzwY1xDtAlq4AOMALvYkbgaCDuk34AUQzlphjFgPeB6Qx7wyb+w99hb3A+hNzM/2bdvk5KlTul8st2FAZs6s0zYTFjini2H8gxTzKbWc6x7P5jkDENSCMOEAQsEPa9JIn2zo592bLwXiAGGLVKgFoVj8o9VBiGcxLJN8AQK+VrQggpiMyRjmSLQ0DPTBBx+UPbt3y9333KMMzfgqEUT4vz/xiU8o40Xb+vnPf66CilgBBD6aKtqw0fJhjmhPvBMhCIgwZlwTzAUgMRoqms53v/td9d1+/OMflx/96Edy++236zs2vvKKbNm6VT75yU/GD9miv6MFUrqdJjcAwSq1bFdS1EJJufsYAAgIAUAWzPyll15SgQ2NiDmA2SOUsBbA9BEOCDQ0SawoBMrhdkDYYUFAUBiTMfQAtAHI0KBpDysAF4LEZEpwvwmiw6wOjdFqf/ngg1JWXq7vQutkvrA08TdCGAGHy0d1N0dhoNzngdTNqAyR5nj8GY2mz5jFUGUDBNvWAEAgwBOQRZ+DxcXy0ssvK01wCyBEWd/QSyGFXVcAIQtAQMtGczcxB8bSBm0BHKxBI1ABAoADXD/QzGSL8AzrHXCGi2dOY6NV/jkWU7ox38QgAE4AH9ARtwBrGEAI/Xg/+4yxsB6wFAA2iEcARDCfgBYAAv0gnoS5wcIEEAegAIYYM4CEe1g/uCCwTvEu9vO9996rayERNFxYC0K+pZbd7utc7/MqKZLFoBYEUrq8NMdcF1LOzyXVQWiYFhy9UNIYuRjoL0wRRgYjQkOBWWIyhjmhoQIe1H9bVydXX3ONauwwPZgvFgS0RwLkEG4wMszduBR4BiaFQCF2AGaEeZejvBFKMDqYFUwXQIB5FAZlUsNoA2YNY0NwwUwx/2LmRjiuX79ezbqf/exnk7SfkdXscpkT1wBBgxTnit9XmVeQIhoumi2WEqws0B4wBq35jnEC4GD2gAaEg7EoGAsCAg2ghjUAEIBLgQtaY1nA0sOcANAQgJiqeQ+CCcsL84C2i8bJvBPIhuCI8P5XX1UXCHPAs8bydJB0vVBIhRICjXVgMh/yAghkMWThYrBKLScKJbWfaVfLB31GA2ec0AWhyDHuChDWrVXhiNursqJCT3hlHbLmsIQZn75ZPwhx6Hr99dcrLU2hIQQ+AAG6QlOsWeZiL/H3vLlz1ZXgDwSU3rTPXGP+Z80j2KE9Ap0+ADT4F3DDXNN3EzsArbHi0B/Gw3PsHfYSexkrH2uBOQQ8cD/CH1DO9+wh1sRVZDFMnarvB5RPCAvCrOyDFA2tNfVY/a/Ul0hYVaPEpVArxM/Ba9kFQDrbTpRanmh1EArmYvDqIOQiTMbkGduCsHc3QYrN0jCNIMXUMufsOgi5BynSdwQQjBQGg5YCw4GZITBg8pgiYUQIKbRVNNF3vvOdKuy/9KUvKQM2EfMmCh8NF0aIVYDvicY2QWEEdQFG0MQYC+3xL0wQSwHmcn6wOpD/feLkSWWO7373u5VBG7MvWpRJOYPJAUAAJzC6fGsjuApS1FLLCyRYPT93gEBNBzvYkyBF5gE6QDPMx8ZdAu0YO98BAtBgsSYgAAAIzAuAgmf4GyCASwABBcCDvlggmA/+hm4Ie+YBEAfwMHEf0A4hgtD4yEc+olo2wg9TNpYhTN2AEwQO88R6MYIOYQawM3OQm1XFcjFgQRg+4S6LocgutWz5n31ypt2yIDA++gYdMd+btEM0bCwIAE2CXhsbGuSGG2/U77EEAD55zgkCEMgIVoQvtDQCFdpiwQFYAOicbgnmDYBL4ClBiNCNtje/+qoMDA4qUAEMGAsCtAVQmLnDLcE8YK1B4LM/aYs5A8gZEG9+Zx3wO+1yD3PGOGnHFIhCCcDCRPCiiUE42yVUWBeDKbXcVB/NOoshIcSj0j84JKebu6Wqokyqq8vFF/BLR+eAtLV1ypzGWqksL3UdmOjk6yPrIDRM5kqKXhbDmAj8bBtRgBASCyBwFkOmOgimUNLYuBjQomBk/MAETUEZTM0wV5ghQgeGhHCCCWGm/OY3vyl33nmnaqhYIfClYs7GV40GirACKCDsaRuXA4waRrpg/nyNEJ+/YIGCFCwSvJf3w9h4hrbQqOkf2hRMn/eY1EysFsb/CojBUkG09pgAhExpjtRBqF4oJdXz8gMIVPSLxZQ+jA23DWNF63OOA40TKwOuFkzLaI3QFlohwLHkILTRLgEAWBBg/IAKAAB59viceQ8xCGiWtMe9gDTezVwzlwAEBBWxDmjZxH4A0ni3Mbszv/jSEW6822mqT/49u+1gKin2yNCJp925GGyAYJ1oagEEBD1jNcIR4YrlC9BgYhAQ7pj1r7v2Ws0WAOywhgHHCFlnZD+05nMAGmAMcz+AgjZYo2QdILydFgTWNUCWPmB5YD6YL/5lvQK+WMMETEaiUV3fzCvzz2Xmg7kBoNN3AArWJOaF7xkX46Gv7FEAGn1nzwAYAAjsNxNkifsK94YzSNFp8bB+L2yaYz5ZDFZ/rfM79r1xSl59/YisXDxXwsMRqZhSLL2DxI4cl7ddt1rqZ07Vw+10fWaxKBN1EHx2HYRJV0kRFwMWBA8gZLFuxu7WLE5zNFkMpdPWSHAMSi3D+AxAwLyPEIHRoWWgbfI7zBBBgi+c/HcTDEd8ADEACHKETXIMApoVcQQIe5gZzJDPEPAwSAQbWhXtwfBgtmjR/EsgHO1ufPlleXXLFvnwhz8cr+DH92hUaEnch9CCAZp0s4IABIIUaznuOQ+A4PDbs5iw4nzjG99QiwtWGOc4YOww/C984Qu67vgOQABwwCqDhoqwJo4EQIeFADrhEsDag+kZAcl84OZhXpkzhChgAbqjqRJpj1BDWBJb4AQIxJugdXMhjDCVs37uu+8+KwbDtogYgJDbBsml1HLiLAbeiRsBP/+J48elcc4cpRV+eLRxaMRaZnysPdb2PXffra4SaAxAZX3yuZP+CHvWLzRlbnD1AE4NjbEA8YwzSJb2oT2AGauAARTG/UKfmAusQ9xrMoIAGdCT9U8cCECbvYigx+JAP+kjljvez730jT5i8QPwsS4A4wAKLDsGIAD+AI24+FgPqa08hbUgEKR4bJ99mmOWaY4WPojJwGBInnlpr5zp6pXVyxtk+44jUj9rqviLArLvwAm5Yd1KmV03VYqL/VJWggvXwITMUEEtCFG/UCgpNuEKJXkuhtz4zFvpKXOa406rDkLj9CIJZMhiACBooaQ8Sy3D4BG2aBVYBWBOMD4CCBEeCB4EOAwH4Y6WDqNFuPzTP/2TCn+EPc+itWEe5xk0TNpF60G40y418p959lkVKjwDCMGUy7O8H0GFkETwo5XCIDGJwtQ+9rGPqbCCocEUYZJ89/nPfz5u1s1Pc00sGFcuhgCllhcKWQz5xiCYNzP2v/3bv1X6wvxh6ibwD8GOSfiLX/xiPKgOYQetqFGAywHtFqsMtMSCwLMIHzRMcv1N5gNAAxMzggL/OZqsnhEQDsetDMuamuQjH/2o0hzTNwACcGg0ZAACFgTmkliF3NwJqTZp9lkMxsVgghnRyAG70M/QES2c8RlNm37zPW4Z7gFsIczNOQ0GhBn6O5PCAAFYcUzArsnCASA4rQ6mnDP3I4z5zhnIybsMUHFSwtzD/YBf9gfgYdo0q4gWZ0zwbgMkuJ/9xpzQL5POyWdaWbHCqvTJfbTFusHSZtwkZ89CYQ9ryjdIEevLG0db5PmN+2RewwyZOqVUnl6/U6LhqITCUWk/0y0LGmZIRXmJzJ9bK1deukwqK0v1JFw3tgSvDkI8SNErtXxOcMUIC0KbZjG4roOQZ5ojQADzKBoKWgiME40DIYUAR2OBmWDKJJgKLdIAhK9+9asq4LE6wHS4B2ZLsJqp+gdjRLhz0R7mWO4BdCDcYGbmfAAEGX2AifGMAQhotAgnw+hgvAYgfO5znxsROZ6f9mrNvpsgxWhRmZTW5G9BcK43hBrFpoilgC6GqXMPwpxxEyBnhDECBqAGsMAlwYUJG0GIFsn3zAnPkZkCbfGBI2TQaNFgeR46G9rSBlYI2kDLxGIAoOD9aM0mSh/BBmjkHQTnjSVASNRBcHdYUwIgWOzeOrXbysQy/nWN3bE/M1q3k/ZOWqcai7M9S2k9+0TM0Z8zGqv1Viugzs4Wc5zO6AQips8qxrQcoKU1ON9t3mlKjyf3wfm3kwajg+nCuhjyKrUM6Onqk6de3CUHj7TI1Zcskc6uPmnr7JYFs2ulubNbDrxxWi5btUBqayulprpc5jTUSWmpldbp5rIAQkAtCBOvDkLB0xy9LAY3i2ZM73GkOVp1EKwgxVSXbnLHYU35llpG+8EygNaJgEZYIOAR5ghwtCKEFQFuaCik0wEYEGYEeGHC5O8407OZGUCDIDa0NIQa9/MerBIm2hsBg9kVv6thWAgiNDlSvQhaxLyK/5vASO7lghkCGnge87Yztcy0k8/8uAEIsUBpotRynlkMpq8m+C9VLQe+Y+5NDICht/ncKSj43Wir5nhfU2vfVL403xsB6sw64Bnu4xljmuZvE7Rn3s19pk9umW3mebFcDENUUjz5nMQi7o57tgolGSFsuTvsRZV4pcMFYj40rhEVvqmeydzh3O/I8D4nWNCxZRBoZ4EW2k96ZkSbadsrrAXBlFpePjvbSopUUAzLrj3H5PmX90r/UFQuXlGvh1jNbpwpq5cvlINHm2XL1kNy07UXyOz6GkWQfokKWeRW5kvma2KnORbMxeAVSsq8VMbpDuNi2LVFKmIc91w8SpqjOe7ZOosh39McYfIIfhiHKQ/LKM05CeYztHzuM2cymMBCyi4X2ycFOkGCMXsas7UeydrersKdNrj4jPaNgOczYyrlHj7HwoF5FRBizLe0wX187vQVJ2t5uc6WGxdDNFAqZTWLJJhPkGKuHXQ859QKjRacTms0YMA5T857ze/Jmnaqdg1QM4BsLAECWQzDw90y5DKLobjaWQfBnVY4BqQ/j5swAKFNetoKU0nx+N5tQhZDdqWWLYBw9GSbvHGUgl89Mq+hRqZUlEiwtETKKoJy6M1W2bHrmKy7YqnUzagSig1Ora6UimBJPGAx00QmCiX5JDrhYhAKYkEwdRA8F0OmxTIu3zvrIMTaLAvCqIWSOM0RgJB/FoNTWLgdm9Mcm9DEEgqY23ZGaHH2H04NJ7mdZAGW6vls353qfjcWBHUxVC+Wkuo5YxaDkGvfk2mWDBBGazcfwT5WgGxk/5xBiqbUcmqh7zzNMZva+rnSefI8ZwGEcG+7dBfgLAbSHI/t2ybLZmef5sgJDOGYT040d8i27W/IzNpKzQpqbuvWQ79Ot/bKsZNtsnRRg1RPKdODnC5ZvUAaZ9VYh865uBKllk0Ww6qM1hwXzY7RLZ4FYYwIOYGbiddB2GId1pRFHYR8XQwTmCrnrGtuAIK6GKikqBYETnP0NNexmbCYWplCVFI8+cyopzn6i0olWLNEAlWL7cN34pBxbLoyaVvBnRWW4b4zBbEg5BqDoMWR7NMXjjd3yKvbD0rjzFqZPb1GBoeGJeITOXS0WXbvPSpXXLxYZtROFX/AL/UzqmRKBfVS3O1Zqw6CX1q6fRIL1k/GOghemuM55QW2i4HDmjLXQTAuBrIYOM0x4CYQ95wO7632crcuhlL7NEd/gNgId8zmrUaLwvfXAgjqYsgAEHyBYglWNIq/fLZY7uTUB/WM7RjsYwJzbjTf53N+cYYHE/3S8l2xqISHeqW/c78EosSBpLti0t41LD2ROpk1f6VUVU3JeivkCxB44fGWDtm09aAsbJgha5bNkaKAX6I+kZ37j8umbQfkpuvWSENdrQScdRBcblkrzdFnpzlOWoBgYhA8XjdeW3CUPaZ52Ht3bZUyaZVGt1kM1U3W6YWecBrTKXNjQYj4S6W0eq6UTGkUv69UNRnrf96VLwU0ajzcI+HTL0s0Gkm7umMajBkUv69IYvb5MVYwX749mNzP61HJXNGIRMJDNvBKR9T8AUI+dRBMV49hQdh2UBbUz5Q1yxulqMgvrI9de4/JxtcPapBiY51dKMk85HKd6HqM+KW1eyLWQShIDIJ3muM5ZQmOLAa1IGgWQ2ppY7IYSqeulqACBJ/rdJ1zOsa3zMtjEh5sk/621yU61Ct+seNyHP1Xs6YvIEUlU6QoiMaUyG/3QEL+E43mF4kNi6/3lPqRkfipeLl+w7HomjJov9dz9eQ/ASa7QltKpFembjh/gGCVWs79uGem/nRbl+zcc0ytBEsXzpKiIg7/9snBw6dl54GjcuUlTVJXWy0uvQojhuoBBOdhTd5JjvlvsBxaGBoaFlwM5fZpjmnrINhet2BZowTK68jZsfLl7TKznhqbA/HtR+KK03CPhHpPSnR4QPwpJH5CAbHOUrAuz3yQO+WTn7QK2GhNAyP3UzQ+0lg/UU33Y0eVwrWUjYqdP0Cg1LIJUswui8HeebGY9A8MSXtHn98I07YAACAASURBVJ63QK0D4gsYRVfPgNZJmDm9WspLi3MyLk3sNMdCWxA8gFC4feh4E2cx7FMXQ4s0TA+mtyAoFBAJ+IoEH6z1V0K/cmk1OydjnOgvjYv4WFRN2xJLb96e6GPx+udRoDAUyB8gqIthv11qudhdZkHy2KLRmERiMT2v0arpYd2BuwRLAmcw+ASbU/aXBxAinosh+2Uzhk84CyXZACGQJs3R0lUtUcaSd+qt2R9DMoZjOG+acloFPHf2eTOt3kDGiQL5A4RcgxSTBxSvPOmsTBnnlBbnzOXyAILTxQARPTU0l3WU+zNJdRC01PIoACH3F3lPehTwKOBRYCwpMHEAwliOytnWSIAwSxY1TbrTHD0LwngtLlftOtIcy9WCwFkMHk5zRTvvJo8CHgXOIQXyBwgapGgXSsolBmHk4M+2qVqWA8vamovua9VB8DnqIExWgKAR27mZYc7hCj0vXk0MgqY5ksWghZJMTvd5MTxvEB4FPAqclxTIHyAQpEgWQ1N9tmcxjCQoGS/DwxENUKQOAnBgYHBIAgF//ByRXAFCKOqTVj3uebLXQciFguflwi/soAxAsCwI6YMUC9sr720eBTwKeBQYjQL5AwSr1LIVpJirBQG1trt3UA4fbZFpU8tl9swaiUZ98uprB7T88ty5dVJcVJyUleRO2HlpjiOCFAFenhWhoEzhrDoIRWlPcyxov7yXeRTwKOBRYFQK5A8QxiJIESG+59BpeX3PUWlaNFMWz6mT4bBPHnriFZnfOF3WrFwopcGgYFgoLvZbWQ2uT3Oc9IWSzGFNUQ8cnAt2YAcp4mLIVAfhXHTPe6dHAY8CHgVSU2BsAMLR/Vtl5eyYlOSQ5og6OzA0LM+/sk9OtLRLbWWF+KVI+kPDsnXnQamdWiPz50yTsuJimVU7RVauaJDKCnOaY2YrggYp4mLoDkismCDFiXRYk1cH4fzfmfEsBlMHgRiE83/Y3gg9CngUeKtTIH+AkG+p5WhU5OiJNnlx426ZWlMuM2qr1d2we99xef3AUaksL5flSxpk8dyZMntalSxYMFPKyoJCkXo3YYuJLAZiECY7QPDSHAu/Y8+qg0CaY+G74b3Ro4BHAY8C2VEgf4BAkOKJvdtkaX006xgEhHdP75A8s2GP7N7/plxzxVJZvWyutHf1y/Prd8mOQydl1vQpMmfWNLn68iaZPrVSSkqskxzdnmHj1UGI10Gw68572mt2eyTfu706CPlS0Hveo4BHgXNCgbEBCLlmMXDy5579J+SFjXuks2dArlu7TC5aPVd27T8th988LfsOt8qiOdOlv39I1l6+RBbPnyXFRUVKKbdizgCElm6/yISzIPgl4C+SQKBI/P6A6xXgi1FWyuUV8SopuqTUON1mAMJO0hxbpF4Pa0q8Kx4zOlpx+kxJvtmUVzevdj6T7nnne1P1IbkNt7vS2YfRnnHTr1TTZvqaz/OZuEymORmtX3yXjp6ZaJjpvbl8n+1ayHaruFmf+a6vTM+n63Ou9DLzlGkeC9kv5xgzvTfVnJy1n6P2cc+zcj7uGRcDMQgrcohBiEVjcqq5TQ682SyHj3XIskX1Mn/OdNm4bb9MramQHXtPSdOCOjnT3SNFxcVy41XLpaqyXK0HmbZRggWZOgiTNs3RK5SULT8b0/vVxRCSPTu3SnnAKpRUREFln1X2V4sqUlOc4kn2BtXfnYfZ2N8bmXXW3k/a7GfJ9VGYhev3mj6mY0KZGKVDJsa7O8q44s053pvqs7MEbQZhp20kjSUdvZw44yyGM5pgSf7OTCbv5QAu55zb9HT2K+U8JwNI+5DDEXJqlD6lo6e+yzkPqeY504bI9F77+1T0zHmek0FWUh8y0fOsOU86PMrZr7OkzagLw7Gf7T5mvZ+TxuZqPzvXkZv3utjP8KgzXcPSF5kldfNXSlVVlXvV3O4PWQz5BCmGIxE5frpTNm45JLNn1MiwhKWzo1dWLmmUFzfvk8VzZ0jd7CpZv+GAXLxmoaxY2SClRUVZxCDEZDhKoSS/xIpnT8ZKio4sBi8GIROrG/vvYyKhUEh27tgmxdEWmV0bEJ8vKlHHGfcjBFYM8ODTg0mAEJRUsr7X37R/qRiGykUHsBgBNsyJuU7gYVfdTgAEPrDeEDWnRzrfmySo40spDVSPM+ikfulzPnsMdvuJ0/2sMdJ36KO9sekRnxhHv00fRjBg8739QLx79jsTAtFJzyTaKjHtjiYBolEBVZoTCpMBkfZpBIO25tnMeSoubOipj6aa56SVa2jsBADWe631ZeENayWZ9ZX4PdGDs+bRCcDMWky1vpKBGEbP+HHNifcm5nnkuOJzm2Jc8T3gfK/jd+da0d/j9LLX14g17qSH9WR8P9pjTSngTbsOeridZ2tvplhfDnomz3O6GnfZzDPKSFp6OzPgbTDK+ujsDsuwb7Y0LMgdIHBY04pZMSkJ5hZ8BUBYv2mfhIfDEgoPCcesFQdKZce+N6W6qlzqp9dISTGnOw7LHTdfLHPqqyTgwySf2Y6gdRCifmnp8okEJxpAKJiLYVhisbC9KMdeBnotjkKBmEg4HJWDBw7KmbaTEgzAySwLgsWMUqiGhqudDQVS6Dk2p3JVJTPTu9KNI9NzTj02VRupnk+20TolT6bfzTuc7WZ6b6pn3IwrU1+S+5DK9pxKX42LuVSQz+6sU1V1M8/Z0GMs5iSZptnOaS5zkmmex2Jcpo1043Hb70zrK92cpntutHWfzbvczBNsKirD4ahUTa2T+YuWSEVlRQLjuWT6Wmp57zZpqo/mARA65KVN+2RgsFcWLayT0tIy6ejslw2b9suM6iqZN2+GLJ43S9qbu2XhAsuiYPnsXQKEiF9asSAoQJh0aY6eBcHlWh6f20DtMZHBgUEZDg2KxDiWlNrh1uLNvITHp1teqx4FPAp4FBiNAmrBjMUkWFIiJaVlWtY4bgRySTqr1LIFEHKppAhEPna6Q17etEca6qbIRasWSllJifQNxuTBRzbIwnm1cvGaJqksK5ZINCykiAUCAVW83PBWy4IQcFgQJh1A8GIQXK7l8bvNKKHj9wavZY8CHgU8CowvBdxI3KQeYEE4apdazsXFAOs83dYlr+18Q2bXVcvyxXO0rPLQUEwef3aTNNZPlRVN86W0pFhdb+pOcgkOjA0vFLcgTLQ6CAV1MdiHNXmllsd3E3mtexTwKOBRwKOAUiDfIEUAQigUlr6+QSkpKZayshKtcxCLRuVMZ4cEi4NSXlYmfj/RvwkE4xbLaPsRKilOZhdDJKT+JHzfruwu3uL2KOBRwKOARwGPAnlSIF+AoK9PCoy1uoQsixJ1KTFyFtwigqTxWAAhoMc9T7w6CIUutexlMeS53L3HPQp4FPAo4FHALQWog3B831ZZRh2EHLMY3L4rl/uIQRiO+BUgWEGKq0dYInJpc+yeKZiLAQuCcTGMXfe9ljwKeBTwKOBRwKNAOgpYQYpbpak+9+Oe3VCX0G9z2aEIbh7TVN/hCHUQAAgNkzSLQV0MdqllV2TzbvIo4FHAo4BHAY8C+VHASnO0AMK4WBBs9wO1Wyw/g5Xu6bbiQrwOAqWWtVCSl8WQ34x7T3sU8CjgUcCjgEcBFxQgBkELJeVQatlqPiaRWEyi5IqbwlX2v3weDkckMhwVXywqFVOC4g9wFoNVdMzNpRYELZQ0aYMUvTRHNwvFu8ejgEcBjwIeBcaWAvkCBOowdPX0S/uZbhkcopKiSDiCtSAmQ8PD0tM3KP29w1JWXCxrL5svVVUV4rcrZ0bt2rOjxS8aC4JmMUxeC8JQwsWQY7Tn2C4brzWPAh4FPAp4FDjfKUCQIhaE5TmWWo5GonL0RJvs2PumtHb0SEfHoPQNhGTWrBqprCjR9MeqijKZP6dOli1vlCmlQfHbpoaonshgStKlprRmMUT90qoWhEldB8ErtXy+b0ZvfB4FPAp4FJhIFDAxCMtyDFLEgjAYGpaO7n453dIlO/ce04q0F6yYL6XFpXLoeJvMaZwmyxbOlNLSYvH5qKJohSy6BggRv7R1+yU64QCCl+Y4kday1xePAh4FPAp4FBhDCuSbxYCGPxyJypET7bJxy35pbu6UWXU1UlYWlP7eIQkE/XLxBYtkfsM0CRYReWAdeWaFKmYuZ2/VQeAsBrIYsCBMpDRHDyCM4VL0mvIo4FHAo4BHgYlEAS21jIsh5yBFkaFwWA4cOinbd74hZzoGpLd/WIYjYVm5pF6WzJstwfISqa+vlimlJSJ6imOWWQxxgDDR6iB4AGEirWWvLx4FPAp4FPAoMIYUGItKiuFIRF0Mbx5vkTeOtEt396DMmjFFFs6tkzNnemXXgaNy4YULZc2yRiktBiRkCRCiPjsGYVICBO80xzFc7zk1hR9teHhYWOhcmQ1fOb3Ge8ijgEcBjwJjQgGi+81p85yOyAFJfuoMZBnkPhZZDGQq7Dp4SrbtPCzdPQMybeoUKS0JSnl5qUSjETl+okVKy8rllutWSuPsGRIIWI4GN1c8iyEepOi5GNzQzbtnjCgAOIiEI3L69Cnp6+2QosAEquQ5RmP0mvEo4FHgPKMAzvmYSCQqUlpRLdNnzlKh7Mvy0ANTahkXQ07HPcdi0t07IPsOnZQjx5uluLhYfP6A7Np7XBYvmiHTplRKSXGxnGjulKbF9bJ86RwpLvZnBxDiQYpeoaSsEeB5tuwLP5yYyFAoJHt3vybDfSekttIvfj/hMyYBx6r6wV9c1jf8m0jPMZ9ZnVdsr09Y95mnzLdOiG+Cdaz7zcW7Em2YVkaeiMJfpk+p3uDsg3mz9W+yiuHsYeJd5jdDB+tdVr+skfGTKKA6MllpZBBS6nGZT0dSKNE7J715O1nTCRomrDymD+bbxBicNLR6PnLOEtRw0nYkvZ3jdfbBGn/quXHS2xmIZUZk5sGibWJ9Jd6VvL4Mza2ZHrkOU68vixqpaOvsBT2w+uBc32ZcyevLue5Tra9c1r21lpx9TayvZHqbWUoOcnOurwRtUs3NSHqPpKNzbYyktxlXYv8k0yuxlhN73t1+NnOemk+YUL7kb62eo9z094n4yuulceFyqZwyxbIixE9PirOUtL9YQYrbpKk+mhtAIEgxHJETp87IwcMnZXbdNKmeUilPPL9NLlwxRwJRn5xu65Gq6jKZP2+mzJxeK/5Ati4Gk+boAQQPIGRe02N7BwBhKCR7dm2R0lizNEwrkoDh/bBNPWDTZk0+Dty0Bb8vhivNYm32GedORmfJDmPyS5gDHQ8kblde4mCUFtdwNj7yxLSY1SOf3Qdeo/3iX5j9Wc/bDDj+ud6YYCTm/fq9GVRiXNZjNpPSsdr95Re7TetRnz3kBCu3DoFPflecaCNpkOJei/60m4bepg/a0mjvSkMD2qU78S7bcxazPo865jbehxT0irPllHNu0/uso9wdkAdSOtpNPV6HiDT90mcyrC9DG8fcWqRy9Muxlq2OxKzKuGZ+k+dhxPp0zG98QyR95nyX+crsEYdAs/aS1beR9E6s8fh44+NKRwPH58714Vy3SeNKnnPtTJy8Y7+fDe+whuxY42Yt258xF0Bh9phFSv6KSUdnTPplltTNXy5TAAhUIcri0jTHfdtk2ezcAMJQaFiOnjgjO/cdldDwsFy4fKFUlJbKH17YJpesniczqivl1d1HZGAgJBeuXiCL583K0oJgshgmYh0EL0gxi6X21r0VgLB352Yp97VKw/QS8cMUnMw0zlwSQMHiaTYHHQHaHUIq1ecj2h3t3lTvGinALYpn2wfHkeLxMdiMNN7fDP0aIYcd7x8hE9L1K8O44m04iJdzvxzjcrbrFNTOeTwLY8SllUVqJ71cz2PynCXRdtTxjja/yfOY6t5UNHTcN+JXu1/paON6jadaX8lzPlof3KzPpOfjrCfVuh0veme7dx00SJ7zVPvprCEm7TO7jY7OiPRG62Tm/GU5AQRcDGQx5Fpq+UxHj2zbeUR6+gdk0fyZEvQVy5HjZ2T34eNyw1XLZdnCRmnr7pXtr72hvturL18iUyrLxK2TAaqFIj7RSop6mqN3FsNbV9K+RXseAiDs2ixlvhZpmFZiWRC8y6OARwGPAhOVAj5cDCL5AoR8gxT7+gakua1LSsqCUjWlTI4fbZNDh1vEFxS5cNUCqZteo3ERHR290t7RLXMapksZBZNcRiFYAMHUQfAAgudiOAcbMjQ0LPt2bZEyX7PUTwsqQPAwwjmYCO+VHgU8CriiAIITd+IZ24JQl4cFIZ9Sy8RBRHHHqZtTZGBgSAYGh6U4GJDyshIpDgQUIGgweDSmLhArTsLd5VkQIt5hTe6WyjjdFRMJhQAIW6VcTlsAwW0Ozjh1yWvWo4BHAY8Co1HAAIR8LQgapLhvqzTlmMVg+hiPjtGYFRN66ohFynE69TTHiE9a4i6GSZnmaB/W5B5Y5Uhu77FUFDAWhHKxLQgeQPAWikcBjwITmAJjZUEAIBzbt1WW5QkQnEBhLMWY1kGI+BUgyKQvtXxWlPMEXqHnUdcUIOzeIqVCDEKxFI3lCj+P6OQNxaOAR4GJQQEFCL6YtONiiNTJLFwMVSbN0X0f46c55lFq2f3bsr/TAAQvSDFGFT9HBG/2tPSeyIUCtoth7+6tVgxCrQUQPIyQCzG9ZyYTBewMyMk05Akz1rECCPkGKY43QUZWUpyUQYqUWh6WmAcQxnutpW4/DhCsIMWG2qBnQTg3M5HFW+2aDK6eGJFDluKJEfl7rlq0bnI+l2sbWbyuoLcmyhele63WjdDSvqaAgqFJQTt6/r1M6ZmgqbV6z1ZXJg9AmMhpjn4J+IskECgSv59DqNxdvhghmy6viAYpAhDCngXBJc3G9DYTpIgFQSiUVDxqmmOiguL5JhTGlKq5N2ZqDYxiwtHqg1osJmCnSyGoqLQYtc+Jcz6cTpCbzzMJejfPM9zkLZ9pfWT63knCTH3MhtyZ3wt9/dFIfESppiIqAfEHa8QfrNY50HvibM+zv2UzIyPu1XUdFon2y/DAGfHFwimtmWMFEHAxnBjDGIScx53mwYmexeD3F0vR+AMEO0jRA+Fjvb4yt5cEEOpHiUGAcVLILOArlkigdGSlXaei6pQ9RnYk80wjT5J5v+mx036bzpab6vNUz6V7l/PzTO817Sa3lUoWJPcr01gdNEIwSSQkItbBWcmXxRiLpah8mhSXTpeYPyh+rSwJaIiKxIgwTQUQkico8dKRpa1N8eNEweGRZbaN9cJZKHm0ZZbJgmE9ezYEsD5J9f9Ef0c+N7IXqRbk2f1Mfi8QKzrcJ9GeQxKOWsIp5RQHSqSoepEEK+aLzwdQSwWSMm8/745Ua3xYooNt0tu+S/yRwZQVA8YKIBCkeGLvVllan9tZDOM9fxZAcAYpTrpCSeY0R5sheuB7vNfcyPbjAGGLWhBIc0wfpGgJh6LyheKvmScxyprGRPzJwnO8R+BSocysK2YWGCP0YpfvzWf4saEzEuo6JNFwn/hT1JRXxugvlWDNQimtnifiK7FrFNvxO0lVh1NWsM4ks+1x6j+ZDAjOwY4GDEcDbo420t0WZwspJjUdfsyE+eKvdbRJCd/hgW4JtbwkseiQfe5GihktKpHg1CYJTlkiPr+X9pPPmj8bBYck3Ncq3a1bJBAZGleAYJVattIcS4ITbx6tIMWAtHb7JDbhshg8F8OYrvsJ2ZjDglAeAyAUj1oHISpRCVavkuD0pWIdWuoTX9y0ih8qs3cpG8GdSrN0apCFpOnZ2mzub08td2MSGWyRwfbXJTrUnR4gBMokWLNISmsWiN9Xah0XYNy2SZlAqWidSo7nI+dH053TzfVo/TIWBa29nybaIZs1lGqW0uGeWDQqQ4PdEm5+UaKRQZcAwVgQcl8P3pNOlBiSUF+r9LS+KoFIaFwBwlshSNGqgwBAqJdFTROrDkIBXAyeBeGcMod4oaQtQh2EhmlBSacQgQMACCW1q6S0dpn4JGCbti2oYM4oy5d5Z0OP+FlF5oyhbB5Oc282SnPa16VyX4zaN+t0ushQiwy2bZfIUK/4Y4nTIp3acNRfLiVTF1sWBH+JCjE9xEYla2aANgYkOm+biEUjMjTYI+HmFyQcxrydOqXHV1QiJVObpEgtCB5AGNMFEbMsCF2tm8fdggBA4CyGlRM5zTHql5auiVkHoQAAwaukOKabK9vGHJUUrVLL6esgJADCahsg2N5p5aHpvLXZdijL+7MWxFm2n+vtWfdLIzwsC0ImgBAAICyS0ur56mKwDi32fHO5TpXzuSgAYahbhk+/INFRAUKplExd6gGEsSB6chuxkAyri2H8AYLWQdi3VZZPaBcDZzFM6sOaTJpjtOAJ+MY6Hi+PbftwrfPGyWSyjhFOecXvtTKeRljXM/Br673JUuRsb6o2M568XwFCWPbuts9iGKUOQrIFQXyWz87q3jkCCOPBoM5Jm1kABH+ZBRBwMUiJRfss6rufk+G9RV5qAEL49AsSeQsDBJNIBv9yc0WjlrXK4nfunuEd/Jj73T6XsT+xwrkYiEE4sXebNNXndtxzxrHkeYMptQxAiKqLYTIGKUZCVh2ETNFGeRL7LKAajcmZMx3S2toq06bXyowZM7QP4UhE3njjsArwxsZGKSsrG8l/YyJ9/X3S1tYuDQ0NEtADOUSGQ8OyZ98+mV5bK/UNDVbdp6TNZh3aEbE2VlzyWxsyHuunG896NhDwi0+jAMfpSqqDUG/XQUjFIkZaEJoEgKCwAKCk43THWM4aiTXYcRrgW6VZ9wAh5q+wXQxzxUeQ4jkECE4B8Vah9Gj9tFwMxCBkcjHkZkEgrZsfDuzx2wf5jJlgtQfGnAwPDyv/KCoqih8WFAqFJBwOS2lpqfIs50WfBgcHpbi4OP5Mpn4BKmiPi/f4/X7la3zOs/yd01VAC4KWWt67VZrqJ2qQ4kTOYihYkKINEApcSZGF/Nprr8mGDS/JpZdeKldccYWKuIGBQfnZz/5HF/mtt90idXUzE8JcT+2KyeYtW+SHP/yh3POeu+X6G24QgpvYgA/+8pdy7Ngx+cxnPiMV5RWye89uOXTwDbnl1luksqJCzpw5I48++qg8+9yzUhQo1hQp60qAALPBb7jhBrnjzjuktrY6p33m6qFs0hzjMQhrpHRaU8Lvjac2R/luGIrRXgyTMRpQKiaTSjtyajPpGBtM0Ag02s3EAE2brBMYoPNvwwAzteFqDuz5J8XOjYtBsCDULJKSmgUag2A5eLKfgKGhIWlvb5epU6cqCHZejBkhg9BIvhAuCBnGzn29vb0qKKZNmxYXCnze1dWlwpB72Rvl5eX6e/LFvcePH9fvq6qqtA1DV9qlH/wL/adMmRL/vr+/Xzo7O6W2tlZKSkq0L/zN/YB95izbCwvC4JAFEKLDo8UgZA8Q6P/hw4fllVdeliVLlkhDQ6OOt7u7WxiLWZuMgzExL4xl06ZNOk9Gy08eE7QKBoOyaNEi/eF67rnnlPYXX3yx0iE8PCxHjx2T3bt3ywUXXCB1dXUKEmpqahQUMM+/+MUv9P558+bp+6A5Pz09PdLR0aH3zJwxQ1avWSOVlZXC+tmxY4ecPHlS1qxZo2Phndu3b9fvL7zwwrPWlav5KCBAwMVADMKKWRMbIFguhlmT0YLgjEEobJAVi3nz5q3y3LPPy9q1V8i6q9ZJJBKT/r5B+clPfiI+X0zuuutOqZtVp8d0sqHQ6K1jPQdU0P/m17+RT/35p6S7u0emVFZKY+Mc+T//559k9erVcu9775Wnn3lG9u7eJ5/53GekprpKmpub5cEHH5TTp5vlumuvk2CxzTAdwWWh0JA8/fTTMru+Xt73vvfJrFkzXO2rXG8KDYX1LAYrzdFNDIIFEKz8e7+lwObwcrWmRCJy9OhRZX719fXKUPj8yJEj+hkWHJi/ufgOxvTGG2/I7NmzlSlx9fX1yZtvvqn3w/RoF+bKs8wbAoo2+QwGqJDM9i/xHc/DpGG0s2bNigsyGOPrr7+ujJO2EF7MYVtbm6xatSonIZSaVCTYZQMQFkuwZn4iSDHDDABgEZ7tZ84oDbgAq88884wC4zlz5sS7hUCZO3eu7Nu3T5544gmlN7RCkDB+5unqq6/Wz6qrq+Wll16SlpYWef/73x8HDryLtrkHejI3l1xyiTQ1NcWBlgFZtP+v//qv+h375uDBgyqU6Cfgg3kZGhyU6poaec973qMggbWxc+dO7d/tt98e13wRWCdOnJAPfehD8bWRzdIcLxcDdIBnPPbYY/Lyyy8rDVjrd911l67lbdu2ab8BDtCS9XbfffepUP7617+uaxihbo4ORnBDAz5nTgBXPMMPtP/1r3+t88QP88P65n7mHPqxlqH7B+67TxYsXKg0/pd/+Re5/vrrFZjQTwAe4IX+AADYb/SP3ytsZefZZ5/VZ+fPny+nTp1Si+qhQ4cU4NAWQMFcrt0XcYBQmCyGiR2kaFkQrDTHyVpq2bgYstnJed6LAOns6JL16zfIyy+/IhdfcpGsWrVSNm58VV7bvkN27tyhQWML5s9ToXHb7bfKddddK5VTpqi2Fo1EZXBoUF588UWZVlsrL7+ySY4fOypf/vJX5MX1L8pTTz4p9933Ad2c5eWl8uGPfFiZJ8Lllw/+SlpaWuX662+Q4uKgAhHnNRQakmeefkYZ67333it1ChDGz83AYU0ag2BnMaSrg5BwMdgWBI3xzgUaJEYLk/rd736nDPO6666La01/+MMfVKjfdNNNKoSMVsl9CI2f/exn+tkdd9yh88Nnzz//vArsW2+9VQU4AgThB2PlewQWDBdBBENmLmDa/MAwARtoYPQDBse7AGrr16+XP/7jP1ameeONNyojfOWVV+Szn/2sBIuLreNdczWhJKBPFgChXEpqAAhkMQTtSn6jzwO0fOGFF5QmCCbVKsNhFSYwcWjIxTj4/s4771QhDbNHG0W4QBdojnDgWdb2Bz/47I63swAAIABJREFUQaUFtPzIRz6idOS7rVu3yquvviqXXXaZCrFdu3bJ5ZdfrgIGCxvzAVDjfgTRf/zHf8jixYtVwB04cEA/42LObrvtNp1DgB/P0D8EHv0C9CGI6AtCCkCHRgtAYFyM05i/3bCM8XExYHaPqfbOWgd80U/m5JZbbtF9znqH3gAgxsy+eO9736vr9Zvf/KbSQC2cPp9+tn//fhXMgC6Am5k71iwaPO9inUMnfp8+fbq+l3u5hzawTACu+JvfEfZLly6Vd7zjHVJTXS2DQ0MK3plf+BD7EFoCMFgve/fulY0bN+qc0hf+5h1YSYwFgXsZH3NnuWJd7BXPguDgCsbF4BOZcADhPHYx9Pb0ypNPPSUPPPCAboJZdbPkHbe8Q5YvXyH9ff3yxJNPquDGTLZhw8uybu1aefd73qULHUTNTzgckZqaammob5Rdu/bIP/7jt+TrX/8bZWYwTDb8Az99QG6//Ta5/vrrdIO0NLfIj350vzz/wgsyd85cK8YgKcYMQQyAgSG/45ZbZOrUqpxN+BmZoiOLQY97np6+1PJYAwSEDgwMSwxM6pprrlHhgnkT4IUGiVCBMcH8YVrAJJ5DCDz88MMqMGB2mLf5njnFNcOzCCkYG0IILW3Dhg1K17e97W3KqAAGaKvEoMBo0aK5F6YGmEN7QrNlDcA4v/zlL8sXv/hF1fRo+xOf+IQySrQ3Y/rOSO+0N2RrQVioxZLEX2qHh2YGCL///e+VzmjpaJLQ3ggWaIrAwjS/cOFCBUvGwvPd735XZs6cKVdeeaUCBDRM6PnII4/In//5n6uQYD8AEBBA7Kcnn3xSaQiAw3qAZn/RRRcpffmO9m+++WYVLAhEhBNzCCAEnJn+/OpXv1LhaIQTAog+AgyYfyMgGRvaK+sC4bt27VoFMgsXLNC5KysvdzU10ZgVgzA8xi4GxvP4448L/WS90EeEKKCI/kFD1j/gh3W6cuVKXcfMEQDhzjvukCuuvFLXLXwF0Mr6fNe73qVr0ABUgBWglnUOv+Ff6Ml8QQ/aO336tL4HmjI/gwMDsmXrVrXGLF++XBYsWKCAjv1Be9CUfjK3zBH7Z8b06brXGMe1116rgBtLG+1yP32CDzLPb3/722XFihU699kBhPG3IGihJDtIcSIWSkIxDEV9muZoWRAmVh2EgL94vM9iMHUQiKIt3GmOCPe21jZ58cX1snHTRrnggjVyzdVX2yYxn/z3z/5bN/LbbnybPPDAT2VmXZ1uJnxwjz76iPzu97+X1pYWueHGG+Uv/uLTMtBvmQJXrV6ploNIOCzPPvuM/Pa3v5UvfemvZMFCSrL6paW5VR56+BGJRKJy+223SyQyrJvYqYCqXz4Wk6k1UxWQFBXn7uPPyBVHAITTWkkxkCa2aCwBAmOEwaHtwDj5Gw3J+KP37NmjnyEQEGYf+MAH1LQJg0GoQDMYJfcQR3L0yBEFA/hZ+R6hz/d8BkNEACHUYZpotQAR2jVADvMpDBuhBmMGeMCEASqf+tSnVMP68Y9/LBesWSNt7e3S0twsK1etUoYIiIG55+LzTsxPFgAhUKExCEHSHNWCkDkGAeGPcIJxIwRwHwB0TCAbGj0MHm2cdY4wgbbQ7u///u8VFLAfEBhYFxAWAARoYwAC1gTmlPegTb773e9W2tAu1gRAFEACwcR7cAcB7ujH/fffr4IJtw3aMe3wfuiPsGdeigIBWbtunYIVNHHegaUAAIJlhHEh2ACYzAdjYP0AeJxuqtH2hFoQiEE4PbZBiqxrrDGAGujA+sT8j4Bl3NCENYi2zp5nzIyTNQxAQKtnfMaCBs35DmsZc8EP40V7h+cgpFnPKBmAAugO0DVuDsAamv+yZcukrLRUevv65Hvf+55ce801smz5cu0f+whrD/vmne98p74DOtJX9ifvYQxYfZgD2mIsTz31lL4bNxT/msBHExiZ0dpWQBcDQYrH92yTpoaJm8UQivqltcu4GCYWQPAH7LMY4rF0GSUOhfWyOazp3J3mGAlHZOvW7WqqvOLKy2X+vPmyefNmZYabXt0sjY0NusF+8IMfKqN8+9veLjfdfJMMh0LS0dEpDz30W+ns6pKv/c3XVMBjgn70d7+Tv/rLv1LB8aMf/UjQSP6vz39eSstAz345fapZGSte+6VNTfLcc8/q5k3W/0pLy+S22y2zIi6KvC3Y6ebNWWo5ZhVKKiRAgLFDN5YMDAVNBWGAFgQjQcD8/Oc/V60Fwd7f1ycvrl+vjBVNEu0FJoameffdd6tg528AAW0xf4AJXA7MM4KSNqE5nxEchzCCsaHtIEARUgiuH/zgB9qXT37yk/LTn/5UNT3MtoAaBBHxITBMtCpMuMmR4Zm3ivOOLACCBilmF4PAuBGqjA+aQVvWOkIGwYIlBQCAC8UEsCFMjCDG3I1VBjowbtp7FIBgWxDYH/jTt2zZohYB2kSooDkizDChMw/Q/qqrrlKzszE50y5WCuaO7wEhtEc/AA6Y3Vkf3I9Qw2ROHA+CFhM5wgrhiQBEC8aCgTWD743GmlEo2VNhAAJ1EMYyzZH+Hz9+TIOfucz6BTisW7dONXDGu23rVgVgjXPmKI2Yn3/4h39Q6w1CH9pAL+jDGgX8QBfAFqCIMeOiweXC2mW9shcAHRddeKHs3bdP9wd7h/fh4uA7XE0AhPnz5ilfYj2wL1jbtAdtoSvrHKCORYK9y5oxwIW5BiSzn9lL9AeAgNXJ6ebJOBcFdjFQanmZVwchO3aldxfMxXBuTnMkjgDT2nPPPqemSmqqYwpdumSpAoelTUtl3bor5d///d81HbK6qlo+/vGPy/z583RTEsi4b/9++ZuvflUCRUW6gb/1j9+SCy+6UBYsWKiC7f3vf59cddU64dgCpPyJ4yfloYcf1g2z9sq1crq5WQOwki/ax+QN06yoLNMgyXG5cqqDkH8MglpJKGs7NBR3MQAQENwwNsysMDEA0ve//33VrmCcAC+YKRowTO0v/uIv1BqAm4LvMFEjMBBKCCw0SBgSGjLCA1AA44LRwvDQkqA1jI92YHiY4LFqoDnBRHkv/ns0ZAQflgU0YjJV0I5MsF3OaV06sdkChEUS1CwG9y4GhD2Ahih2xkosBQIdwIMLB2Exfdo0Ka+oULM0IIjANYQymiqaKHT59Kc/rdqwEyDQFiCOeTFR+TwHIAHsIdCYG8CJMxMB0MBc/Nu//ZuuB/qGZQA6sx6INUGbxqXAfBMLgnDC+oMQoz2ErboRysoUnAD6CJg0MQhqfbDT/TLtofFyMfBeBDM8w8R+mKwPtHDWGuNnTSKA4Ue4YFi3WBAAZaxRwAFrljmDboBmE3iLxYH5hS6AAtqFvls2b5ZZs2fL7FmzpKW1VZY1NUlXd7dq/bTLGqY9shhw0wAqAAVYkugrNMWCwZxjcWMtMD9Y7pgXLAisDe5lP7M3mAvcJOwn1hIAnN/dZA9JAS0Ib4VKisN2kOLkrYMQJs2xsC4GNqwChC1bVbMkOK2tvUOZPQBg48ZNKpzWrFmtyLp2aq2a3e6+525Zs3q1BIoC8sBPfiIHDhyUr3zlq1JUXKSWhWeeeVr++2f/o+4BNiwCbMqUChXwuA0OHnxDHnn4ET3iurZ2mnT39Kg2RmqEiZK3aOGTisoKueLyK6Rp2VIpLQnmliqQiSPG6yBw3LPlYiBIcfQ6CPkDBBWJdkYCFhUYGZo7jApmApPhbwQGwgPGgy8T7ROBDkPF/IzAQACgVSLE0UBhZNyDYIemaFowMrRYzNm0S3sIf5gjAg0tCuaM4IFpAvb4nc8AGjB3GDQXAIX3feAD92mQKUIQZmzAQiaSp/4+G4BgghRxMRS7DlI0AAF6IIRZ6whdhDoaKPRAY0UTvOeeexSkGVM/QhmaobHitgFIOwECggOhzIXggUZGoNE+tAEgoG0aDZJ/AWyY1X/zm98oEEHgAeRwHSCsvvWtbykwo58IPWIeEDTsRZ4B7DFHJtUScMgYaMf4wRG47EU3AG68XAzQhX6SXUC6M4Ia8M9nrFEADrQm0Jb1x3xoZsDJk/Lt73xHPve5z8UzTUwMAjTBSsZ6Z19AL8AD9GN+sUAAkDtJURwaUqHNPBmAwJ4gU4J1jsUBNxp/Q1/agLaAFvbizTfdJAcPHVIAj+sIevI59KYPuIVMiinzz3wzBvYm+xmwByByG4NglVoe/xiEt8JZDKFowOFimIyFksKmkmLhYhASAGGbAgQVFsGgaqpHjx6RY8eOy1133qXI+7vf+bYGLwZLgrJq5SpZvHihBIr8GuC4Z/d++ZM/+ROpmVotVVWVcuz4UfnSX/3fsn/fAQ1qA4UXFVkxBKHhsAKSp58ihXG2pkviO9+9Z48UFwVk+YoVKtiIbaiorNQNj/lxWdNSKS0tGVeAkEhzTH+a41jGIBiAADh66KGHVPig8cHgEEIwLGIBYJIECjIvaIEIJxgdmi8AAYsO2gzaFL5vmCV/o+XgE+VC2HMvoIK2TSQ9jAutByHFZ2ieluD/gDI3GCDvQXvCaoAQAtQAFmC01M4w1ge0b5PDP/4AwaqDYFkQ3JVaxl0AffAfMza0bgQmjB0BjfBGoEIn1hxgjLkxWQm//OUvdZ/89V//tdIQ7RGrzZ/92Z/FYxA+/OEPaxu0iQUHMIA1BlM0P4A3MyfECVjgrEv27duv4I24BObkP//zP1U4AeT+67/+S90IADva+MIXvqAaKX/jZuA+BB3zz1zybuYJDdykrGIeR6BlNG0DWk2p5eYXJDLGdRBYm1gVWevQ31it0NixqmCFIQUSQIowZQyMh3H+5V/+pc4dYwBIsB4BCqxB9grWNtxpjB2gjMUGWrKu3zh0SNd4sKREBTpgmPsA5QTa4lIFNGItYh2wLrAm0C/ahe4AdfYGNAXAwC8BFAAR9gdjMQGUAFHjYjBuHtp07YIroAWBOgjH92+V5bMm9nHPEzPNsWAuhnNUKEktCACE5+Wiiy/UKOtTp07q5qivb5S733O3Iuhvf+fbctW6dXLl2nVSXT1Fios4iDcm99//E3n6qedU4yINcvbsOnn2uafkod/+ToqKgqoV3HP3PbJgwTwpDhZLX1+/goOt27bJfe+/TxrnNMq2bdtlw/r1ao679lpM393qw6uuqZZrr7nW0nwC41hoMKlQUgOnOabxZownQMBECVMBFMH40FgxscJgcPFgSoaxoomgleA/x/QJM4VGxi0BaEOwoHXWzZyphKM9QALPIPB4BwwWAYWwAXgY0ywABasEmheCE4AAKDGFY1gPBN3BLPkchsm7ud9EaRcWIOBiyJxsigDFPQBjBwAYbRoQBEOHXmjlCBCyBgBkXAgRAt/Q1gFrRM1DN8zYCDPu5V+TxWAAAsKDNc2ewioEoECrN/5qNFQEFRY6rDD//M//rPsI8ELsDnOPgGLumWMEHH39/Oc/r3PGfCI46Q/PIJwwtTNGAJyJQTBz4QYcqNJgZzFQKGnsAIKV5ghAxbKC0IWmrEMsCAhy1hWghzECNhkjrhUAG+PBOhOggJTfr+sZmrNncOuYoE6sCIBj1irzDQhAKNMuv5v0UOaBe1jHxO3QH0AHllKAIWsDSwYgGyAMAMFqAOgA5GCZcwIE7jM1GmgHiyB7GcDH/rU8aDH3x2IXECBokKJdSTE4IY97ttIc27p9Ep1waY4+KWAWQ8RaSOPkak/FtBMuhhc0CIg6CL//wx9k967dctNNpOasVHPpT35yv9xzz71y5dorpLi4SEsfE+D4gx/8l/zi55YWc8ONN8j+/ftkx47tcvllV6o14NFHf6ebmsCvlStXaQQxjJaN/aEPf0hOnjih96CVsrmrqqZIR2enCq8Tx0+o9QFEX1VdOe5BiueiDgLjNhYEE6zFZ0RBYx5FkEErAtUweSOEEUAwMDRUtDGECnPHBd0QHDBJNB40sNqpUxUkIPgxUQMycAcg4NCuaB8mCKiAASLMYMbEfxiA8LGPfUytGwgZ+gnD5DtiEJKj490KorPXY64uBndZDDB2hIoJ5mMcxnyM9o72b6oeInChM7RBQ8TVAAhiDtA2uVjLCG3mC3pA32QLAjTFPw044N0ABoQ+c0A0P3NnfOi4kdD0oTvzDfCAtgA+gh1NRUFM7caCgFUDgMAzBiAwFgQqcxYXTlkgtvFyMUQiYXnyyad07AADA1ZZ/4wPsITbBhcE9TX4G60eEGRSO7EsspZpwxT9MhYZhtjY0CBT7ZRGAAg0A9QxV6YIGM+x/gEMuARMXA3ABYsQ1gEsMfApXDM8i2UNNwL3853WZqmrUzDD+rjttltl5sw6pTIAgXawdmDRSC6U5GoqCniaI2mOHNY0cYMUnYWSqKQ4sbIYCgAQzt1pjgCE7dtfkxfXb4hXykOzYdOZdKutW7ZKV1enRrIvW7ZUfH7r8CZLsD2iQuWKK66Uxx57XNrbWhWBX3/D9RIMlsjevfuUEbIZb9diL7Pk8ccfk0WLFstll12qqZIIrenTZsiMGfi3rfRG9EEQPkzife97ryxcvFCK0qUWuNpxo9zkzGKQFjkXFgRoZNIcYTgESAG6GD/+a5gXPmm0WqP5IpSw9GDCRqAhAEnXuvyKKxQkwGwXzJ8vl1x6qZprAQEIOsAD4ANtjs9hwgg6U2QHM+9HP/pRZcoINSwIRtgYgMDn/GihJLvAUL7TkHuQojsXA8wc4YCZHwGFVskPFgNog++ZMTMPBuQAjhEUCAM0eqcPGcFh5gqaoQUj1LHGAL4QgAAAgBpzQ6AigARTNMIKiwNt8hygDKsZf2MNwoLA59CWueT9BpBgQQCk8DmCCPcD46HP7EneY4IUjXk7m7mhkmLIPs1xLLMYEKzMAbU66BfB0Vhs6LuJ9odOuAfQ6hGsWApY59AR4QydkwGo+dtUWoQ2rGdoDd0Q1CbAk3uYaz6DngAN3g0wxP2E1QFLAfwKAAwoMABYC8t1diqNseKxN9mngDHcHPxNXwCVjNME+yaX8HY1FwW0IMRLLU/g454JUmyJV1KcdADh3KU5YvaDmRw8eEgaGxolNBzSzYWWw2LHTHrq5ClZ2rRELrn4UqmqqohbOBDkXR1diuipyPj8Cy/KpZdeLEuWLFJwwDU8HJaTJ07Kjp07ZMb0GbJw0UI5fuy4xh9ggjt44KCcOHlSBVvllEqpmjJFysrKpaQkKP39A3Lk6BFZtHCh3l9UNPJwFVcbzc1NSYWSAAjpzlgZDxcDWg6uAi4EFJHzAAECuBDyMCE0RCwpRovnXlwQzB2fIYwQLAg/zKUIINpBgBF8iqXg9ddek8NvvqmAAgbNM8wxjAzmh2ADlNEfNGX6gOaLAMXEDbAwAMEUhUH7OicAIVAmJdWkORKD4M6CABgADKE9wvQRRiagD7qjvUMXk6HMv+1tbfLG4cMqoKCTM2WQtgBvgAiT6kbbJvCQuQGIQUdTkAowbc4TAGzggoN+gDBob+IG8HkjnJy0RVjSJsKI96GpMr+AeeObRwib9Dy031xcPuOZ5ggdjJuA31lrWGYQoghvBDbjQsjzN2CFc2GMkGZODEA28wS9ze/O75yVR3kPa9xc5twKE2PCnPBenmENcK85O8MZN0D/+IH+7Bd+p23Tf/rCs4yNtkyZczdsaMQ9BQQIb40gRZ+0eoWSCp/FoCc3chhMOGyVZA0ErBMVbTeHbjziJq0cxbOKGdmuNYlFOZNAJMB9PuskM3PRhjbD5jafx78e6U8Z8V7LbWe/c5Qjp7PefUkPnKM6CBbtrLMYEF78DqOBuZiAJ0AADGjunDnKNM3pd+ZZU1seTQwLgFNbgcEB9phfmB7v4DPu40LToU0Ev2mPwDE0WwQmTJDobj7jGZMmxzu5x6TWuQ68yjhP2boYCFLM4iwGuzSJWZuMI1mwJK9b02WnEEp3D/ea70wKq6uUNvslqUqnnL2PEtYNHmMMye9wtpOLu2c8gxRHKw/jpF26pZLLeOzFPfIk+iT+NNrSHG1NmH3jnHvnZ8mfZ9wCcaYZEiuLYbMEIkOc9nLWBb+N+WLS3hmR3kidzJq/TKZUTUnwWJcvAyCYIMWJWEmRWDfrLAZzWNOksyCcu8OajIA3By3H900Wx04r341ZS1jPVEg6VyGBFAobX+Fyf+jQQyHOYiDNMXFYUyHSHJ2C3imMUgkmw2xSCQ2jWSV/Z7TVdIzKaMSmH06tLBXzMxYEp2DNmWmnYHnZHdYEQKDUsjsLguv1MMlvNIc1jXWp5UlO1uyGX0ALgpZatmMQJmaQohMgTNbDms5RHYTsVu0od8dscZoOHIzZi8ahoThA2CJlvhapr7VOcywUQEjWOJwjTNaqUgnjZKEeV0JcFPPMRbjnq6Gmn8FsLAimkqJ7F8M4rJzzssnxClI8L4k1XoMqIECwshi2SVP9RC21LHoWQ8LFMCnrIJybQknjtb7fUu06XAyldpBiIU9zfEvRalw7my1AGFkHYWTXzMmfwDynOcx5IqiBgOb75GfU7pLiFFHnZ6l+T9duKuJlaisdwXN5zmW/9KTDLA9r8qU5vGRc18v53Piwuhi6C+BiiGcx1MekpHjizSO7cpIf93zushjO5y3memwjshhwMWQulFRau1pKpjVpLe7MGfiue+LdyCmeQy3/f3vfGSXHcZ17u2dmsQGLBRYgwoIBAIlAgBFgEpOYRIqUg2zJthJFh+dz/PwUnmj7h4/kcBzOsUzL0rHPeXzU0RMpy0FMCpYlUpRFihQTSGJBEhlMIEGkRVwAC2B3dqbf+W7V7a7u6dnpidvLqZGWmFBd4btVdb+6desWnTywngqjx8nliJqlqr+Y6aLOviU0DVsMDhxilXJXssCuZZQUBPaggDLAbyZ4Tr3HCRrE+FCRPNWfvGdbj/49+pxQCVVuKa0wSUi8og6Xq8oK7FjR95jIw/UqLTf8DGoVvjC9XP5FTRCeJsqfVK2Juwgl00EdM86kbDdiMLjNvI29DcfFOBVOHaHjR7ZQppCPt2Y20Adh5/ZBWpnaUwxtTxAm5zbHNhx18U2uhiBo5dM5cwV1zFqaUqeKqSlZVkQgCKcO0skjG6k4egy3nsUTBDdHHT3zqKMbgaCyvjJ1PK30easrqohVVkIhyipfbJf5W2Va1Zvfwd/GEeISr6hVSXF1KPcdz/ZBuT6f0OXzP+XqNVFZphWkgrWD80f6IhXyJ2j00GvkeGMa/5gNN8chN9fDf8AdfwJ53Pbc1OyVk1NrENRiYYzyY0dix4BIvFFOilOBIOCYI7VnoCRrQZicYahLNSMp8m2OufK3OWqCkOs6jXJd/eSJ7wVWc8YE6U/mrN/MiT1BS81nou99nWcqE/0+yXOxJvMAB7VSVCdX1HsoQihBrahDSiyqsEwMkEcZRw6BQPLydaZ64+VPUv7kfvIKo2XB8qCc3Cy5GfN+DkUwlJIyyzeVsl94PLnzdxkiz/ttke/N7YhINSPtCf3KhEdwMa0KBgEIyTFCckBcfNlMUEdfzvp5s10GTQqRJKONXtGjYh4XqJVacIL2SFh4V5EDgx1YgpBgnE+QhK1Z/P/y+LO9qwGnGNQWw3pasaBIaT3FEMRBGKCzl7edD4IlCPUNpzqf9uMgrKNuPsUwwXXPemXouBnCn1dUIaf59AavXrVe5cGtAj6p+VgrP55T9XvH0wtVhwe6mmQNS21owWf8rtOqsoJyfe2ov/PL1fnGcwuzXFFeWvHoeqtVuWqD47nk4RgrVzSOpKgVvOIZ+r1WSGGzfyCzoF5KizFUxfGYvf+onEutC+EUpYb++J4St7LWxC5ilE/W05KWmyy3yUmVVMVPQJQmp+JtU2qjCEL6Qy17ESfFtj7m2NrLmtpmNE3U0ChBmNNR9i4GM5tK6sliWzsCSdVT7SXYJy0CUxuBRhEEcVI8d0FaL2sCQXCN2xzbkiDgNke9arKzY2tHbiQOgoRatmJorRhsaRYBi0ByBBpFEKZCJMV8waEhDpTUtlsMo+R5rb+sKXl3fG+nHBtFoCTEQdhHA/3qFIMlCO9tmdvWWQSmMgKNJAjvbB+kVWk+xdDecRDEBwEWBOsYPxmDFgRh2+Z11ElwUix/zHEy6mbLtAhYBCwCUQQaRRBwWZNEUkynk6Icc5RQy2lyUnQp42Ypk8mS6ya/K8jxJgo6HpE0YvGPcyRFWBCsD0LLpwLzFIMRarnl9bAFWgQsAhaBhAg0iiDAB2HX1kFaPpBWHwQbByEgCNaunXB4NDaZv8VgLQiNBdbmZhGwCDQFgUYRBJxi2KlDLafZggAfBOqY3+bHHKfiXQZN6f6tzZQJwiZ1F8PpiINgiVprBWBLswhYBKpCoFEEAVsMCJSEUwzpDLUslzU55HGgpLY8xWC3GKoaHY1MrLcYtmxcTz20j06f00Guy8NvglIqRKUrcXE0g/VUCtxTy++oalwZ5b4zm5a0LUnzj9stjZYhaeLaWq4tZr7l8JTvzfP5cWf1Kz0frUNcfcvVfaLOWakfNLLtUg/BPhJ0iX828Yr7PQnmUWzKxUaopl9XkmMl+UXHbhSDSu2qV07VPB/tqxPJKSwzPHnwyDgdK9Z33XO6nRQ9UqcYQBBwiqHtCIKEWranGBqp96vJC9c9b9owSF2FIZrf30XqlkNEMUNQIBUYSIZtkWP1K4cUNQ2otB7fyyD3AMh7pJK85L2qWaAy5ffwxKB+D0pQ0whKk7LwOVquirgvacMY4FsjKqKfl1mb4B6BcPnIVUVVVN/L++DeA3MKVjUIl5U0WH+AZ3Czgiq39OYEVXN8H8ZelRVgVxpWWYWxUs9PhGdQblTOSjrqd9UXRDYTydlUBuouhdL+E5azWUdVitRdtSBou0ggTs6CnfTauH6genlSPIJ+LXlFy5U+Xi5wlJQlcjBlIngKtoGcA9maMpe+ElWuE+Ft3plhjhvkW2BcA7zlvfSqcmMsPLLV+AvIgkIiPEYV3mHsTTmrFpl9PCBkmJkOD4/RqDOHTl9HifMwAAAgAElEQVSygnpn9Oq5K/nsBwsCCMLK+V5qIylyHAQcc8yl7brnljkpShwECSWXXMA2Zf0I5PPj9Prrr9Gh/Xsp4+h4FIgayEQAk0Ow54ABTZRX8fg5Lr9HiKDLKUrmwrjVeaS+8qBkwpEPVYb+3QIxj6hk5fIvNymbysuYkOXuAr8O8W1h5VS2XD31mUyB57ZIHf2yZPIs2zj9QznFFyf3gNawspMtOz/qI+4MEOIlzwd4+3U12yjvdV4sEx2tMkzGdCcoiTCpy2FdFV3ZCs5RYldqAQlSxMi8RCYGNhKB2tdT+EIIVEISF+pOBhGoUC53Yr/dCcaCr1CT1Qsht3moxMg5KDeuf0W6VrTc2HZFLSCRSKIhC16MrHWeJX1G0zKTcsgYU+MNHVbjEa2XRzRe9Gjm7Pm0eMk51NPTU/X5bDgpyimGjo403uYoWww4xZA2guBQxs01+xSDvaypfhVfew44cIK/8fECFYtg82r+xO16/BdwAzWNcPqiCo9srB/FlhAEWVYTSul/lZKOrpeia43g98CSIE+CtKjfJaBzfFmmCgzyLzV/mmscs1xzvcRTlBFqGfdQyMQcBJUOpj9ZjZbHILzGD5u7pT2CMYSA9VKApxHI2l+9J8M76CtyN6PIQ9UhUE6BbUDhrVZ2wQVNYjVQs3IcKYsnaoG0AjkGfUI6nA6jzTE5zDsg8EmtvoP2qjaZ9MOktPJL0Dqz/wU91s/FDKnt4xHua+ERV66vm9/HjVHpeZLOkDMTLSVzqZcpcxNvySVsk4jDI0w2o2PMHM8mZVN9OSglqTWs3Lgyw46LbNVVGPFyDqRdKmeMi4zrUDYLRYUFTQwJnWB6HGInxTSfYpBIipYg2GOOtev5up4Mn0qNMIK6crYPWwQsAhaB5iMQdyN3klJxiuGdbYO0Ak6KqbQgpPmYY8u3GGwchCSd2qaxCFgELAIWgfoRgA/C22mPpFhwlA+C3WKwBKH+Lm9zsAhYBCwCFoEkCOAuhnSfYlAWBJxioPYkCDaSYpKObNNYBCwCFgGLQGMR4DgI23QchFRuMeCYoyIIbRwHwd7m2Nhub3OzCFgELAIWgUoIwAfhXR1JMa2nGPJFh4aGZYuhHeMgFMbIK9o4CJU6s/3dImARsAhYBBqHABOEbYO0fEFa72JQpxhAEFSo5bYjCHaLoXHd3eZkEbAIWAQsAkkRmCqBkg4Mu1S0PgjWSTFpx7bpLAIWAYuARaA+BNLvpKjjIKQykmIrAyWR3mKoT972aYuARcAiYBGwCCRCIP0WBOIthv3sg9DutznqELuJJGsTWQQsAhYBi4BFoA4E0h9qWR1zPHAUWwyWIFQdS7uOvmEftQhYBCwCFoE2RiD9pxjMSIrWSdEShFYPVn15T+jCpVbXwZZnEbAIWATqQEDdQFv9CxYEBEo6F6GWc2m8rMkSBBoft3EQqu/aDXrCI76k6dixYzR66qS+nEk5i/p36hn3n/BNa/oll8iZac1dIj+t4XvKWRkXCHJWlcqK+K5Kvn75ZfIw6xpXL/P5Su2KTZugXnEYoLrGpZU+nknb5T8fufw0tg1SlpnWxJszE4HGyzxWPpVkFldeArwq9YWKMotrr/FdaBezQhsq9S9TDqH+pftjrc9XwoCz1zJLLPMaMYhrl1l+pb5YjbyqkY3UARdYdXR20fSeHspms1VPilPBSTFfcHSgpAF7zNG4WbhqYdsHakMgP5an17dvo1PH9tH0Tn0fvOPx/YF82TNfj6tmPdziqG70xdXB+r4/R33PkwG+1xpHTV7qimH/ZkSelPUN8JotyCTHt+2FyIguqxi+N1LdMh2UL/XyiYeRr9zB59fBVwr6njxuA+of1NFsl1xn7frXNpfBQE/AnCsrQtRdsSn/HrzYslQKnzgxXhXwRu6uwhs4+LcVCt6cpdEu/3pmuapTSUjJTHBQnxWGug76Pcri3GJlLvXVUtfXWSs4+S5i6Q2hvsA9QMvCjbQ3VAetbIv6dmG5LRt15PrqCUNhpuTo9y8Nvtm/pInlZM7fo71etC8axFb6l68pzT6uyZ/cw5hA5n6/F7zjxpgee3JvppA61V59n6Z0Io2Bf8NqBJvwGDOu3I7KQWt/U4JyvauJd+heUn9O0N/6pFDkJXNC0MeLqFAM3uF5Jq5/EZ0cI+qYMZ9OP3MJdXd3l9w+W2lGBEHYuX2QVqbWgoDrns27GGwchEoytb83GIGx0THa+MogdXp7aeGcrFZu6npjDEuXr3d2iK841pOiedmzZgxaT+mZPJi7/eWyDHjWbMYKiJWcccuvUsqaFJh3wGPi869ZlplR0sqyyrxiWL/389fl+mWpuqo8TVUeqpxSPKzrImmNJb9fL3+SNuslLEHTFaVtFS663Nh2+Zf9ynOiwMGQihXxFkUbWm4aSjV8xXSAp6+5/fZqIijYc/0FZwNvU46aGgVXFJtX+WqtL6pN8BDGELAAnYvuCwa2fp/TxDXSocIjRHU89Z353k9lkCzjGm9Jq7bfJI9oewNFx3WI9ntpi9lGoUwxZZl9QskhIG1+G8x6h/pSab+NxUVjIKSPx4B5ebtB8rkOxnjVE0BgdgrhKeNNV1DGrv+8gaFul3ltekg2fr4RvKXr6KvnDx8t0Ki7gBYsWUm9vb1VEwRsMUio5TRHUsQphmIHLAjn6bHXYCVQU3YtOeZoAyXVJJsGPjQ2mqdNG9bRdHcfnT43p+d+TE6wIPBak7CCI89li4Ks0dQKTq8s9SrYXwljRaDrWJS6yipQTy+mSd3kB7IoludVDYIVHL6P+w5JuCydmb8gNi0E0Xr5aZUSwkQZbZdQh2i9zHbxCkie13UIVqu6vrosWcGpVbwGR9dL1I18H5dWrfrVql6txPUKLMjKz1fSmtjgabGomO0VK0kIW1iR9KoQFqWgLDVxm20ItzfAMb4NASc0ZTZR2nIyD9fBxEb1hTAGAVmIl4P0eaMvGX0mrr3J6uXvrJXIXPWvSngFVjRfDmxxKy+HcP+KaVd07EbGjeozgczFelFO5jxHaO4bdGvdLs1zRN3HzxOmbCr1L9X7Dh8Zp+PePJq/SBGEai3QyklxkJYPpDuSojrmuKAdCcI4jY+PkefZUMsN1PnJs/KIRsfytHXjIHU7+2jgtBxlDNIORaQ+qiFvKnKzEHPdbvABf3u7lrQTlSVK2ywr+p3BKUJ4xNV1orRxZYkiT9KueupaTRvqxave58v1j2rybVR7o/Ip1z/L9Zl6ZFbtGKmmrCRpm4V3tWOkmvGYpF2l5Xt08PA4jXhzaf7ildQ7Y0byeU+nnCrHHPf7lzVZC0LVQrYP1IfA6OgYbdu8jrpoPw3MyVFGGdWDvc0QNaivLPu0RcAiYBGoFwFltfHo0GFYEObSghoJQvp9EHCKwdFxENrSgmC3GOodLPU+Pzo6GhCE2R2UcTzeHjB3V6u23dVbKfu8RcAiYBEog4Camzw6eGScRoq1WxDSf4pBjjnaSIpKJYl9zA6NliGgLAiD1EX7aGB2B2Xh3W4F0TL8bUEWAYtAdQiYFoR6thhAEN6dEnEQSPsgtOUpBhsHobrh0cDU8EEYzdO2LYPUBR+E/hxljUMFDSzJZmURsAhYBBqCQKO2GJQPwnpasaBIqT3FYOMgwElxXHUca0FoyABKnAk7KY7R9pAFIfHTNqFFwCJgEZgUBOCDACfF48W56phjDU6KU+MUg0NDwy6RPeZotxhaPtI0QVBbDEM0MDtHOUvSWi4GW6BFwCKQHIFGbTHgNkcJlNSRylDLHuWLLhOENj3maJ0Ukw+LJqQ0txjYB8FuMTQBZZulRcAi0EAEGrXFkP5TDJ5x3XNbnmIw4iDYlWsDh1DyrMRJsdt3Ukz+7FRPqc5riNOF7YCNkycMwAjlzCGAGpatCtKTJc/p0HmaEQ7i3pf7Do9zLMHIeR3z7E70fTVppcnln5GjxCpOow637denmrLMyAfyXLLnJTiYqq2WVfEU1yfto8HfYmjEMcf5Hk3rSO9lTUNHscWQtuueXcq4WcpksuS6OByf7OV4nh/Uu+IThQIsCNpJMXS7ScVHbYIGIcBOipvXUScN0cI2siAUyKNMbh5lps0iz1UkIe2TYoNE3uRscI+HR8X8SaJTB8gpnmxYeUXHpUznLMpOP5PIkUnJkBq/1WGdtdILhfeSW/+EGxhpg4BgSlF6jqvvtIirvp9BsraV1Ct4zCyXv0UdPcSXxC8gDyrUOf8kQcvwO3+n0/rtUvdf+E3336iDy367/LDQOpyzro47Pkqnhl8nKpxsKLFLBlLyVL4FAZEU4YNQYxwEbDHs2raeli8oppggmHcxtF2gJFgQQBAQSdH6ICQfIg1KyVsMY+oUg0EQGpR7arPBBFN0HOroXUYdM84kl2+C4yDEqa3zVKmYhB4eP7Gf8oe3kJc/2jDv46KToez0AerqP58oo2TWHFpXJQFouHAmqfyxERrZ9wJRfrjhLWpkhiZBGCnOo/mLz32POim2fRwE2WIAY7YEoZGDKFFevpMiIinCgoA4CImenNKJlPHYpdyscynXt4Qy2RypmybaoPFNlhxP3p5H+RN7aOzQBvLGho1LJ+or3ANB6D2DOmdfRK6bJUdWy/VlazxtmuYblmmCjCar3HDViqMjdGzvM0wQ0jwS/EBJdUZSlFDLy3GbY4q3GFSoZWwxpCkOQqu3GCxBSDCRNDiJ4aTY6eyjhW0UBwEm5OzMVUwQsj5BaDC+bZodJvD8yC4aO/QqFceONo4guBnK9Z5B02atJjeTaQJBaFOB6WYXx0bo+J6nyZsCBMEPtVzHMce0Oyli0YxQy0MYQh0LU0YQHHLdHGWb64NgL2ua1CnJOObYbk6KIAg5JghnUybb4d8+OanyeI8UzhaEkV00ehgWhGYQhDXsGAU3AftqHALF/AiN7H6ailOAIAShlmvfYkh/qGWcYgBBcIlybXnd8+RvMbBLJbytYa4M2dVqM/uJj6a6Q75xg7cpOfkWhHUcSXFhf3tsMQBLnGAAQeiYeTb7ILhN289uiuRSnanaYthFo9hiGD3WsLoW2YJwJnX1ryYHBCHt46thLW9NRiAIJ3c/TYUp4IPQCILAcRC2DdK5qd1i8ChfcJkgpC8OQsu2GBBJUXwQGnckKumQAkEYGxuj0VOj1NHRQZ2dnazYjx07xk5rXV1dlMm4IWWvnsnT8PARmjNnDrnwgtevQqFIx4+PUH5sjPr7Z5Hr6mWOTlIsejQ+Pq7bLE+VznT4JpPNUCaT/AhJ0jb76dp5i4FcmgYLwsxF5GZz5LANofVLUihT/IGgyp66TzLLaEB5xu9bet8/mo/IuVJ+cf0mrl5MrPQhpYn2/4UgjB3aSEUmCI0Z1yZB4KNVKSEIxWKRcYE8gAs+44QWPseNX/yGl6QX/NW84FE2k1GHMI0+4f+WzVaUgdmPUBY+S1+RuqJeURmCIJza/TSNTwGC0IjbHKdGJEWX9oMg5No2DsJooCwnYcBjQG7YsJGe+PmTdNGFF9EVV1xBhfECfeMb36DeGb30S7/0SzR7dj+PYRmwXtGjTZs20d13/1+66667qKurk38DOdjx9g6699576d2dO+kzn/ksXXTRhZRlL3k1ue7atZueffZZ2rVrl5FneIpGuu7uHrr66qto6dKzKdeRq1r3J3rAD7WsnBTVZU2JnpzyiWBBmGyCADljwsaNmugjuVyO+8ixo0cpk81Sd3d3QDB1/8GEf/z4cSauHbkcOa7Lz4Dknjx5kgnutGnTQpM/8scfvgcJjhIHfEY9oERMRYL88EI9UIaUjXxQfjmSEBCETVQcxSmG5hAEjrYQIVcyzuT7Kk5dh/p0lKyZP0aJ2YEDB2jfvn00f/58mj17Nu3evZvH95lnnEHz5s1jGckLOG/fvp0/Llq0yJcV5POLX/yCZfj+97/flz3qAXKwY8cO2r9/P61Zs4blj+/kD7I/ceIE54U6zJgxg2WDer355pt0xhln8HfoY6gbvj///PNZhuZrKhEEtiDUGWqZnRS3rqflA2k95ogthozeYkhbHASHMm6uFXEQYEGYvGOOJ0+coh/+8Ec0OLieLrjwApo5s48H4k8e/QmdddaZtHr1ap50MciXLVvGg3rPnj30s5/9jJ54/Am684/upK7OLlq4cCEdPnyYvnnvvXTk8GFavGQJvfbaa/Q7v/M7dN55q9TE7Hn04osv0r/927/xgD377LN1uJawVh4+epRefvll+tVf/VW66aYbaHpPd3NWS8YWQ6cz1F5Oij5BWMJbDLAgYHGMCRwTLv6Ne0E5YGKF4sEEjYkd/2JChoxFOUOZIh9ZLcoqDiTAJIyY7J988kkaGBig5cuXM0n4z//8T/6MvofPyCOXzVLR81Tf/MlP6IMf/CCddtpprNBPnTpF69evp6effpouueQSuvzyy7mO+A313PHWW7Rt+3ZaunQpK56DBw9SPp9npYI6Hj16lL9Deeeeey63A2368Y9/zCTk/dddx30b4+Dxxx/nep533nkh8mJi1QqCgPEILKBsUR9Y8hRJL9DOnTtpaGiIenp6uF1HjhzxCXp01S6EQlbaIqczzzyTsd+2bZtvBcCqGwQA43bmzJn8PfB76aWX6JVXXuHFxemnn07r1q1jhQ5ZIB/kCdzRN4D5j370I5o+fTpdduml1NfXx3J97rnnWH5Ie+GFF9INN1xPPT3TyXUcOnHyJC8qMJ9gTviv//oveuutt/y+h7r09vbSkiVLuA7oO+i/6FdbtmyhK6+8krZu3cryhxxRt49+9KM0a9Ysf5HCJHEqWRAcjw6BIBRqv4sBWwzvbB+klSkPlMQWhNQFSmoDggBz/7at2+iBBx6iWbP6ecC8/PJ6Hoh79+5lpd/f38/kIJfN0K/8yq/QNddeS/fc83V6+KGHeALBhICJCL9hgGMl8elPf5onWUzkBw4eoE9+8lO0ZvVq/g6Tyfe//32eiLEaMOO1ySQLhg8lce37r+WJovkEQa57bp9Qy4EFAT4I2GJwfKWPiXXr1i2Uz6tVGiZbyBqTN5TyJz7xCZ5oBwcHmcgdOnSIFfKKFStYKaDfYKX21JNP0v4DB5gQQGkizTnnnEMXXHABKxq83njjDfrud7/Lz2K1ifJ+8IMf0KpVq5iQ4lmUD6WBbS+UB3L6y7/8y5we9dm8eTMrEJBOEJaLLrqI+xbKAxGAtevVV1/lcoeHh7kPQlG9/fbbrMDwh36OMvEe/RTK90tf+hJ9+vbbqau7mx599FFu9w9/+EMmEiAheMWZ0VtCEByXXn7lZfr2t79Nd9xxB7cN8kF7//u//5sJE/DDWMJqHiQIMgGRwDgXE7sQPWAERYv247fLLruMicXDDz/MYxXtRN7IBwTh4x//OK/WkSfKA9HD86+//jrjinzxO0gBXtdeey3LHnJCeqTF7yBakC++v+222xj7733ve1z+Nddcw6QMyv2FF17gOek3f/M3uZ2QM9qF/gO5LV68mMtCH8B8hHYjH5QBCwLmHPRNkEkQKBBMkAoQFSE7U4ogkEeHjoxTPXEQ0u+kqOIgHDjqULGjXbcYCmPkFdWeXCv3FDGAh4eP0cMPPUwvvPAi/fqv/zpPfBh4jz76CL3zzjs8iBYtWuybUjumdVDv9F7a+e5O+ru/+zK974oreILGALz3vnv5WWw/QJnALwFhKDHg3YxLH//Yx2jlqlX00osv0d13/x+efGbPnuPvJ/JKRq1zeCIqjI/Tp++4g66/7lrq6g6bAmOXtrV8GdliQByETNttMZQSBCgLrLKwOhwcXEe7d+/hyRtKAis+rMig1LHqe9/73sckERMylDd+h/IAUfyP//gPVrxQMFihok9Bedx00038h/ywGoQyRh+CAsCED6WDZ8Qagf50++2382r5wQcf5NUxCAWUHVaLICpQPiAGqAMUyvXXX89mZJDdp556it59911WRqjv9J4evsUTCgREAs9CKaI8KE/U65FHHqEnnniC/uzP/ozuv/9+rjuU3M9//nMuG6t2EBAoJrTZ3G5oFUEYXD9I9913H/3e7/0eEyjUATIDmcEqHqQd3+MFwgCZAZerr77aV9x4Bsr9L//yLxmvj33sYzxmIS+0G3j+1V/9FaeHcoWiBnm/9dZb6aqrrqK1a9fS888/z3meddZZrLSRBrKBPCA7vKC4YUXYuHEjEzys9tFvgCusFNK3IAeUgz88f8Xll/NC49UNG5ggYvsB2xAgKphD0O/mzp3LMkC9IU+0AyQQf5AZCCzkifLRVnwGyZH0wASynCoEQc2S9W8xyGVN7KSYysuaFEFo81DLk7PFcOrkKVq79gX2I4AlAZMJFDMm0ldeeZmV+9Jly6inu9uf/DAIb73tNt4j/qd/+ie68qqr6KePPUZ33fX3tPaFF3hyHc/naXy8QHPnnkYd06axP8PQ/iEetBjI6156ib73ve/TinNX0MqVKwn1KHk5xNsW2M7o7+9jgtGUl7nF0GahlgMLwmLDgqCsCGJ2xmr+4Ycf4hX6F7/4Jd9HAKtx+JlgFY8JGEoA5BDfYyWI1TW+gykZCvnmm2/mfKHY//Vf/5UnavQ3fIbSwspuxfLlNJbP8z40Vvkf+MAHQnvECxYs4G2G+x94gJU5Vobob1DiyA99F0qmc9o09l/A6hD5otznnn2W3tqxg/sgFCLM01AyIA/okyAxGdelsxYt4rpCEX3ta19jZYq2/PVf/zUTYTG5o2z84Tmkh6Jr+RaD4xIIwje/+U0mT2gbXsDhpz/9KW3YsIE+/OEP08UXX8zfg0QJQYBiN/ffoTT//M//nK0QIHcgA8jnO9/5Dm8doP1YyYM0gKSBlGCFDxKHPKFwb7jhBlbqIIDYggSuwEi2eYAVFiCoF0gB0lx33XUsS8gC6dCH8AzKwtYI6oF2QR4go7BOoH4gkrBggYyAiIJsQD5Q+CCMyO+BBx7gNqAfgfCCsIDYYcsB8r/llluYtKCfTFkLwns+UBJuc1TXPatTDGkKlPRe3mLwiInAQw89TI8//nPC5AtmDlPfK6++yqs4rIwWLhygDB+nUstqEASs/B5/4nFela1auYoefOhB+spXvsLpvvH/vkEL5i+gfH6MbrrpA2zGxWSP0w5/8Af/k50xsbrAiuCyyy7nAfrqhld51aONB8qQ4jg8oDGBzJ8/j9jHqRkre7YgqLsY2inUslqBxDspmk5tmGBhYsYEC3M7JmzICqt4rEj/5m/+Rp160U5+kDcmb6TDv7AOQMGiz+AFSwGUDp6BFQJkAv0BkzVkjj65aeNGmnPaadwnsb0gjrFYGWKCv/vuu3n1h5XrH/7hH7KikX1zmIuhILC6hFKBZQCKEEoB9YUpWnxl8DtWsiAwKKtYKFDfzJlcd1gWsEr+3Oc+x0oRZd155528+kTboeigIKWvRj3iW2VBWDe4jv7xH//R3/tHfUDqQOhGRkZYmQpBQPshSyhyEASRG55Bu2ApgbXhEx//OBN7yB4WIFgHvvCFL3B6yBf5gGzceOONnOaxxx5jBQt5okwQCtQB2xt4RpwlQRAgP/h1YJ5BHS+99FImGc888wyTPDgUos74HWXAgoD6g3hgvoE149d+7dfYcgCSARlCXiAHKBvyh8yRDoQC21ggPSAwl6xZQ4sWL2ZZguTAYop6h044TCEfBN9JsY7LmvgUw5b1tHxhkTpSGUlRCAIiKSIOQtsRhEm6i8Ej2rN3L23dso22bt3GkzlMhhhMGMAwA2ISOWvRWb5edhyX93wxkDFxwNQ6fHSYJwwMNqzWHnzgQfrQhz5Ez69dSxecf4EmGotYqdx55xf4lAMG7k8ee4y3J2b1z+I0sDioi1cUT8CgndnXR2vWrKb5C+ZRtlnmLyNQUhfta5tQy2GCIBaEMAuTkwFYIQpBwOocDmNYtWKS/tM//VP/qJqcSMC/+MMk/dBDD/GeNpQ7FC1kLYoBK0xsY6CvgZxiYseKHgoJyoa93zUxBVFAepT59a9/nS1LIBa/8Ru/watOEABYE6AkUBY7Wo6O0nXXX8+rSqxaoYSQB1aMICJQXigf5AWfoTRgDQHBgJ8BFBAc4qAUodwwNlA+2nQxfBwuuYTrh7qhjMnYYnhp3Uv05S9/mZUsVt5CELBCxor8U5/6VAlBkC0GkyBA0f7FX/wFEwQoaHHShDMxCBGUNNoJQgBssVWDfPAc5An8QBggAxAGKHSQKChv9AUQKMgTn2HxQf1g/gfRA2nDdgj8DWBdQvmQI7YOQMJQJ8gJ8w3mGhA6WA9A6rCIgAUBckUdIB/MWyAK6GuwUMFKySdeOjrYAoQ8kB8sCzN6eymby3Fe+H2qbDGY1z2PeLUHSkp/qGVEUpQthrT5ILQ0DkLrTzFAWSOWwc+feNJfxS1dtpTu/879vKrHgIaZHwN85MQIT5R3fPoOnoxgwjsyfISVPVZ0f//lv6fDRw6zWRYDFJPtFZdfSdu3v0bnnHM2jeVH6Y/uvJMvpnryyafYSQkTLo5Rjp4aY2c4Ndkq3wVFEohm9ffRqpUrqX92fyjWQsO2G+wWA+U4UJJyUoyayUHsQgShs5Mnb5iYMYHDqiBe8egnUNYwDYs1AOmQB5SunHIAEWA/gOnTOS+s1qFwQDBBDqAskAaKHMcq4Cswu7+fFTIsA9iCgNUA1gesJrFahXJAf92yeTNdvHq12k8uFpl4oD4gB1jZQlmAqMASBgWmLFmX8Wfst+M79F/UCyQYXvZz583j8tBOKESUj/rBIx5KE4oZ7yeDIGCLAVs9v/3bvx3aYsD4AkHDNk7UgjARQcCKXXwQgOu///u/86kNcTqGogdZghVGMAauIGuwTGDxAAIAJ0BxToQyhyxwXHr1xRdziGjI8Z577mErA7ZnxEkVvhNwuATOeA4WBmCLrSoQScgJ+cDyI0cX0Q/h+wAygC0HyA+kQxxTl55zDveBof37eS7DFggsWUiDNmAL9YO33hdUw7kAAB8rSURBVMrkZioSBL7NccnKmi5rSnuoZfhZgCCoUwxpIwgt2WKY3EiKUMw/+9kTtPb5tWzmxUT95ltv0tC+IZ78ZFJ88aUXac/uPfSZz/wvds7CtsHhI0fo2WeepXu+fg99/nOfo87OLvrmvd+k66+7njZs2ESXrLmEtjFBWOIThBMnT/CkDEfF5SuWczmwZLy94x3q65tJZ5xxOpMI3LDYM72bzjrrdD7FgEmkKQGTrAWhKoKASR8kABM6TLVf/OIXS47XwRQMpQnzLcz02EPGylwIAjzM5UQEFDG88OVEC1b64rAmznNwODx/1Sr65O23cx4gqvgOq1soE5il4fuACR7KAkRDTNuwRGAlibpiC+HGm25i8gqTM5QTVrFYueIFogLlAosCnv/qV7/KhAH1Rf4gFigbigcrTigorDqRDwjPZBGEqJMiVvk8xl56KTFBEB+EqAUBJAmm/r/927/1tyTMdkLxg4gAX1gQgAscTCFXKF9YEkAggB3IGvoFlDUIHXwEIDPMJ8gDGOK7T37yk7zlASUuFgQQDlgqQAAwT6HPgMAgP5AGEBP0G9QHzrQXXnABbdq8mfMF6QGpEesHLAiwYEDOeBZBmeZPYQvCe54gFDO0fxhbDG1JEAo0Pj45TorKoUkThLVr6Zabb+HVxtvvvM3nxmfM6ONV3NZt2+jVV3HG+X101ZVXUFd3J+8tb936Gr3x+uv07HPP0e2f+hQtW7acvvWt++iaa66nzZu28N7zjh1v0elnLKTRsVP0R3d+gQ4ePMTPgmD81m/9FuXH8/TsM8/ps8rvo/POP4/Nf5s2bqFly5bSylXLqa9vBuVycrVtw2wHvs8DVqjbNqvrngdm5yjXDF+HBle7EdkFPghBHATT0SNuiwEEAZM9FLk4qmHihzUAkzqUEiZgnH4BocN2FZQ0HPmi1gnZ+xaCAGWAVSMm774ZM3gfHEoBpn5sW2GViL4BcoBVIFbyKAdEFt/D3Ix/kY8EXMKqFr9DqeM5KHy8Rxkwb0OpYEWN/ojVK9KjrkIQMB5wrp5P53ge1w9EAooUq1soS5QVDbjTKh8EWBC+9a1v0e/+7u/6pxiEIMASAydSKEjUU04xwK9HfBBE2WPFjlMMaJdpQYBVBc/hFIO00SQI6AsmQYBlASt9yAwYgrDhBayAN4gDyAQUvmwlgWDBQoB/IYPPfvazrMxB5PAc5AmLJaxAIHuQOeYQWBZQJxBEWHSQN+SKeeeC88/3CQKeR95Y7IBAIB/0BTMOgvTNKWlBqMMHIf2hltv+uucUEYRbQBAuYmWNyRfKnPcC9++nG268iQfm7P4+IqdIjzz6Ezp+7ATt2b2bgyzdd9+99Mabb9Fdd/0DXXPVtbR163a69dZbaCyPCGfH6fjIcfrfn/88vfnmG/TIo4/SwIIB+sDNH+CyfvrYT2nOnNPoqquvpK7OabT9tdfpkR8/ymbpj370I7RkySLK5poUbtm8i6FtCUJ8qGUhCNiPx4T6J3/yJ7xi5i2nkRGe1KGEMPlihQYlgxUerD3wZ8EqEfvRmOSheE3Fwj4QnsekQggCJnasGrFtBYWA36BgPnjLLbR6zRomHKgH+gwUOszacFKEIoFSgkMaFDhWsngWq1esEqFEQGiQBgRBovih3iAw2OqC8sJeO6wdeN4kCCBA4hcDywNW1cgHK175PkrYWkIQXJe9+rGdAFIDT35gjJU15AJlKooZ3+MztmXQRmy1mH4TsIzAIgPHZLQXpAf5PP2LX9Abb77Jq/podEq0OUoQ4BsCfybICDjDmgCrJEgJtoCgoNFPkDe2RkBUQOzgPAkrE7774z/+Y96WwlYFvgPBQZ5Q7JArZAoLFixUqBPKgOUCJA5bFygLbQQRhPUiShAQqwV1+8hHPuIHSmpXgqBCLatIiul0UrRxELQFQe5iaMTaMHkesCA8/vgTfNzxlltupkvWrKZ8YZwOHjjIA+ypp56mvXv20qWXXUq33XYrDQzM53sZxsaUz8CzzzxDd931FZ7kN23aQt+5/3668YabOGASCAVY+4svPk8903vo9//H7/OkjkiKN954A/XNnMExGLZs2UZnn3M29ffPpsJ4nid2bDscOXyErrn2GvrQh27jUM9NuZjGbjFQbiacFFUkRfMuBjOADhzBoOT5TDvCI+vVNCZgiZeAyRorSEzOUNZ4BgodTopQxuUIAva54d2OiRwkACZoPAdrBBQFJnwoOpSNlSX+YJn6l3/5Nn3+859nEziICUgKCAUUHCwPsBxA2YPMYLUK8oCz+nLMDnXEShce8LCAoDxYE2SL4Z//+Z9ZOeEZqTvyEF8F1DfaJhl5rSAIuIthdGyUFS4sfbLnj7JBsKAwYXoXIoDPwALkhyOjGvccQNHDwQ9RI6f39vJvTASPH2cfEGwFmOl9hVossqywBQOCJ1ETISP4BGAOAenDwgN9IJdTBBNjXAgZFD38HMTxFBYMWHbkKCKUP6wYkBuIHAgHSBHmFpyCQt3RbyAbvAdxg3UB5AlOr/A1gPVJLAiweMCCAVnjefM1lSwIjTrFgMuaVizwUk0Q9h/FFgNCLbfdKYbJtSAgRsHLr7zK0RTXXHIxLV16DuG0Ao7CY7Dt3buPXlj7Iu3a9S7dfMvN7HCYzWb4fnsM9I2bNtL3vvt9+sKdd9LOd3ayAyImakwO2NuF8njjjdfpwgsvoKuvuYZe2/4a7Rvay6cTjh87Ss8++zwdPHiYAyFhpYcANr290znE6u49e/jCp6uuvormzT2NHONCqOQUqELKEEFQWwy4i6EddhnCWwzipBi03DyVABTNo3xyUkHCMkNO8AbnoFj6wh5JI8fI4ggCFBnIJIgFzMRyTwJWmCAYUP7oF1hJigJEmXv27Oa+BksFTMxwIkSMBCi+mbNmsXKBJQPKAStMKBgoA5xwwG8gElCq4teCPLHCxsoaBAfkAvv4UFrYI5ez/FjBguRC4UBZTTZBmOyOChmDWMCygpMEIFqCiRABEISenm6aOVNFb8QLsVIwN8zq72eZQ374DXMOjjXv2PE2ywAWDfyL32EdEOfIQwcPclndPT3+AIdskAZyxh+IEz6DgEi9ZJsIRAn+CxLEqV0tCOkPlAQnRcdwUrQEoWG6L0lGIALHjh6jkRMnaMaM6bziCI4bwofU4VsecUJBhTANLqjBBZTYOjh08BAPXKw0jhweVorcI5rRN4OODh+lsbFRmj1nNjt7cYTEwjh1dnawufHUqTEmG1AuIB6wTsBS4HkOrzJGT52i7p5uXtk0azIcHW33OAjxpxhkG8DsR1FHvCR9rJwZXkzUmMTlFtHoJUBY9cKKAGUuv8nWBxQAJn/0E4mjIREA8Rn9DYRBVs74Dd/hM/ISwiHtRD1MfwJ8RhpZbaNccVT0bz0tA0CrLAjNGhNJ5WpaTOLIEnCQVxxBTNKfomlMAlKuntE05Yhc9PkpZ0F4z4daxmVNDu1v+0BJpI85VjsyG5BejWE1kP2BpMd1+A46dSWv//JUuM/gpeMYhPYCjAnCnymC8oL5Qx+yM5fuOn/+pYlLepyYECfFhdqC0ABYU59FJQtCqxowkRIR5R2nXCrVbyLlU0mZTaTUJiI8psLMn9hFY4eae5tjM8dFJXzfi79POYJQZyTF9F/WBILgGgThPHX+PRWvlhxznNwthlTgPJmVMJ0UnSEa6G/HLYZ4H4TJFMtUL7v5FoSLyXWzTSXOU10GtdS/ODZCJ/c8TYX8cC2Pt+wZM1DS8TpOMajrngdpxUBafRAsQZjUY44t69FpLci/rGmQOtsxkuKslZTrW0xOJkuuE3ZSTKvIpkK9YBlrngXhDOrqX02Om7EEoZGdARbL/AiN7H2GimNHSgKHNbKoevOSS+0OwoJQR6CkKXGKAVsMCJSUs3EQ7ICvd+RU+3w7Oyk6Dk2beS519C0icnHnQdyFFzDnmRdyx72vFvQk6c1y49JX+r3cM7xpoS/2qKVdCctlgrCHxg5voeLoUQPDJG0vl8Yjz8lQtvd06px1ETmZDHkOvIRkq0/a5W908Bu+xttvs26/p7bt2MsI71XCABp89IiKnL9sHZr5Q5sij2iZZtmRDHVZqDMXB0dneZ6zC+oS+56rqcpV7Vb18t9zrqZsI9uheqcy1C55xkNuDnn5E3Ri6DnyRmFBwPNpMWeH+0SjLAjYYngXpxgG0n2bo4qkiFMMdouhnhnEPlstAv4WAwIl7WurQEmY/HK9Z1J2+gK1GtUaQikUfIL6AGnAZFwkjxCsqqBTIb28FxUU3KWh9glxdDdG88TKCCW6fISSn3OQP8o16yDvi1rpmXWUslBfvFeTu6q3Dt1tXCeOI51KaepyI++lXFGtnJdXZAUdtDtcVlCuUlTjpw5T/ujbrHQCklVtBzXTe9wsp2sWdXQv5tDjSk4TkJYJfuJn+XfVSnmvlH6YLJTo3RJupckCkw1Vz5B7UrTZxu+KZ8jzkS7jd59Ihv7HMgXpdgV1iamXyV+4PQ7R+BidPLqdaBwya9YNcfX0gUA0kNmhOn0Q0h9qWQIltXUkRURpg5Niaglr/T06rTkYWwyKIHTwMcd2eTm56eRku3THU2RAFk1QiEUno+gClCMhVoKK1wFF6UifhYpy1IkXpRSQB5R9oKiV0pcVmf4+tCCVZ4SMKIKg/vAeyhkrTK2U+aiLXuYKseA6uKzI1QsnYgKCIANMq0M13ETpe6rcouPq9iriwGm5PwhB0CSGywIGaJeQm6CNDmJFFEepmD9OTnG8Qd1JrxtdhEDHaSIhBxN02KSKWrKIGAn8BXR0YV7J+NKMck0Uk+bvE4xyxCNiTPKKVCicIOK+nW4Lgh8HoY4thqlDEKwFITQ5N2hGsdlUQqCdtxiEkfLWQqAZzHfakKuN2HKdkyIDSqeUMzFXAn6i3+O1VCVjdq0lVldaUErlloNYKStIY18m/o3N2eY2NRAIbTHUQRB4i2H7IJ07P8VOinxZk1z3bLcYpkYPfa/UkgmCxEFQFoR2uYvhvSJC2w6LQLshYBKEEW8uzV9c222O7KS4bT0tX5DWUMtmHISBdvRBmNzbHNttYJW0N0IQFrbZFkPby98CYBGYgggom5RHOMUw4s2j+YvPrem6Zz7mmOpQy+qY49CwS5S62xxdyrhZyuAEGPtwJXs5nhn5pcIziMyG6409D/uUwf5vsqJsqroR8AlC4KTYLqGW68bOZmARsAhMCgK+BaEBkRR3bh+klQvSeopBQi1n7HXPliBMwlgzfBC629BJcRIQt0VaBCwCDUAAnigHG0AQ3tk+SKvSTBCKGW1BsMcc03rstgHdOaVZRG5zlFMMbXSQIaWCsdWyCFgEyiHQUAvCNm1B6ICzcrpeaOeY76SYtkBJTd5iULflyRaDvovBaqbW9lBzi8HZp0Mty8n51lbFlmYRsAhYBJIgIAeADx3RkRRrdFKED8Kuretp+UCBOjqS76MnqWMj0gQEIY3HHF32P8hkcjoKbbIWJ/ZBwG2G+CsU8+TJWWlLEJKh3MBUuKxp+6Z11OUMEZwUMxIopoFl2KwsAhYBi0CjEPAJApwUi/No/pLanBT5FMOW9bRsIQhC+iwIMKmPFuCk6JDbuYCWLEvTMUcQhJxyUuSj4sleVRKEAl9/rAIlWSfFZBA3NhVf97xpkDq9IVrQ30EuEwR9yh3v/VC05vsiEQftwUsHyvED+xhRXFR4OiMsrYpc50erk5BzOvRtKK1Ed+M6SBAj472U66AuqIcZzU7qZYaLM75jIsrXZeptLQk8hLwkQEw0QoBEDowpy8SJ+7HZ7mhZJgZGwCPBgKMpRtoSzV9HeCzBPrZcBHJSdcA14n54YD/QklFXLtfAwClo7OV7Vz8fkWmJHKUL6RgI5cr1rzM122vWISpHjb1Ei6zUv/wQDNGVhxHpKLaPSzTECeQgz4WCLEX6TGy/jkZlkrqY/Qs4ixx0QKyScRgfwSI0dhk+U+byDOpgBPIKyTyuXJmb4/q1MZ5LxpP+omY5G2308ZY+RXR4OE8nCacYcMyxt6qJEbmAIOzcMkjLFxQom0NssCI5RYeKDgKD6YCYkSFjhj7hKulSQ4Ep9bB2o1Ofnm6icU+RhRmXlLPUETZPjTu0/5hLHb1n0KKzV6XmNkeEps+4iiCoMPXJXokJgtwvrwiCPcWQDN4Gp+IthnHasvllOjG8i3q7ETlQJmXzXzN0mzm5KH3BoXsNYhEOZSOHksTFxIzlJ+0JxfdToW/9puK9Cg2sYgXivRpi+L5IKvSwBB4uDWfka4mSwEZBnH6Vm1luUJZ6XqUNR0dU34UDE6spLcAomECi+Us6Vt1GyGDVXjNIMso126UwKK2Xee+AqofKN0grE1qgpIxA0fwEypUA0yhXlYXn5H3QoqicJUy1KKlouUFYZLONgXyVyBXOwEAho2Qej4dgGu2fUZlLMKxoAGpVQoCn1Avl635tyDzcP9SkHpRUTr5RvFQrpZ+oPEvLVf0a0SyD/hEn8wCvOPNrqZyRWzX9K5y/ibfUK05JijxK5azkKPVSbZSw36XjOTy2GW//Dg2XRk4SdUyfT0uWrqAZvb1V+bChzH37h2j7hvU0c5oOfupIfWTEh0OhmZRMpif5LkoUhMrG0bi4tFGCIM/lix6NFjI0d/6ZtOTsZcRXtafA0q4IQgdlMpnmEAQAKD4IRWwxWNN2g7V/5exA7AuFIu0/uJ+OHj+qrgLg2QvDR4UVVh1dhftVHROTFoa5pJVJLFDa4YlMVGh0Na+fD62Og2GlUpv/VSsphBtWYYdRA0UWRFGjjqaSCt6bw1W/x2TgGxEk3l9ATNQANScvbVwQQqQn9vBkrz4F6sqcoOOUs2n80GVx20wFolbU4SsCwvUNqAIu8kHaQJWVtMEnOya2cheBxtNcKGqLisLZVG6qvv7NFfqyIaGDnIX/n0BhSLcx77wwyZ1CzyhLr6TUQjggm0rVC5kI6hXMnrqH+nVQpYi8os+HiBw3VF2exMTXl3kUg3COSvCKWqi+alIkwdskzMG9H1yihknJrHxZYWyjfU7IbNBSWY1yn9btCdobKUvw1kiZZTHeoXbJuDLK0jOG+sXEOyBc/vjwZatlHlqRx2MQ4KSW6dN7e2lO/2ya1tGhLWWV5z01xXl0YvQEHRg6SIV8kZUcMPfnwAkv1AiPBJMmhks305XDKhgRZi9W7xVSmYxDfX19NLOvLx0EgY2k2GJoOkFA7O88bzOoUWgy/2SCtqlqRwCDwZ/PMJxZBKLgVBx+sRDgZjvusjxZatWAmPwwT/IdAFKP6Lqq/PAJah6oVBkU5rAp3yvi18dRRMzcZfrkqducqQzVEV+v8EAO1uUT1TQ8QQQqWTA0a2q0JXR3T7T2QkEq5+FvvRhtM+ugNV/AUvwLnoxdDk0L/HsZfNgMk7hfX9XeMDZx3wWTXyl6pqk9/GsYiUgekTpEiVq8vOIxDNsF5FO5esXloetdIkdWTYbQTZJWvi/EybF8H02Ad6he4XZV00fL16tUUqLwfDlUOfZK6yVjS89Zah8t+QtO8kyYQMewpaNIim8z4G3NgtrqCS3Zza1VkxAaz/oyjkuLsrS+8zcWUO2Imd6fmAtMZnh7kO99KYdt8qbXnRK3fzoZ7YMAC0Jy7BNvMaCSsCCECULdVbcZVImArD7V1KVWr6oLKoLg6o4ZEAS5JRAredlNk+GP5/SFP1pVRA3cgcktWD2FLQVhG4C5ho/biFBdU4zdwfo1uANAWqOoQTBBq9VdMPGIgg4QMY3t4XqLkTYwQUbTKvUVXiEKSmL4V/UO6hC0RaYk2SRQOCubiVJ9gVHanHrDqzZRFSpFUJaZe6CugjzxnZSFjQUlVdnYkf1SkbOJVzxBUG0M07zwPRel7Q1WuKp0sw5BKaXtDd+TIS03N2jCMlebVOo7pSKUhUzwDihe9PtgAycO26hsQ8TU33Mu1y41xsw6qDEiYy9e5nH9S6aDeLxlvAYWQUUX4uql+p1pFZCxE99vozIv7cvq+aBHi8ylDoJBtF1imfHgKxBR38mnP7OHiZTN+UwWOtHliZQooyTus5m3SNEkAeF5M5g9zbRBz+NvxSBWhTJOjkWVKVtGEPj2sDFlQeDla5UVtcknGQFzM2GSq2KLtwhYBCwCdSEQte6YCtvM2FTeYUUetoDG/ZYkT6Qp92xdDWzAw8rsrCwIssWQXHFXZUFQjorqPga7xdAA2dksLAIWAYuARcAi0DQElD3QdXQMBLeJWwzBSQbcx4D9HuuD0DS52owtAhYBi4BFwCJQFwKaIOCIo5sj13Wb54OAeuLCJvgh2JMMdUnNPmwRsAhYBCwCFoGmI8BunRxFUYIkNWmLAS3haIpykiHi9Nb0ltoCLAIWAYuARcAiYBFIjIA64ggLgsRAaCJBUNsMOOqYN/ykE9fVJrQIWAQsAhYBi4BFoEUIuG42sr3QbIJQHFcEgUMu25dFwCJgEbAIWAQsAulDwCUQhGwmw/4HwQHhZDWt6hSDytKjAuIhjMMPwd7JkAxmm8oiYBGwCFgELAKtRQD+B+qSJjm9UF0kihoIAkIgwA8BVgTcy4CQvvY0Q2vFbkuzCFgELAIWAYvAxAi4bkZvL5jHG5u4xaCqA4KgSII9zWC7qEXAImARsAhYBNKGgEMZ+B9k1PHGWiIb1mRBwDZDsYithnEqWmfFtPUKWx+LgEXAImARaHMEag2OZMJWI0FQt2vx7Y6+s6LdZmjz/mibbxGwCFgELAIpQEBd7wzfg6wRGCn51oI0oWaCwBsNfHnTOFsS1HUxliSkoG/YKlgELAIWAYtA2yLgEHwPspkc38HAV4bXeE1WXQRBrAjKF0FCL1uS0Lb90jbcImARsAhYBCYVAf9q55J7F1psQeArUvVWA0IwFz2xJEwqPrZwi4BFwCJgEbAItB0C2Fpw+d6FrHZMrA+CuiwIsq2gSII+1YDgSWzRsJaE+kRjn7YIWAQsAhYBi0AyBBQ5QNRE+B1UdylTuRLqJAjIVhGB4KZHiY1QTNYqm8oiYBGwCFgELAIWgZoRcBzldwDrgeuTg+q3FKIVaABBUFmCICBoEnwR+I/DMFsrQs0Stw9aBCwCFgGLgEWgAgLqtkaQgwy57JRYXbTEibJvGEEQfwTZbkAApSKiLHoRkmC3HmyHtwhYBCwCFgGLQN0IqG0FREtUxxnxuZaASOUq0kCCYFoSYE1QlgREXAxeNixz3T3CZmARsAhYBCwCbY4AiAEIgXJGDG8ryKI8RVsMYWkV9ekGFUyJrQqwJMCiQJowSN3liGabi9s23yJgEbAIWAQsAhMj4BD/j/0NsKWgnBF5V4FjHeBlEoT6SELDLQhmBT0cgyyqsMzYbvCYLIAgeESOJgoeTCL4bDuGRcAiYBGwCFgELAI+AqzrHX0qUFsKNDGQ+xUUOZAXPpjb+vUp1iYRhKC6ynlR/orsvAiSoIgC2oIGYOvBdgqLgEXAImARsAi0AQJJdLhPDtR2gjggOq6rrAgNdEYsh3jTCYIUDJKgHBlBDkhZFLQTo3xn0Ar91kDRd25MxiSivpFt0OVsEy0CFgGLgEVgkhAIWfknqINaMKsE0PFQ9v4KWas33jbQWwk4pcDp/O0EM3RyMn1YKyQtIwjaXKCMBnBH0ERBvpfTD75lQaU0iEJRf9JbEqH9FkCp4zHw94EAagXGPmcRsAhYBCwCFoGkCKgVvac1kNJJ6pPoMm3+D1kP1MkDJgl6rwDvYTEgEAOoO52HG95LaOhphXJtbDFBKFcNCdms/g22G0wkTccLYVDR7yR/MBB9wlIuqjAfwXe8taEjPuI9f6zSY7Ka5GbaUF2Sdj8jXVxeZif0I1kanbOaNlbTLrP6ZrmJ2hgpqFK55dpd0l5DlH4X0TJviZx1RaVePvZVyrqsnEtAj0xCNfTl8kMz+fZfqL1x47VCNSvJv6SPR4ZspecT4VlBRtF5BBNH3Hgz90wrlVvp95CCMWSbaIwl7HNlsYupXC1yTliNkmRxbWyqnGXsQg9FZFsynoM5RVkPzNW8+AKYPgFR/wDDeuB46ogiDxvldNiKLYRKYkkJQZCJA4zLUPJlrScVeoi233g8MSuyELwi37HMtODM94o9GDOa5FBO4Ga+pR3BdzSJEhNx0JQ6hMqVyUDqEp10o9+HmymdTWEQZbIRnEvKL1eW8ZzU1cc4gkHDyi2DPRxdud5Rmej0fvmadFaUc0K8zfaa/TWER4SAxso5QZ8KeSRrmfjNnQDvEAnWZjuxgfr7bxP05cRBzsyJ0CDcfntFFuXipsWNlXLjtVx748hIFWMldpaMYFPSx+PmjBg8Y5sXnb8mViLh6gkG5fpXHN6TIeeJ2pig35fD258fTeZgzIMlc3iscOMmysAZsGzXQebwnTMc6420ygpQrrzyeKhH5HeZzyrVuzW/p4sgJGpzSNtXmn2M3yHYctKrdwDV+nytz8UBJZ3XbGOt+VeatCsJqtZyK+Ub/T3JJBRRNnEKN0Qwktahykm96nLLkeC4cpPgXem5Su1OUka5fhk345qTYqWyo78nqUu9fbiatlTTF5K2u5o8k+CRFONa84rOP5WW+Unqk6QurZZzVI8kqWOS/msShCTYtCbNFCQIrQHGlmIRsAhYBCwCFoF2RsAShHaWvm27RcAiYBGwCFgEyiDw/wGfsPU5DromBAAAAABJRU5ErkJggg==;" parent="1" vertex="1">
          <mxGeometry x="447" y="317.48" width="380" height="255.04" as="geometry" />
        </mxCell>
        <mxCell id="5Aev1RExUfUuKyrzrUi3-4" value="" style="shape=flexArrow;endArrow=classic;html=1;rounded=0;entryX=0;entryY=0.5;entryDx=0;entryDy=0;exitX=1;exitY=0.5;exitDx=0;exitDy=0;fillColor=#dae8fc;strokeColor=#6c8ebf;" parent="1" source="5Aev1RExUfUuKyrzrUi3-2" target="5Aev1RExUfUuKyrzrUi3-3" edge="1">
          <mxGeometry width="50" height="50" relative="1" as="geometry">
            <mxPoint x="380" y="510" as="sourcePoint" />
            <mxPoint x="430" y="460" as="targetPoint" />
          </mxGeometry>
        </mxCell>
      </root>
    </mxGraphModel>
  </diagram>
  <diagram id="sLU79g_sLw5fsfF8xAup" name="Page-3">
    <mxGraphModel dx="1426" dy="769" grid="1" gridSize="10" guides="1" tooltips="1" connect="1" arrows="1" fold="1" page="1" pageScale="1" pageWidth="827" pageHeight="1169" math="0" shadow="0">
      <root>
        <mxCell id="0" />
        <mxCell id="1" parent="0" />
        <mxCell id="7mTIUS4BJ42e_Ka0iArK-4" value="" style="whiteSpace=wrap;html=1;aspect=fixed;fontSize=14;" parent="1" vertex="1">
          <mxGeometry x="120" y="20" width="620" height="620" as="geometry" />
        </mxCell>
        <mxCell id="VAUEmlCPFZRbgcxp1Mcg-4" style="rounded=0;orthogonalLoop=1;jettySize=auto;html=1;exitX=0.5;exitY=0;exitDx=0;exitDy=0;entryX=0.5;entryY=1;entryDx=0;entryDy=0;" parent="1" source="VAUEmlCPFZRbgcxp1Mcg-1" target="VAUEmlCPFZRbgcxp1Mcg-3" edge="1">
          <mxGeometry relative="1" as="geometry" />
        </mxCell>
        <mxCell id="VAUEmlCPFZRbgcxp1Mcg-6" style="edgeStyle=orthogonalEdgeStyle;rounded=0;orthogonalLoop=1;jettySize=auto;html=1;exitX=1;exitY=0.5;exitDx=0;exitDy=0;entryX=0;entryY=0.5;entryDx=0;entryDy=0;" parent="1" source="VAUEmlCPFZRbgcxp1Mcg-1" target="VAUEmlCPFZRbgcxp1Mcg-2" edge="1">
          <mxGeometry relative="1" as="geometry" />
        </mxCell>
        <mxCell id="VAUEmlCPFZRbgcxp1Mcg-1" value="客户端" style="rounded=1;whiteSpace=wrap;html=1;" parent="1" vertex="1">
          <mxGeometry x="150" y="240" width="120" height="60" as="geometry" />
        </mxCell>
        <mxCell id="VAUEmlCPFZRbgcxp1Mcg-5" style="rounded=0;orthogonalLoop=1;jettySize=auto;html=1;exitX=0.5;exitY=0;exitDx=0;exitDy=0;" parent="1" source="VAUEmlCPFZRbgcxp1Mcg-2" edge="1">
          <mxGeometry relative="1" as="geometry">
            <mxPoint x="390" y="130" as="targetPoint" />
          </mxGeometry>
        </mxCell>
        <mxCell id="VAUEmlCPFZRbgcxp1Mcg-2" value="服务端" style="rounded=1;whiteSpace=wrap;html=1;" parent="1" vertex="1">
          <mxGeometry x="510" y="240" width="120" height="60" as="geometry" />
        </mxCell>
        <mxCell id="VAUEmlCPFZRbgcxp1Mcg-3" value="注册中心" style="rounded=1;whiteSpace=wrap;html=1;" parent="1" vertex="1">
          <mxGeometry x="330" y="70" width="120" height="60" as="geometry" />
        </mxCell>
        <mxCell id="7mTIUS4BJ42e_Ka0iArK-3" value="&lt;font style=&quot;font-size: 14px&quot;&gt;1:注册中心如何实现？&lt;br&gt;2:客户端如何封装？&lt;br&gt;3:服务端如何将服务注册到注册中心？&lt;br&gt;4:客户端与服务端通过什么协议进行通信？&lt;/font&gt;" style="text;html=1;strokeColor=none;fillColor=none;align=left;verticalAlign=middle;whiteSpace=wrap;rounded=0;" parent="1" vertex="1">
          <mxGeometry x="150" y="340" width="320" height="120" as="geometry" />
        </mxCell>
      </root>
    </mxGraphModel>
  </diagram>
  <diagram id="-50GtGsK1iyMh3ttaeVt" name="裂变">
    <mxGraphModel dx="1426" dy="769" grid="1" gridSize="10" guides="1" tooltips="1" connect="1" arrows="1" fold="1" page="1" pageScale="1" pageWidth="827" pageHeight="1169" math="0" shadow="0">
      <root>
        <mxCell id="0" />
        <mxCell id="1" parent="0" />
      </root>
    </mxGraphModel>
  </diagram>
</mxfile>
